G04 #@! TF.GenerationSoftware,KiCad,Pcbnew,(5.1.2)-2*
G04 #@! TF.CreationDate,2020-01-11T10:49:25+03:00*
G04 #@! TF.ProjectId,DINODE,44494e4f-4445-42e6-9b69-6361645f7063,rev?*
G04 #@! TF.SameCoordinates,Original*
G04 #@! TF.FileFunction,Legend,Top*
G04 #@! TF.FilePolarity,Positive*
%FSLAX46Y46*%
G04 Gerber Fmt 4.6, Leading zero omitted, Abs format (unit mm)*
G04 Created by KiCad (PCBNEW (5.1.2)-2) date 2020-01-11 10:49:25*
%MOMM*%
%LPD*%
G04 APERTURE LIST*
%ADD10C,0.120000*%
%ADD11C,0.050000*%
%ADD12C,0.150000*%
%ADD13C,0.300000*%
%ADD14C,0.500000*%
%ADD15C,0.010000*%
%ADD16C,0.100000*%
G04 APERTURE END LIST*
D10*
X117758981Y-79375000D02*
G75*
G03X117758981Y-79375000I-283981J0D01*
G01*
D11*
X159131000Y-129540000D02*
X130810000Y-129540000D01*
X159131000Y-60198000D02*
X159131000Y-129540000D01*
X159131000Y-45720000D02*
X148590000Y-45720000D01*
X159131000Y-60198000D02*
X159131000Y-45720000D01*
X137160000Y-43180000D02*
X111760000Y-43180000D01*
X137160000Y-46990000D02*
X137160000Y-43180000D01*
X111760000Y-46990000D02*
X137160000Y-46990000D01*
X111760000Y-43180000D02*
X111760000Y-46990000D01*
X138303000Y-39370000D02*
X148590000Y-45720000D01*
X136017000Y-39370000D02*
X138303000Y-39370000D01*
X111760000Y-39370000D02*
X136017000Y-39370000D01*
X101473000Y-45720000D02*
X111760000Y-39370000D01*
X86995000Y-45720000D02*
X101473000Y-45720000D01*
X85090000Y-45720000D02*
X86995000Y-45720000D01*
X85090000Y-129540000D02*
X90170000Y-129540000D01*
X85090000Y-45720000D02*
X85090000Y-129540000D01*
X90170000Y-129540000D02*
X130810000Y-129540000D01*
D12*
X133818380Y-82446380D02*
X134627904Y-82446380D01*
X134723142Y-82398761D01*
X134770761Y-82351142D01*
X134818380Y-82255904D01*
X134818380Y-82065428D01*
X134770761Y-81970190D01*
X134723142Y-81922571D01*
X134627904Y-81874952D01*
X133818380Y-81874952D01*
X134770761Y-81446380D02*
X134818380Y-81303523D01*
X134818380Y-81065428D01*
X134770761Y-80970190D01*
X134723142Y-80922571D01*
X134627904Y-80874952D01*
X134532666Y-80874952D01*
X134437428Y-80922571D01*
X134389809Y-80970190D01*
X134342190Y-81065428D01*
X134294571Y-81255904D01*
X134246952Y-81351142D01*
X134199333Y-81398761D01*
X134104095Y-81446380D01*
X134008857Y-81446380D01*
X133913619Y-81398761D01*
X133866000Y-81351142D01*
X133818380Y-81255904D01*
X133818380Y-81017809D01*
X133866000Y-80874952D01*
X134294571Y-80446380D02*
X134294571Y-80113047D01*
X134818380Y-79970190D02*
X134818380Y-80446380D01*
X133818380Y-80446380D01*
X133818380Y-79970190D01*
X134818380Y-78970190D02*
X134342190Y-79303523D01*
X134818380Y-79541619D02*
X133818380Y-79541619D01*
X133818380Y-79160666D01*
X133866000Y-79065428D01*
X133913619Y-79017809D01*
X134008857Y-78970190D01*
X134151714Y-78970190D01*
X134246952Y-79017809D01*
X134294571Y-79065428D01*
X134342190Y-79160666D01*
X134342190Y-79541619D01*
X134818380Y-77303523D02*
X134818380Y-77779714D01*
X133818380Y-77779714D01*
X134294571Y-76970190D02*
X134294571Y-76636857D01*
X134818380Y-76494000D02*
X134818380Y-76970190D01*
X133818380Y-76970190D01*
X133818380Y-76494000D01*
X134818380Y-76065428D02*
X133818380Y-76065428D01*
X133818380Y-75827333D01*
X133866000Y-75684476D01*
X133961238Y-75589238D01*
X134056476Y-75541619D01*
X134246952Y-75494000D01*
X134389809Y-75494000D01*
X134580285Y-75541619D01*
X134675523Y-75589238D01*
X134770761Y-75684476D01*
X134818380Y-75827333D01*
X134818380Y-76065428D01*
X153122380Y-117570095D02*
X153122380Y-116951047D01*
X153503333Y-117284380D01*
X153503333Y-117141523D01*
X153550952Y-117046285D01*
X153598571Y-116998666D01*
X153693809Y-116951047D01*
X153931904Y-116951047D01*
X154027142Y-116998666D01*
X154074761Y-117046285D01*
X154122380Y-117141523D01*
X154122380Y-117427238D01*
X154074761Y-117522476D01*
X154027142Y-117570095D01*
X153122380Y-116665333D02*
X154122380Y-116332000D01*
X153122380Y-115998666D01*
X153122380Y-115760571D02*
X153122380Y-115141523D01*
X153503333Y-115474857D01*
X153503333Y-115332000D01*
X153550952Y-115236761D01*
X153598571Y-115189142D01*
X153693809Y-115141523D01*
X153931904Y-115141523D01*
X154027142Y-115189142D01*
X154074761Y-115236761D01*
X154122380Y-115332000D01*
X154122380Y-115617714D01*
X154074761Y-115712952D01*
X154027142Y-115760571D01*
X148550380Y-116014476D02*
X148550380Y-116490666D01*
X149026571Y-116538285D01*
X148978952Y-116490666D01*
X148931333Y-116395428D01*
X148931333Y-116157333D01*
X148978952Y-116062095D01*
X149026571Y-116014476D01*
X149121809Y-115966857D01*
X149359904Y-115966857D01*
X149455142Y-116014476D01*
X149502761Y-116062095D01*
X149550380Y-116157333D01*
X149550380Y-116395428D01*
X149502761Y-116490666D01*
X149455142Y-116538285D01*
X148550380Y-115681142D02*
X149550380Y-115347809D01*
X148550380Y-115014476D01*
X146058000Y-116331904D02*
X146010380Y-116427142D01*
X146010380Y-116570000D01*
X146058000Y-116712857D01*
X146153238Y-116808095D01*
X146248476Y-116855714D01*
X146438952Y-116903333D01*
X146581809Y-116903333D01*
X146772285Y-116855714D01*
X146867523Y-116808095D01*
X146962761Y-116712857D01*
X147010380Y-116570000D01*
X147010380Y-116474761D01*
X146962761Y-116331904D01*
X146915142Y-116284285D01*
X146581809Y-116284285D01*
X146581809Y-116474761D01*
X147010380Y-115855714D02*
X146010380Y-115855714D01*
X147010380Y-115284285D01*
X146010380Y-115284285D01*
X147010380Y-114808095D02*
X146010380Y-114808095D01*
X146010380Y-114570000D01*
X146058000Y-114427142D01*
X146153238Y-114331904D01*
X146248476Y-114284285D01*
X146438952Y-114236666D01*
X146581809Y-114236666D01*
X146772285Y-114284285D01*
X146867523Y-114331904D01*
X146962761Y-114427142D01*
X147010380Y-114570000D01*
X147010380Y-114808095D01*
X130778761Y-112688666D02*
X131254952Y-112688666D01*
X130683523Y-112974380D02*
X131016857Y-111974380D01*
X131350190Y-112974380D01*
X131540666Y-111974380D02*
X131874000Y-112974380D01*
X132207333Y-111974380D01*
X133112095Y-112974380D02*
X132778761Y-112498190D01*
X132540666Y-112974380D02*
X132540666Y-111974380D01*
X132921619Y-111974380D01*
X133016857Y-112022000D01*
X133064476Y-112069619D01*
X133112095Y-112164857D01*
X133112095Y-112307714D01*
X133064476Y-112402952D01*
X133016857Y-112450571D01*
X132921619Y-112498190D01*
X132540666Y-112498190D01*
X133540666Y-112593428D02*
X134302571Y-112593428D01*
X134778761Y-112974380D02*
X134778761Y-111974380D01*
X135207333Y-112926761D02*
X135350190Y-112974380D01*
X135588285Y-112974380D01*
X135683523Y-112926761D01*
X135731142Y-112879142D01*
X135778761Y-112783904D01*
X135778761Y-112688666D01*
X135731142Y-112593428D01*
X135683523Y-112545809D01*
X135588285Y-112498190D01*
X135397809Y-112450571D01*
X135302571Y-112402952D01*
X135254952Y-112355333D01*
X135207333Y-112260095D01*
X135207333Y-112164857D01*
X135254952Y-112069619D01*
X135302571Y-112022000D01*
X135397809Y-111974380D01*
X135635904Y-111974380D01*
X135778761Y-112022000D01*
X136207333Y-112974380D02*
X136207333Y-111974380D01*
X136588285Y-111974380D01*
X136683523Y-112022000D01*
X136731142Y-112069619D01*
X136778761Y-112164857D01*
X136778761Y-112307714D01*
X136731142Y-112402952D01*
X136683523Y-112450571D01*
X136588285Y-112498190D01*
X136207333Y-112498190D01*
X137207333Y-112593428D02*
X137969238Y-112593428D01*
X138874000Y-111974380D02*
X138683523Y-111974380D01*
X138588285Y-112022000D01*
X138540666Y-112069619D01*
X138445428Y-112212476D01*
X138397809Y-112402952D01*
X138397809Y-112783904D01*
X138445428Y-112879142D01*
X138493047Y-112926761D01*
X138588285Y-112974380D01*
X138778761Y-112974380D01*
X138874000Y-112926761D01*
X138921619Y-112879142D01*
X138969238Y-112783904D01*
X138969238Y-112545809D01*
X138921619Y-112450571D01*
X138874000Y-112402952D01*
X138778761Y-112355333D01*
X138588285Y-112355333D01*
X138493047Y-112402952D01*
X138445428Y-112450571D01*
X138397809Y-112545809D01*
X100393809Y-109164380D02*
X99917619Y-109164380D01*
X99917619Y-108164380D01*
X101298571Y-109069142D02*
X101250952Y-109116761D01*
X101108095Y-109164380D01*
X101012857Y-109164380D01*
X100870000Y-109116761D01*
X100774761Y-109021523D01*
X100727142Y-108926285D01*
X100679523Y-108735809D01*
X100679523Y-108592952D01*
X100727142Y-108402476D01*
X100774761Y-108307238D01*
X100870000Y-108212000D01*
X101012857Y-108164380D01*
X101108095Y-108164380D01*
X101250952Y-108212000D01*
X101298571Y-108259619D01*
X101727142Y-109164380D02*
X101727142Y-108164380D01*
X101965238Y-108164380D01*
X102108095Y-108212000D01*
X102203333Y-108307238D01*
X102250952Y-108402476D01*
X102298571Y-108592952D01*
X102298571Y-108735809D01*
X102250952Y-108926285D01*
X102203333Y-109021523D01*
X102108095Y-109116761D01*
X101965238Y-109164380D01*
X101727142Y-109164380D01*
X103489047Y-109164380D02*
X103489047Y-108164380D01*
X103870000Y-108164380D01*
X103965238Y-108212000D01*
X104012857Y-108259619D01*
X104060476Y-108354857D01*
X104060476Y-108497714D01*
X104012857Y-108592952D01*
X103965238Y-108640571D01*
X103870000Y-108688190D01*
X103489047Y-108688190D01*
X104679523Y-108164380D02*
X104870000Y-108164380D01*
X104965238Y-108212000D01*
X105060476Y-108307238D01*
X105108095Y-108497714D01*
X105108095Y-108831047D01*
X105060476Y-109021523D01*
X104965238Y-109116761D01*
X104870000Y-109164380D01*
X104679523Y-109164380D01*
X104584285Y-109116761D01*
X104489047Y-109021523D01*
X104441428Y-108831047D01*
X104441428Y-108497714D01*
X104489047Y-108307238D01*
X104584285Y-108212000D01*
X104679523Y-108164380D01*
X105393809Y-108164380D02*
X105965238Y-108164380D01*
X105679523Y-109164380D02*
X105679523Y-108164380D01*
X122484000Y-71334380D02*
X122484000Y-72143904D01*
X122531619Y-72239142D01*
X122579238Y-72286761D01*
X122674476Y-72334380D01*
X122864952Y-72334380D01*
X122960190Y-72286761D01*
X123007809Y-72239142D01*
X123055428Y-72143904D01*
X123055428Y-71334380D01*
X123484000Y-72286761D02*
X123626857Y-72334380D01*
X123864952Y-72334380D01*
X123960190Y-72286761D01*
X124007809Y-72239142D01*
X124055428Y-72143904D01*
X124055428Y-72048666D01*
X124007809Y-71953428D01*
X123960190Y-71905809D01*
X123864952Y-71858190D01*
X123674476Y-71810571D01*
X123579238Y-71762952D01*
X123531619Y-71715333D01*
X123484000Y-71620095D01*
X123484000Y-71524857D01*
X123531619Y-71429619D01*
X123579238Y-71382000D01*
X123674476Y-71334380D01*
X123912571Y-71334380D01*
X124055428Y-71382000D01*
X124484000Y-71810571D02*
X124817333Y-71810571D01*
X124960190Y-72334380D02*
X124484000Y-72334380D01*
X124484000Y-71334380D01*
X124960190Y-71334380D01*
X125960190Y-72334380D02*
X125626857Y-71858190D01*
X125388761Y-72334380D02*
X125388761Y-71334380D01*
X125769714Y-71334380D01*
X125864952Y-71382000D01*
X125912571Y-71429619D01*
X125960190Y-71524857D01*
X125960190Y-71667714D01*
X125912571Y-71762952D01*
X125864952Y-71810571D01*
X125769714Y-71858190D01*
X125388761Y-71858190D01*
X127150666Y-72334380D02*
X127150666Y-71334380D01*
X127531619Y-71334380D01*
X127626857Y-71382000D01*
X127674476Y-71429619D01*
X127722095Y-71524857D01*
X127722095Y-71667714D01*
X127674476Y-71762952D01*
X127626857Y-71810571D01*
X127531619Y-71858190D01*
X127150666Y-71858190D01*
X128341142Y-71334380D02*
X128531619Y-71334380D01*
X128626857Y-71382000D01*
X128722095Y-71477238D01*
X128769714Y-71667714D01*
X128769714Y-72001047D01*
X128722095Y-72191523D01*
X128626857Y-72286761D01*
X128531619Y-72334380D01*
X128341142Y-72334380D01*
X128245904Y-72286761D01*
X128150666Y-72191523D01*
X128103047Y-72001047D01*
X128103047Y-71667714D01*
X128150666Y-71477238D01*
X128245904Y-71382000D01*
X128341142Y-71334380D01*
X129055428Y-71334380D02*
X129626857Y-71334380D01*
X129341142Y-72334380D02*
X129341142Y-71334380D01*
X152471619Y-59126380D02*
X152138285Y-58650190D01*
X151900190Y-59126380D02*
X151900190Y-58126380D01*
X152281142Y-58126380D01*
X152376380Y-58174000D01*
X152424000Y-58221619D01*
X152471619Y-58316857D01*
X152471619Y-58459714D01*
X152424000Y-58554952D01*
X152376380Y-58602571D01*
X152281142Y-58650190D01*
X151900190Y-58650190D01*
X152900190Y-58602571D02*
X153233523Y-58602571D01*
X153376380Y-59126380D02*
X152900190Y-59126380D01*
X152900190Y-58126380D01*
X153376380Y-58126380D01*
X153757333Y-59078761D02*
X153900190Y-59126380D01*
X154138285Y-59126380D01*
X154233523Y-59078761D01*
X154281142Y-59031142D01*
X154328761Y-58935904D01*
X154328761Y-58840666D01*
X154281142Y-58745428D01*
X154233523Y-58697809D01*
X154138285Y-58650190D01*
X153947809Y-58602571D01*
X153852571Y-58554952D01*
X153804952Y-58507333D01*
X153757333Y-58412095D01*
X153757333Y-58316857D01*
X153804952Y-58221619D01*
X153852571Y-58174000D01*
X153947809Y-58126380D01*
X154185904Y-58126380D01*
X154328761Y-58174000D01*
X154757333Y-58602571D02*
X155090666Y-58602571D01*
X155233523Y-59126380D02*
X154757333Y-59126380D01*
X154757333Y-58126380D01*
X155233523Y-58126380D01*
X155519238Y-58126380D02*
X156090666Y-58126380D01*
X155804952Y-59126380D02*
X155804952Y-58126380D01*
X137072666Y-56991047D02*
X137072666Y-56514857D01*
X137358380Y-57086285D02*
X136358380Y-56752952D01*
X137358380Y-56419619D01*
X137358380Y-55514857D02*
X136882190Y-55848190D01*
X137358380Y-56086285D02*
X136358380Y-56086285D01*
X136358380Y-55705333D01*
X136406000Y-55610095D01*
X136453619Y-55562476D01*
X136548857Y-55514857D01*
X136691714Y-55514857D01*
X136786952Y-55562476D01*
X136834571Y-55610095D01*
X136882190Y-55705333D01*
X136882190Y-56086285D01*
X136834571Y-55086285D02*
X136834571Y-54752952D01*
X137358380Y-54610095D02*
X137358380Y-55086285D01*
X136358380Y-55086285D01*
X136358380Y-54610095D01*
X136834571Y-53848190D02*
X136834571Y-54181523D01*
X137358380Y-54181523D02*
X136358380Y-54181523D01*
X136358380Y-53705333D01*
X138874523Y-49744380D02*
X138398333Y-49744380D01*
X138350714Y-50220571D01*
X138398333Y-50172952D01*
X138493571Y-50125333D01*
X138731666Y-50125333D01*
X138826904Y-50172952D01*
X138874523Y-50220571D01*
X138922142Y-50315809D01*
X138922142Y-50553904D01*
X138874523Y-50649142D01*
X138826904Y-50696761D01*
X138731666Y-50744380D01*
X138493571Y-50744380D01*
X138398333Y-50696761D01*
X138350714Y-50649142D01*
X139207857Y-49744380D02*
X139541190Y-50744380D01*
X139874523Y-49744380D01*
X137699904Y-59650380D02*
X138318952Y-59650380D01*
X137985619Y-60031333D01*
X138128476Y-60031333D01*
X138223714Y-60078952D01*
X138271333Y-60126571D01*
X138318952Y-60221809D01*
X138318952Y-60459904D01*
X138271333Y-60555142D01*
X138223714Y-60602761D01*
X138128476Y-60650380D01*
X137842761Y-60650380D01*
X137747523Y-60602761D01*
X137699904Y-60555142D01*
X138604666Y-59650380D02*
X138938000Y-60650380D01*
X139271333Y-59650380D01*
X139509428Y-59650380D02*
X140128476Y-59650380D01*
X139795142Y-60031333D01*
X139938000Y-60031333D01*
X140033238Y-60078952D01*
X140080857Y-60126571D01*
X140128476Y-60221809D01*
X140128476Y-60459904D01*
X140080857Y-60555142D01*
X140033238Y-60602761D01*
X139938000Y-60650380D01*
X139652285Y-60650380D01*
X139557047Y-60602761D01*
X139509428Y-60555142D01*
X143367333Y-58586666D02*
X143843523Y-58586666D01*
X143272095Y-58872380D02*
X143605428Y-57872380D01*
X143938761Y-58872380D01*
X144129238Y-57872380D02*
X144462571Y-58872380D01*
X144795904Y-57872380D01*
X145700666Y-58777142D02*
X145653047Y-58824761D01*
X145510190Y-58872380D01*
X145414952Y-58872380D01*
X145272095Y-58824761D01*
X145176857Y-58729523D01*
X145129238Y-58634285D01*
X145081619Y-58443809D01*
X145081619Y-58300952D01*
X145129238Y-58110476D01*
X145176857Y-58015238D01*
X145272095Y-57920000D01*
X145414952Y-57872380D01*
X145510190Y-57872380D01*
X145653047Y-57920000D01*
X145700666Y-57967619D01*
X146700666Y-58777142D02*
X146653047Y-58824761D01*
X146510190Y-58872380D01*
X146414952Y-58872380D01*
X146272095Y-58824761D01*
X146176857Y-58729523D01*
X146129238Y-58634285D01*
X146081619Y-58443809D01*
X146081619Y-58300952D01*
X146129238Y-58110476D01*
X146176857Y-58015238D01*
X146272095Y-57920000D01*
X146414952Y-57872380D01*
X146510190Y-57872380D01*
X146653047Y-57920000D01*
X146700666Y-57967619D01*
X144462523Y-50506380D02*
X143986333Y-50506380D01*
X143938714Y-50982571D01*
X143986333Y-50934952D01*
X144081571Y-50887333D01*
X144319666Y-50887333D01*
X144414904Y-50934952D01*
X144462523Y-50982571D01*
X144510142Y-51077809D01*
X144510142Y-51315904D01*
X144462523Y-51411142D01*
X144414904Y-51458761D01*
X144319666Y-51506380D01*
X144081571Y-51506380D01*
X143986333Y-51458761D01*
X143938714Y-51411142D01*
X144795857Y-50506380D02*
X145129190Y-51506380D01*
X145462523Y-50506380D01*
X147351904Y-112212380D02*
X147351904Y-111212380D01*
X147732857Y-111212380D01*
X147828095Y-111260000D01*
X147875714Y-111307619D01*
X147923333Y-111402857D01*
X147923333Y-111545714D01*
X147875714Y-111640952D01*
X147828095Y-111688571D01*
X147732857Y-111736190D01*
X147351904Y-111736190D01*
X148351904Y-112212380D02*
X148351904Y-111212380D01*
X148590000Y-111212380D01*
X148732857Y-111260000D01*
X148828095Y-111355238D01*
X148875714Y-111450476D01*
X148923333Y-111640952D01*
X148923333Y-111783809D01*
X148875714Y-111974285D01*
X148828095Y-112069523D01*
X148732857Y-112164761D01*
X148590000Y-112212380D01*
X148351904Y-112212380D01*
X149256666Y-111212380D02*
X149923333Y-111212380D01*
X149494761Y-112212380D01*
X147351904Y-109672380D02*
X147351904Y-108672380D01*
X147732857Y-108672380D01*
X147828095Y-108720000D01*
X147875714Y-108767619D01*
X147923333Y-108862857D01*
X147923333Y-109005714D01*
X147875714Y-109100952D01*
X147828095Y-109148571D01*
X147732857Y-109196190D01*
X147351904Y-109196190D01*
X148351904Y-109672380D02*
X148351904Y-108672380D01*
X148590000Y-108672380D01*
X148732857Y-108720000D01*
X148828095Y-108815238D01*
X148875714Y-108910476D01*
X148923333Y-109100952D01*
X148923333Y-109243809D01*
X148875714Y-109434285D01*
X148828095Y-109529523D01*
X148732857Y-109624761D01*
X148590000Y-109672380D01*
X148351904Y-109672380D01*
X149828095Y-108672380D02*
X149351904Y-108672380D01*
X149304285Y-109148571D01*
X149351904Y-109100952D01*
X149447142Y-109053333D01*
X149685238Y-109053333D01*
X149780476Y-109100952D01*
X149828095Y-109148571D01*
X149875714Y-109243809D01*
X149875714Y-109481904D01*
X149828095Y-109577142D01*
X149780476Y-109624761D01*
X149685238Y-109672380D01*
X149447142Y-109672380D01*
X149351904Y-109624761D01*
X149304285Y-109577142D01*
X147351904Y-107132380D02*
X147351904Y-106132380D01*
X147732857Y-106132380D01*
X147828095Y-106180000D01*
X147875714Y-106227619D01*
X147923333Y-106322857D01*
X147923333Y-106465714D01*
X147875714Y-106560952D01*
X147828095Y-106608571D01*
X147732857Y-106656190D01*
X147351904Y-106656190D01*
X148351904Y-107132380D02*
X148351904Y-106132380D01*
X148590000Y-106132380D01*
X148732857Y-106180000D01*
X148828095Y-106275238D01*
X148875714Y-106370476D01*
X148923333Y-106560952D01*
X148923333Y-106703809D01*
X148875714Y-106894285D01*
X148828095Y-106989523D01*
X148732857Y-107084761D01*
X148590000Y-107132380D01*
X148351904Y-107132380D01*
X149256666Y-106132380D02*
X149875714Y-106132380D01*
X149542380Y-106513333D01*
X149685238Y-106513333D01*
X149780476Y-106560952D01*
X149828095Y-106608571D01*
X149875714Y-106703809D01*
X149875714Y-106941904D01*
X149828095Y-107037142D01*
X149780476Y-107084761D01*
X149685238Y-107132380D01*
X149399523Y-107132380D01*
X149304285Y-107084761D01*
X149256666Y-107037142D01*
X147351904Y-103957380D02*
X147351904Y-102957380D01*
X147732857Y-102957380D01*
X147828095Y-103005000D01*
X147875714Y-103052619D01*
X147923333Y-103147857D01*
X147923333Y-103290714D01*
X147875714Y-103385952D01*
X147828095Y-103433571D01*
X147732857Y-103481190D01*
X147351904Y-103481190D01*
X148351904Y-103957380D02*
X148351904Y-102957380D01*
X148590000Y-102957380D01*
X148732857Y-103005000D01*
X148828095Y-103100238D01*
X148875714Y-103195476D01*
X148923333Y-103385952D01*
X148923333Y-103528809D01*
X148875714Y-103719285D01*
X148828095Y-103814523D01*
X148732857Y-103909761D01*
X148590000Y-103957380D01*
X148351904Y-103957380D01*
X149875714Y-103957380D02*
X149304285Y-103957380D01*
X149590000Y-103957380D02*
X149590000Y-102957380D01*
X149494761Y-103100238D01*
X149399523Y-103195476D01*
X149304285Y-103243095D01*
X147351904Y-98242380D02*
X147351904Y-97242380D01*
X147732857Y-97242380D01*
X147828095Y-97290000D01*
X147875714Y-97337619D01*
X147923333Y-97432857D01*
X147923333Y-97575714D01*
X147875714Y-97670952D01*
X147828095Y-97718571D01*
X147732857Y-97766190D01*
X147351904Y-97766190D01*
X148923333Y-98147142D02*
X148875714Y-98194761D01*
X148732857Y-98242380D01*
X148637619Y-98242380D01*
X148494761Y-98194761D01*
X148399523Y-98099523D01*
X148351904Y-98004285D01*
X148304285Y-97813809D01*
X148304285Y-97670952D01*
X148351904Y-97480476D01*
X148399523Y-97385238D01*
X148494761Y-97290000D01*
X148637619Y-97242380D01*
X148732857Y-97242380D01*
X148875714Y-97290000D01*
X148923333Y-97337619D01*
X149256666Y-97242380D02*
X149923333Y-97242380D01*
X149494761Y-98242380D01*
X147351904Y-95702380D02*
X147351904Y-94702380D01*
X147732857Y-94702380D01*
X147828095Y-94750000D01*
X147875714Y-94797619D01*
X147923333Y-94892857D01*
X147923333Y-95035714D01*
X147875714Y-95130952D01*
X147828095Y-95178571D01*
X147732857Y-95226190D01*
X147351904Y-95226190D01*
X148923333Y-95607142D02*
X148875714Y-95654761D01*
X148732857Y-95702380D01*
X148637619Y-95702380D01*
X148494761Y-95654761D01*
X148399523Y-95559523D01*
X148351904Y-95464285D01*
X148304285Y-95273809D01*
X148304285Y-95130952D01*
X148351904Y-94940476D01*
X148399523Y-94845238D01*
X148494761Y-94750000D01*
X148637619Y-94702380D01*
X148732857Y-94702380D01*
X148875714Y-94750000D01*
X148923333Y-94797619D01*
X149828095Y-94702380D02*
X149351904Y-94702380D01*
X149304285Y-95178571D01*
X149351904Y-95130952D01*
X149447142Y-95083333D01*
X149685238Y-95083333D01*
X149780476Y-95130952D01*
X149828095Y-95178571D01*
X149875714Y-95273809D01*
X149875714Y-95511904D01*
X149828095Y-95607142D01*
X149780476Y-95654761D01*
X149685238Y-95702380D01*
X149447142Y-95702380D01*
X149351904Y-95654761D01*
X149304285Y-95607142D01*
X147351904Y-93162380D02*
X147351904Y-92162380D01*
X147732857Y-92162380D01*
X147828095Y-92210000D01*
X147875714Y-92257619D01*
X147923333Y-92352857D01*
X147923333Y-92495714D01*
X147875714Y-92590952D01*
X147828095Y-92638571D01*
X147732857Y-92686190D01*
X147351904Y-92686190D01*
X148923333Y-93067142D02*
X148875714Y-93114761D01*
X148732857Y-93162380D01*
X148637619Y-93162380D01*
X148494761Y-93114761D01*
X148399523Y-93019523D01*
X148351904Y-92924285D01*
X148304285Y-92733809D01*
X148304285Y-92590952D01*
X148351904Y-92400476D01*
X148399523Y-92305238D01*
X148494761Y-92210000D01*
X148637619Y-92162380D01*
X148732857Y-92162380D01*
X148875714Y-92210000D01*
X148923333Y-92257619D01*
X149256666Y-92162380D02*
X149875714Y-92162380D01*
X149542380Y-92543333D01*
X149685238Y-92543333D01*
X149780476Y-92590952D01*
X149828095Y-92638571D01*
X149875714Y-92733809D01*
X149875714Y-92971904D01*
X149828095Y-93067142D01*
X149780476Y-93114761D01*
X149685238Y-93162380D01*
X149399523Y-93162380D01*
X149304285Y-93114761D01*
X149256666Y-93067142D01*
X147351904Y-90622380D02*
X147351904Y-89622380D01*
X147732857Y-89622380D01*
X147828095Y-89670000D01*
X147875714Y-89717619D01*
X147923333Y-89812857D01*
X147923333Y-89955714D01*
X147875714Y-90050952D01*
X147828095Y-90098571D01*
X147732857Y-90146190D01*
X147351904Y-90146190D01*
X148923333Y-90527142D02*
X148875714Y-90574761D01*
X148732857Y-90622380D01*
X148637619Y-90622380D01*
X148494761Y-90574761D01*
X148399523Y-90479523D01*
X148351904Y-90384285D01*
X148304285Y-90193809D01*
X148304285Y-90050952D01*
X148351904Y-89860476D01*
X148399523Y-89765238D01*
X148494761Y-89670000D01*
X148637619Y-89622380D01*
X148732857Y-89622380D01*
X148875714Y-89670000D01*
X148923333Y-89717619D01*
X149875714Y-90622380D02*
X149304285Y-90622380D01*
X149590000Y-90622380D02*
X149590000Y-89622380D01*
X149494761Y-89765238D01*
X149399523Y-89860476D01*
X149304285Y-89908095D01*
X147351904Y-84272380D02*
X147351904Y-83272380D01*
X147732857Y-83272380D01*
X147828095Y-83320000D01*
X147875714Y-83367619D01*
X147923333Y-83462857D01*
X147923333Y-83605714D01*
X147875714Y-83700952D01*
X147828095Y-83748571D01*
X147732857Y-83796190D01*
X147351904Y-83796190D01*
X148685238Y-83748571D02*
X148828095Y-83796190D01*
X148875714Y-83843809D01*
X148923333Y-83939047D01*
X148923333Y-84081904D01*
X148875714Y-84177142D01*
X148828095Y-84224761D01*
X148732857Y-84272380D01*
X148351904Y-84272380D01*
X148351904Y-83272380D01*
X148685238Y-83272380D01*
X148780476Y-83320000D01*
X148828095Y-83367619D01*
X148875714Y-83462857D01*
X148875714Y-83558095D01*
X148828095Y-83653333D01*
X148780476Y-83700952D01*
X148685238Y-83748571D01*
X148351904Y-83748571D01*
X149256666Y-83272380D02*
X149923333Y-83272380D01*
X149494761Y-84272380D01*
X147351904Y-81732380D02*
X147351904Y-80732380D01*
X147732857Y-80732380D01*
X147828095Y-80780000D01*
X147875714Y-80827619D01*
X147923333Y-80922857D01*
X147923333Y-81065714D01*
X147875714Y-81160952D01*
X147828095Y-81208571D01*
X147732857Y-81256190D01*
X147351904Y-81256190D01*
X148685238Y-81208571D02*
X148828095Y-81256190D01*
X148875714Y-81303809D01*
X148923333Y-81399047D01*
X148923333Y-81541904D01*
X148875714Y-81637142D01*
X148828095Y-81684761D01*
X148732857Y-81732380D01*
X148351904Y-81732380D01*
X148351904Y-80732380D01*
X148685238Y-80732380D01*
X148780476Y-80780000D01*
X148828095Y-80827619D01*
X148875714Y-80922857D01*
X148875714Y-81018095D01*
X148828095Y-81113333D01*
X148780476Y-81160952D01*
X148685238Y-81208571D01*
X148351904Y-81208571D01*
X149828095Y-80732380D02*
X149351904Y-80732380D01*
X149304285Y-81208571D01*
X149351904Y-81160952D01*
X149447142Y-81113333D01*
X149685238Y-81113333D01*
X149780476Y-81160952D01*
X149828095Y-81208571D01*
X149875714Y-81303809D01*
X149875714Y-81541904D01*
X149828095Y-81637142D01*
X149780476Y-81684761D01*
X149685238Y-81732380D01*
X149447142Y-81732380D01*
X149351904Y-81684761D01*
X149304285Y-81637142D01*
X147351904Y-79192380D02*
X147351904Y-78192380D01*
X147732857Y-78192380D01*
X147828095Y-78240000D01*
X147875714Y-78287619D01*
X147923333Y-78382857D01*
X147923333Y-78525714D01*
X147875714Y-78620952D01*
X147828095Y-78668571D01*
X147732857Y-78716190D01*
X147351904Y-78716190D01*
X148685238Y-78668571D02*
X148828095Y-78716190D01*
X148875714Y-78763809D01*
X148923333Y-78859047D01*
X148923333Y-79001904D01*
X148875714Y-79097142D01*
X148828095Y-79144761D01*
X148732857Y-79192380D01*
X148351904Y-79192380D01*
X148351904Y-78192380D01*
X148685238Y-78192380D01*
X148780476Y-78240000D01*
X148828095Y-78287619D01*
X148875714Y-78382857D01*
X148875714Y-78478095D01*
X148828095Y-78573333D01*
X148780476Y-78620952D01*
X148685238Y-78668571D01*
X148351904Y-78668571D01*
X149256666Y-78192380D02*
X149875714Y-78192380D01*
X149542380Y-78573333D01*
X149685238Y-78573333D01*
X149780476Y-78620952D01*
X149828095Y-78668571D01*
X149875714Y-78763809D01*
X149875714Y-79001904D01*
X149828095Y-79097142D01*
X149780476Y-79144761D01*
X149685238Y-79192380D01*
X149399523Y-79192380D01*
X149304285Y-79144761D01*
X149256666Y-79097142D01*
X147351904Y-76652380D02*
X147351904Y-75652380D01*
X147732857Y-75652380D01*
X147828095Y-75700000D01*
X147875714Y-75747619D01*
X147923333Y-75842857D01*
X147923333Y-75985714D01*
X147875714Y-76080952D01*
X147828095Y-76128571D01*
X147732857Y-76176190D01*
X147351904Y-76176190D01*
X148685238Y-76128571D02*
X148828095Y-76176190D01*
X148875714Y-76223809D01*
X148923333Y-76319047D01*
X148923333Y-76461904D01*
X148875714Y-76557142D01*
X148828095Y-76604761D01*
X148732857Y-76652380D01*
X148351904Y-76652380D01*
X148351904Y-75652380D01*
X148685238Y-75652380D01*
X148780476Y-75700000D01*
X148828095Y-75747619D01*
X148875714Y-75842857D01*
X148875714Y-75938095D01*
X148828095Y-76033333D01*
X148780476Y-76080952D01*
X148685238Y-76128571D01*
X148351904Y-76128571D01*
X149875714Y-76652380D02*
X149304285Y-76652380D01*
X149590000Y-76652380D02*
X149590000Y-75652380D01*
X149494761Y-75795238D01*
X149399523Y-75890476D01*
X149304285Y-75938095D01*
X147423333Y-70302380D02*
X147423333Y-69302380D01*
X147804285Y-69302380D01*
X147899523Y-69350000D01*
X147947142Y-69397619D01*
X147994761Y-69492857D01*
X147994761Y-69635714D01*
X147947142Y-69730952D01*
X147899523Y-69778571D01*
X147804285Y-69826190D01*
X147423333Y-69826190D01*
X148375714Y-70016666D02*
X148851904Y-70016666D01*
X148280476Y-70302380D02*
X148613809Y-69302380D01*
X148947142Y-70302380D01*
X149185238Y-69302380D02*
X149851904Y-69302380D01*
X149423333Y-70302380D01*
X147423333Y-67762380D02*
X147423333Y-66762380D01*
X147804285Y-66762380D01*
X147899523Y-66810000D01*
X147947142Y-66857619D01*
X147994761Y-66952857D01*
X147994761Y-67095714D01*
X147947142Y-67190952D01*
X147899523Y-67238571D01*
X147804285Y-67286190D01*
X147423333Y-67286190D01*
X148375714Y-67476666D02*
X148851904Y-67476666D01*
X148280476Y-67762380D02*
X148613809Y-66762380D01*
X148947142Y-67762380D01*
X149756666Y-66762380D02*
X149280476Y-66762380D01*
X149232857Y-67238571D01*
X149280476Y-67190952D01*
X149375714Y-67143333D01*
X149613809Y-67143333D01*
X149709047Y-67190952D01*
X149756666Y-67238571D01*
X149804285Y-67333809D01*
X149804285Y-67571904D01*
X149756666Y-67667142D01*
X149709047Y-67714761D01*
X149613809Y-67762380D01*
X149375714Y-67762380D01*
X149280476Y-67714761D01*
X149232857Y-67667142D01*
X147423333Y-65222380D02*
X147423333Y-64222380D01*
X147804285Y-64222380D01*
X147899523Y-64270000D01*
X147947142Y-64317619D01*
X147994761Y-64412857D01*
X147994761Y-64555714D01*
X147947142Y-64650952D01*
X147899523Y-64698571D01*
X147804285Y-64746190D01*
X147423333Y-64746190D01*
X148375714Y-64936666D02*
X148851904Y-64936666D01*
X148280476Y-65222380D02*
X148613809Y-64222380D01*
X148947142Y-65222380D01*
X149185238Y-64222380D02*
X149804285Y-64222380D01*
X149470952Y-64603333D01*
X149613809Y-64603333D01*
X149709047Y-64650952D01*
X149756666Y-64698571D01*
X149804285Y-64793809D01*
X149804285Y-65031904D01*
X149756666Y-65127142D01*
X149709047Y-65174761D01*
X149613809Y-65222380D01*
X149328095Y-65222380D01*
X149232857Y-65174761D01*
X149185238Y-65127142D01*
X147423333Y-62682380D02*
X147423333Y-61682380D01*
X147804285Y-61682380D01*
X147899523Y-61730000D01*
X147947142Y-61777619D01*
X147994761Y-61872857D01*
X147994761Y-62015714D01*
X147947142Y-62110952D01*
X147899523Y-62158571D01*
X147804285Y-62206190D01*
X147423333Y-62206190D01*
X148375714Y-62396666D02*
X148851904Y-62396666D01*
X148280476Y-62682380D02*
X148613809Y-61682380D01*
X148947142Y-62682380D01*
X149804285Y-62682380D02*
X149232857Y-62682380D01*
X149518571Y-62682380D02*
X149518571Y-61682380D01*
X149423333Y-61825238D01*
X149328095Y-61920476D01*
X149232857Y-61968095D01*
D10*
X146685000Y-60960000D02*
X146685000Y-67945000D01*
X146685000Y-69850000D02*
X146685000Y-60960000D01*
X146685000Y-84455000D02*
X146685000Y-75565000D01*
X146685000Y-98425000D02*
X146685000Y-89535000D01*
X146685000Y-112395000D02*
X146685000Y-102870000D01*
D12*
X142906904Y-112212380D02*
X142906904Y-111212380D01*
X143287857Y-111212380D01*
X143383095Y-111260000D01*
X143430714Y-111307619D01*
X143478333Y-111402857D01*
X143478333Y-111545714D01*
X143430714Y-111640952D01*
X143383095Y-111688571D01*
X143287857Y-111736190D01*
X142906904Y-111736190D01*
X143906904Y-112212380D02*
X143906904Y-111212380D01*
X144145000Y-111212380D01*
X144287857Y-111260000D01*
X144383095Y-111355238D01*
X144430714Y-111450476D01*
X144478333Y-111640952D01*
X144478333Y-111783809D01*
X144430714Y-111974285D01*
X144383095Y-112069523D01*
X144287857Y-112164761D01*
X144145000Y-112212380D01*
X143906904Y-112212380D01*
X145335476Y-111212380D02*
X145145000Y-111212380D01*
X145049761Y-111260000D01*
X145002142Y-111307619D01*
X144906904Y-111450476D01*
X144859285Y-111640952D01*
X144859285Y-112021904D01*
X144906904Y-112117142D01*
X144954523Y-112164761D01*
X145049761Y-112212380D01*
X145240238Y-112212380D01*
X145335476Y-112164761D01*
X145383095Y-112117142D01*
X145430714Y-112021904D01*
X145430714Y-111783809D01*
X145383095Y-111688571D01*
X145335476Y-111640952D01*
X145240238Y-111593333D01*
X145049761Y-111593333D01*
X144954523Y-111640952D01*
X144906904Y-111688571D01*
X144859285Y-111783809D01*
X142906904Y-109672380D02*
X142906904Y-108672380D01*
X143287857Y-108672380D01*
X143383095Y-108720000D01*
X143430714Y-108767619D01*
X143478333Y-108862857D01*
X143478333Y-109005714D01*
X143430714Y-109100952D01*
X143383095Y-109148571D01*
X143287857Y-109196190D01*
X142906904Y-109196190D01*
X143906904Y-109672380D02*
X143906904Y-108672380D01*
X144145000Y-108672380D01*
X144287857Y-108720000D01*
X144383095Y-108815238D01*
X144430714Y-108910476D01*
X144478333Y-109100952D01*
X144478333Y-109243809D01*
X144430714Y-109434285D01*
X144383095Y-109529523D01*
X144287857Y-109624761D01*
X144145000Y-109672380D01*
X143906904Y-109672380D01*
X145335476Y-109005714D02*
X145335476Y-109672380D01*
X145097380Y-108624761D02*
X144859285Y-109339047D01*
X145478333Y-109339047D01*
X142906904Y-107132380D02*
X142906904Y-106132380D01*
X143287857Y-106132380D01*
X143383095Y-106180000D01*
X143430714Y-106227619D01*
X143478333Y-106322857D01*
X143478333Y-106465714D01*
X143430714Y-106560952D01*
X143383095Y-106608571D01*
X143287857Y-106656190D01*
X142906904Y-106656190D01*
X143906904Y-107132380D02*
X143906904Y-106132380D01*
X144145000Y-106132380D01*
X144287857Y-106180000D01*
X144383095Y-106275238D01*
X144430714Y-106370476D01*
X144478333Y-106560952D01*
X144478333Y-106703809D01*
X144430714Y-106894285D01*
X144383095Y-106989523D01*
X144287857Y-107084761D01*
X144145000Y-107132380D01*
X143906904Y-107132380D01*
X144859285Y-106227619D02*
X144906904Y-106180000D01*
X145002142Y-106132380D01*
X145240238Y-106132380D01*
X145335476Y-106180000D01*
X145383095Y-106227619D01*
X145430714Y-106322857D01*
X145430714Y-106418095D01*
X145383095Y-106560952D01*
X144811666Y-107132380D01*
X145430714Y-107132380D01*
X142906904Y-103957380D02*
X142906904Y-102957380D01*
X143287857Y-102957380D01*
X143383095Y-103005000D01*
X143430714Y-103052619D01*
X143478333Y-103147857D01*
X143478333Y-103290714D01*
X143430714Y-103385952D01*
X143383095Y-103433571D01*
X143287857Y-103481190D01*
X142906904Y-103481190D01*
X143906904Y-103957380D02*
X143906904Y-102957380D01*
X144145000Y-102957380D01*
X144287857Y-103005000D01*
X144383095Y-103100238D01*
X144430714Y-103195476D01*
X144478333Y-103385952D01*
X144478333Y-103528809D01*
X144430714Y-103719285D01*
X144383095Y-103814523D01*
X144287857Y-103909761D01*
X144145000Y-103957380D01*
X143906904Y-103957380D01*
X145097380Y-102957380D02*
X145192619Y-102957380D01*
X145287857Y-103005000D01*
X145335476Y-103052619D01*
X145383095Y-103147857D01*
X145430714Y-103338333D01*
X145430714Y-103576428D01*
X145383095Y-103766904D01*
X145335476Y-103862142D01*
X145287857Y-103909761D01*
X145192619Y-103957380D01*
X145097380Y-103957380D01*
X145002142Y-103909761D01*
X144954523Y-103862142D01*
X144906904Y-103766904D01*
X144859285Y-103576428D01*
X144859285Y-103338333D01*
X144906904Y-103147857D01*
X144954523Y-103052619D01*
X145002142Y-103005000D01*
X145097380Y-102957380D01*
X142906904Y-98242380D02*
X142906904Y-97242380D01*
X143287857Y-97242380D01*
X143383095Y-97290000D01*
X143430714Y-97337619D01*
X143478333Y-97432857D01*
X143478333Y-97575714D01*
X143430714Y-97670952D01*
X143383095Y-97718571D01*
X143287857Y-97766190D01*
X142906904Y-97766190D01*
X144478333Y-98147142D02*
X144430714Y-98194761D01*
X144287857Y-98242380D01*
X144192619Y-98242380D01*
X144049761Y-98194761D01*
X143954523Y-98099523D01*
X143906904Y-98004285D01*
X143859285Y-97813809D01*
X143859285Y-97670952D01*
X143906904Y-97480476D01*
X143954523Y-97385238D01*
X144049761Y-97290000D01*
X144192619Y-97242380D01*
X144287857Y-97242380D01*
X144430714Y-97290000D01*
X144478333Y-97337619D01*
X145335476Y-97242380D02*
X145145000Y-97242380D01*
X145049761Y-97290000D01*
X145002142Y-97337619D01*
X144906904Y-97480476D01*
X144859285Y-97670952D01*
X144859285Y-98051904D01*
X144906904Y-98147142D01*
X144954523Y-98194761D01*
X145049761Y-98242380D01*
X145240238Y-98242380D01*
X145335476Y-98194761D01*
X145383095Y-98147142D01*
X145430714Y-98051904D01*
X145430714Y-97813809D01*
X145383095Y-97718571D01*
X145335476Y-97670952D01*
X145240238Y-97623333D01*
X145049761Y-97623333D01*
X144954523Y-97670952D01*
X144906904Y-97718571D01*
X144859285Y-97813809D01*
X142906904Y-95702380D02*
X142906904Y-94702380D01*
X143287857Y-94702380D01*
X143383095Y-94750000D01*
X143430714Y-94797619D01*
X143478333Y-94892857D01*
X143478333Y-95035714D01*
X143430714Y-95130952D01*
X143383095Y-95178571D01*
X143287857Y-95226190D01*
X142906904Y-95226190D01*
X144478333Y-95607142D02*
X144430714Y-95654761D01*
X144287857Y-95702380D01*
X144192619Y-95702380D01*
X144049761Y-95654761D01*
X143954523Y-95559523D01*
X143906904Y-95464285D01*
X143859285Y-95273809D01*
X143859285Y-95130952D01*
X143906904Y-94940476D01*
X143954523Y-94845238D01*
X144049761Y-94750000D01*
X144192619Y-94702380D01*
X144287857Y-94702380D01*
X144430714Y-94750000D01*
X144478333Y-94797619D01*
X145335476Y-95035714D02*
X145335476Y-95702380D01*
X145097380Y-94654761D02*
X144859285Y-95369047D01*
X145478333Y-95369047D01*
X142906904Y-93162380D02*
X142906904Y-92162380D01*
X143287857Y-92162380D01*
X143383095Y-92210000D01*
X143430714Y-92257619D01*
X143478333Y-92352857D01*
X143478333Y-92495714D01*
X143430714Y-92590952D01*
X143383095Y-92638571D01*
X143287857Y-92686190D01*
X142906904Y-92686190D01*
X144478333Y-93067142D02*
X144430714Y-93114761D01*
X144287857Y-93162380D01*
X144192619Y-93162380D01*
X144049761Y-93114761D01*
X143954523Y-93019523D01*
X143906904Y-92924285D01*
X143859285Y-92733809D01*
X143859285Y-92590952D01*
X143906904Y-92400476D01*
X143954523Y-92305238D01*
X144049761Y-92210000D01*
X144192619Y-92162380D01*
X144287857Y-92162380D01*
X144430714Y-92210000D01*
X144478333Y-92257619D01*
X144859285Y-92257619D02*
X144906904Y-92210000D01*
X145002142Y-92162380D01*
X145240238Y-92162380D01*
X145335476Y-92210000D01*
X145383095Y-92257619D01*
X145430714Y-92352857D01*
X145430714Y-92448095D01*
X145383095Y-92590952D01*
X144811666Y-93162380D01*
X145430714Y-93162380D01*
X142906904Y-90622380D02*
X142906904Y-89622380D01*
X143287857Y-89622380D01*
X143383095Y-89670000D01*
X143430714Y-89717619D01*
X143478333Y-89812857D01*
X143478333Y-89955714D01*
X143430714Y-90050952D01*
X143383095Y-90098571D01*
X143287857Y-90146190D01*
X142906904Y-90146190D01*
X144478333Y-90527142D02*
X144430714Y-90574761D01*
X144287857Y-90622380D01*
X144192619Y-90622380D01*
X144049761Y-90574761D01*
X143954523Y-90479523D01*
X143906904Y-90384285D01*
X143859285Y-90193809D01*
X143859285Y-90050952D01*
X143906904Y-89860476D01*
X143954523Y-89765238D01*
X144049761Y-89670000D01*
X144192619Y-89622380D01*
X144287857Y-89622380D01*
X144430714Y-89670000D01*
X144478333Y-89717619D01*
X145097380Y-89622380D02*
X145192619Y-89622380D01*
X145287857Y-89670000D01*
X145335476Y-89717619D01*
X145383095Y-89812857D01*
X145430714Y-90003333D01*
X145430714Y-90241428D01*
X145383095Y-90431904D01*
X145335476Y-90527142D01*
X145287857Y-90574761D01*
X145192619Y-90622380D01*
X145097380Y-90622380D01*
X145002142Y-90574761D01*
X144954523Y-90527142D01*
X144906904Y-90431904D01*
X144859285Y-90241428D01*
X144859285Y-90003333D01*
X144906904Y-89812857D01*
X144954523Y-89717619D01*
X145002142Y-89670000D01*
X145097380Y-89622380D01*
X142906904Y-84272380D02*
X142906904Y-83272380D01*
X143287857Y-83272380D01*
X143383095Y-83320000D01*
X143430714Y-83367619D01*
X143478333Y-83462857D01*
X143478333Y-83605714D01*
X143430714Y-83700952D01*
X143383095Y-83748571D01*
X143287857Y-83796190D01*
X142906904Y-83796190D01*
X144240238Y-83748571D02*
X144383095Y-83796190D01*
X144430714Y-83843809D01*
X144478333Y-83939047D01*
X144478333Y-84081904D01*
X144430714Y-84177142D01*
X144383095Y-84224761D01*
X144287857Y-84272380D01*
X143906904Y-84272380D01*
X143906904Y-83272380D01*
X144240238Y-83272380D01*
X144335476Y-83320000D01*
X144383095Y-83367619D01*
X144430714Y-83462857D01*
X144430714Y-83558095D01*
X144383095Y-83653333D01*
X144335476Y-83700952D01*
X144240238Y-83748571D01*
X143906904Y-83748571D01*
X145335476Y-83272380D02*
X145145000Y-83272380D01*
X145049761Y-83320000D01*
X145002142Y-83367619D01*
X144906904Y-83510476D01*
X144859285Y-83700952D01*
X144859285Y-84081904D01*
X144906904Y-84177142D01*
X144954523Y-84224761D01*
X145049761Y-84272380D01*
X145240238Y-84272380D01*
X145335476Y-84224761D01*
X145383095Y-84177142D01*
X145430714Y-84081904D01*
X145430714Y-83843809D01*
X145383095Y-83748571D01*
X145335476Y-83700952D01*
X145240238Y-83653333D01*
X145049761Y-83653333D01*
X144954523Y-83700952D01*
X144906904Y-83748571D01*
X144859285Y-83843809D01*
X142906904Y-81732380D02*
X142906904Y-80732380D01*
X143287857Y-80732380D01*
X143383095Y-80780000D01*
X143430714Y-80827619D01*
X143478333Y-80922857D01*
X143478333Y-81065714D01*
X143430714Y-81160952D01*
X143383095Y-81208571D01*
X143287857Y-81256190D01*
X142906904Y-81256190D01*
X144240238Y-81208571D02*
X144383095Y-81256190D01*
X144430714Y-81303809D01*
X144478333Y-81399047D01*
X144478333Y-81541904D01*
X144430714Y-81637142D01*
X144383095Y-81684761D01*
X144287857Y-81732380D01*
X143906904Y-81732380D01*
X143906904Y-80732380D01*
X144240238Y-80732380D01*
X144335476Y-80780000D01*
X144383095Y-80827619D01*
X144430714Y-80922857D01*
X144430714Y-81018095D01*
X144383095Y-81113333D01*
X144335476Y-81160952D01*
X144240238Y-81208571D01*
X143906904Y-81208571D01*
X145335476Y-81065714D02*
X145335476Y-81732380D01*
X145097380Y-80684761D02*
X144859285Y-81399047D01*
X145478333Y-81399047D01*
X142906904Y-79192380D02*
X142906904Y-78192380D01*
X143287857Y-78192380D01*
X143383095Y-78240000D01*
X143430714Y-78287619D01*
X143478333Y-78382857D01*
X143478333Y-78525714D01*
X143430714Y-78620952D01*
X143383095Y-78668571D01*
X143287857Y-78716190D01*
X142906904Y-78716190D01*
X144240238Y-78668571D02*
X144383095Y-78716190D01*
X144430714Y-78763809D01*
X144478333Y-78859047D01*
X144478333Y-79001904D01*
X144430714Y-79097142D01*
X144383095Y-79144761D01*
X144287857Y-79192380D01*
X143906904Y-79192380D01*
X143906904Y-78192380D01*
X144240238Y-78192380D01*
X144335476Y-78240000D01*
X144383095Y-78287619D01*
X144430714Y-78382857D01*
X144430714Y-78478095D01*
X144383095Y-78573333D01*
X144335476Y-78620952D01*
X144240238Y-78668571D01*
X143906904Y-78668571D01*
X144859285Y-78287619D02*
X144906904Y-78240000D01*
X145002142Y-78192380D01*
X145240238Y-78192380D01*
X145335476Y-78240000D01*
X145383095Y-78287619D01*
X145430714Y-78382857D01*
X145430714Y-78478095D01*
X145383095Y-78620952D01*
X144811666Y-79192380D01*
X145430714Y-79192380D01*
X142906904Y-76652380D02*
X142906904Y-75652380D01*
X143287857Y-75652380D01*
X143383095Y-75700000D01*
X143430714Y-75747619D01*
X143478333Y-75842857D01*
X143478333Y-75985714D01*
X143430714Y-76080952D01*
X143383095Y-76128571D01*
X143287857Y-76176190D01*
X142906904Y-76176190D01*
X144240238Y-76128571D02*
X144383095Y-76176190D01*
X144430714Y-76223809D01*
X144478333Y-76319047D01*
X144478333Y-76461904D01*
X144430714Y-76557142D01*
X144383095Y-76604761D01*
X144287857Y-76652380D01*
X143906904Y-76652380D01*
X143906904Y-75652380D01*
X144240238Y-75652380D01*
X144335476Y-75700000D01*
X144383095Y-75747619D01*
X144430714Y-75842857D01*
X144430714Y-75938095D01*
X144383095Y-76033333D01*
X144335476Y-76080952D01*
X144240238Y-76128571D01*
X143906904Y-76128571D01*
X145097380Y-75652380D02*
X145192619Y-75652380D01*
X145287857Y-75700000D01*
X145335476Y-75747619D01*
X145383095Y-75842857D01*
X145430714Y-76033333D01*
X145430714Y-76271428D01*
X145383095Y-76461904D01*
X145335476Y-76557142D01*
X145287857Y-76604761D01*
X145192619Y-76652380D01*
X145097380Y-76652380D01*
X145002142Y-76604761D01*
X144954523Y-76557142D01*
X144906904Y-76461904D01*
X144859285Y-76271428D01*
X144859285Y-76033333D01*
X144906904Y-75842857D01*
X144954523Y-75747619D01*
X145002142Y-75700000D01*
X145097380Y-75652380D01*
X143613333Y-70302380D02*
X143613333Y-69302380D01*
X143994285Y-69302380D01*
X144089523Y-69350000D01*
X144137142Y-69397619D01*
X144184761Y-69492857D01*
X144184761Y-69635714D01*
X144137142Y-69730952D01*
X144089523Y-69778571D01*
X143994285Y-69826190D01*
X143613333Y-69826190D01*
X144565714Y-70016666D02*
X145041904Y-70016666D01*
X144470476Y-70302380D02*
X144803809Y-69302380D01*
X145137142Y-70302380D01*
X145899047Y-69302380D02*
X145708571Y-69302380D01*
X145613333Y-69350000D01*
X145565714Y-69397619D01*
X145470476Y-69540476D01*
X145422857Y-69730952D01*
X145422857Y-70111904D01*
X145470476Y-70207142D01*
X145518095Y-70254761D01*
X145613333Y-70302380D01*
X145803809Y-70302380D01*
X145899047Y-70254761D01*
X145946666Y-70207142D01*
X145994285Y-70111904D01*
X145994285Y-69873809D01*
X145946666Y-69778571D01*
X145899047Y-69730952D01*
X145803809Y-69683333D01*
X145613333Y-69683333D01*
X145518095Y-69730952D01*
X145470476Y-69778571D01*
X145422857Y-69873809D01*
X143613333Y-67762380D02*
X143613333Y-66762380D01*
X143994285Y-66762380D01*
X144089523Y-66810000D01*
X144137142Y-66857619D01*
X144184761Y-66952857D01*
X144184761Y-67095714D01*
X144137142Y-67190952D01*
X144089523Y-67238571D01*
X143994285Y-67286190D01*
X143613333Y-67286190D01*
X144565714Y-67476666D02*
X145041904Y-67476666D01*
X144470476Y-67762380D02*
X144803809Y-66762380D01*
X145137142Y-67762380D01*
X145899047Y-67095714D02*
X145899047Y-67762380D01*
X145660952Y-66714761D02*
X145422857Y-67429047D01*
X146041904Y-67429047D01*
X143613333Y-65222380D02*
X143613333Y-64222380D01*
X143994285Y-64222380D01*
X144089523Y-64270000D01*
X144137142Y-64317619D01*
X144184761Y-64412857D01*
X144184761Y-64555714D01*
X144137142Y-64650952D01*
X144089523Y-64698571D01*
X143994285Y-64746190D01*
X143613333Y-64746190D01*
X144565714Y-64936666D02*
X145041904Y-64936666D01*
X144470476Y-65222380D02*
X144803809Y-64222380D01*
X145137142Y-65222380D01*
X145422857Y-64317619D02*
X145470476Y-64270000D01*
X145565714Y-64222380D01*
X145803809Y-64222380D01*
X145899047Y-64270000D01*
X145946666Y-64317619D01*
X145994285Y-64412857D01*
X145994285Y-64508095D01*
X145946666Y-64650952D01*
X145375238Y-65222380D01*
X145994285Y-65222380D01*
X143613333Y-62682380D02*
X143613333Y-61682380D01*
X143994285Y-61682380D01*
X144089523Y-61730000D01*
X144137142Y-61777619D01*
X144184761Y-61872857D01*
X144184761Y-62015714D01*
X144137142Y-62110952D01*
X144089523Y-62158571D01*
X143994285Y-62206190D01*
X143613333Y-62206190D01*
X144565714Y-62396666D02*
X145041904Y-62396666D01*
X144470476Y-62682380D02*
X144803809Y-61682380D01*
X145137142Y-62682380D01*
X145660952Y-61682380D02*
X145756190Y-61682380D01*
X145851428Y-61730000D01*
X145899047Y-61777619D01*
X145946666Y-61872857D01*
X145994285Y-62063333D01*
X145994285Y-62301428D01*
X145946666Y-62491904D01*
X145899047Y-62587142D01*
X145851428Y-62634761D01*
X145756190Y-62682380D01*
X145660952Y-62682380D01*
X145565714Y-62634761D01*
X145518095Y-62587142D01*
X145470476Y-62491904D01*
X145422857Y-62301428D01*
X145422857Y-62063333D01*
X145470476Y-61872857D01*
X145518095Y-61777619D01*
X145565714Y-61730000D01*
X145660952Y-61682380D01*
D13*
X100373571Y-85490714D02*
X100373571Y-86205000D01*
X98873571Y-86205000D01*
X100230714Y-84133571D02*
X100302142Y-84205000D01*
X100373571Y-84419285D01*
X100373571Y-84562142D01*
X100302142Y-84776428D01*
X100159285Y-84919285D01*
X100016428Y-84990714D01*
X99730714Y-85062142D01*
X99516428Y-85062142D01*
X99230714Y-84990714D01*
X99087857Y-84919285D01*
X98945000Y-84776428D01*
X98873571Y-84562142D01*
X98873571Y-84419285D01*
X98945000Y-84205000D01*
X99016428Y-84133571D01*
X100373571Y-83490714D02*
X98873571Y-83490714D01*
X98873571Y-83133571D01*
X98945000Y-82919285D01*
X99087857Y-82776428D01*
X99230714Y-82705000D01*
X99516428Y-82633571D01*
X99730714Y-82633571D01*
X100016428Y-82705000D01*
X100159285Y-82776428D01*
X100302142Y-82919285D01*
X100373571Y-83133571D01*
X100373571Y-83490714D01*
X111046428Y-124975000D02*
X110903571Y-124903571D01*
X110689285Y-124903571D01*
X110475000Y-124975000D01*
X110332142Y-125117857D01*
X110260714Y-125260714D01*
X110189285Y-125546428D01*
X110189285Y-125760714D01*
X110260714Y-126046428D01*
X110332142Y-126189285D01*
X110475000Y-126332142D01*
X110689285Y-126403571D01*
X110832142Y-126403571D01*
X111046428Y-126332142D01*
X111117857Y-126260714D01*
X111117857Y-125760714D01*
X110832142Y-125760714D01*
X111689285Y-126332142D02*
X111903571Y-126403571D01*
X112260714Y-126403571D01*
X112403571Y-126332142D01*
X112475000Y-126260714D01*
X112546428Y-126117857D01*
X112546428Y-125975000D01*
X112475000Y-125832142D01*
X112403571Y-125760714D01*
X112260714Y-125689285D01*
X111975000Y-125617857D01*
X111832142Y-125546428D01*
X111760714Y-125475000D01*
X111689285Y-125332142D01*
X111689285Y-125189285D01*
X111760714Y-125046428D01*
X111832142Y-124975000D01*
X111975000Y-124903571D01*
X112332142Y-124903571D01*
X112546428Y-124975000D01*
X113189285Y-126403571D02*
X113189285Y-124903571D01*
X113689285Y-125975000D01*
X114189285Y-124903571D01*
X114189285Y-126403571D01*
X115975000Y-126332142D02*
X116189285Y-126403571D01*
X116546428Y-126403571D01*
X116689285Y-126332142D01*
X116760714Y-126260714D01*
X116832142Y-126117857D01*
X116832142Y-125975000D01*
X116760714Y-125832142D01*
X116689285Y-125760714D01*
X116546428Y-125689285D01*
X116260714Y-125617857D01*
X116117857Y-125546428D01*
X116046428Y-125475000D01*
X115975000Y-125332142D01*
X115975000Y-125189285D01*
X116046428Y-125046428D01*
X116117857Y-124975000D01*
X116260714Y-124903571D01*
X116617857Y-124903571D01*
X116832142Y-124975000D01*
X117475000Y-126403571D02*
X117475000Y-124903571D01*
X118189285Y-126403571D02*
X118189285Y-124903571D01*
X118689285Y-125975000D01*
X119189285Y-124903571D01*
X119189285Y-126403571D01*
X120117857Y-125546428D02*
X119975000Y-125475000D01*
X119903571Y-125403571D01*
X119832142Y-125260714D01*
X119832142Y-125189285D01*
X119903571Y-125046428D01*
X119975000Y-124975000D01*
X120117857Y-124903571D01*
X120403571Y-124903571D01*
X120546428Y-124975000D01*
X120617857Y-125046428D01*
X120689285Y-125189285D01*
X120689285Y-125260714D01*
X120617857Y-125403571D01*
X120546428Y-125475000D01*
X120403571Y-125546428D01*
X120117857Y-125546428D01*
X119975000Y-125617857D01*
X119903571Y-125689285D01*
X119832142Y-125832142D01*
X119832142Y-126117857D01*
X119903571Y-126260714D01*
X119975000Y-126332142D01*
X120117857Y-126403571D01*
X120403571Y-126403571D01*
X120546428Y-126332142D01*
X120617857Y-126260714D01*
X120689285Y-126117857D01*
X120689285Y-125832142D01*
X120617857Y-125689285D01*
X120546428Y-125617857D01*
X120403571Y-125546428D01*
X121617857Y-124903571D02*
X121760714Y-124903571D01*
X121903571Y-124975000D01*
X121975000Y-125046428D01*
X122046428Y-125189285D01*
X122117857Y-125475000D01*
X122117857Y-125832142D01*
X122046428Y-126117857D01*
X121975000Y-126260714D01*
X121903571Y-126332142D01*
X121760714Y-126403571D01*
X121617857Y-126403571D01*
X121475000Y-126332142D01*
X121403571Y-126260714D01*
X121332142Y-126117857D01*
X121260714Y-125832142D01*
X121260714Y-125475000D01*
X121332142Y-125189285D01*
X121403571Y-125046428D01*
X121475000Y-124975000D01*
X121617857Y-124903571D01*
X123046428Y-124903571D02*
X123189285Y-124903571D01*
X123332142Y-124975000D01*
X123403571Y-125046428D01*
X123475000Y-125189285D01*
X123546428Y-125475000D01*
X123546428Y-125832142D01*
X123475000Y-126117857D01*
X123403571Y-126260714D01*
X123332142Y-126332142D01*
X123189285Y-126403571D01*
X123046428Y-126403571D01*
X122903571Y-126332142D01*
X122832142Y-126260714D01*
X122760714Y-126117857D01*
X122689285Y-125832142D01*
X122689285Y-125475000D01*
X122760714Y-125189285D01*
X122832142Y-125046428D01*
X122903571Y-124975000D01*
X123046428Y-124903571D01*
X124903571Y-126403571D02*
X124189285Y-126403571D01*
X124189285Y-124903571D01*
X115189285Y-127453571D02*
X115689285Y-128953571D01*
X116189285Y-127453571D01*
X116617857Y-127596428D02*
X116689285Y-127525000D01*
X116832142Y-127453571D01*
X117189285Y-127453571D01*
X117332142Y-127525000D01*
X117403571Y-127596428D01*
X117475000Y-127739285D01*
X117475000Y-127882142D01*
X117403571Y-128096428D01*
X116546428Y-128953571D01*
X117475000Y-128953571D01*
X118117857Y-128810714D02*
X118189285Y-128882142D01*
X118117857Y-128953571D01*
X118046428Y-128882142D01*
X118117857Y-128810714D01*
X118117857Y-128953571D01*
X119117857Y-127453571D02*
X119260714Y-127453571D01*
X119403571Y-127525000D01*
X119475000Y-127596428D01*
X119546428Y-127739285D01*
X119617857Y-128025000D01*
X119617857Y-128382142D01*
X119546428Y-128667857D01*
X119475000Y-128810714D01*
X119403571Y-128882142D01*
X119260714Y-128953571D01*
X119117857Y-128953571D01*
X118975000Y-128882142D01*
X118903571Y-128810714D01*
X118832142Y-128667857D01*
X118760714Y-128382142D01*
X118760714Y-128025000D01*
X118832142Y-127739285D01*
X118903571Y-127596428D01*
X118975000Y-127525000D01*
X119117857Y-127453571D01*
X93782142Y-126257857D02*
X94282142Y-126257857D01*
X94496428Y-127043571D02*
X93782142Y-127043571D01*
X93782142Y-125543571D01*
X94496428Y-125543571D01*
X95067857Y-126972142D02*
X95282142Y-127043571D01*
X95639285Y-127043571D01*
X95782142Y-126972142D01*
X95853571Y-126900714D01*
X95925000Y-126757857D01*
X95925000Y-126615000D01*
X95853571Y-126472142D01*
X95782142Y-126400714D01*
X95639285Y-126329285D01*
X95353571Y-126257857D01*
X95210714Y-126186428D01*
X95139285Y-126115000D01*
X95067857Y-125972142D01*
X95067857Y-125829285D01*
X95139285Y-125686428D01*
X95210714Y-125615000D01*
X95353571Y-125543571D01*
X95710714Y-125543571D01*
X95925000Y-125615000D01*
X96567857Y-127043571D02*
X96567857Y-125543571D01*
X97139285Y-125543571D01*
X97282142Y-125615000D01*
X97353571Y-125686428D01*
X97425000Y-125829285D01*
X97425000Y-126043571D01*
X97353571Y-126186428D01*
X97282142Y-126257857D01*
X97139285Y-126329285D01*
X96567857Y-126329285D01*
X98282142Y-126186428D02*
X98139285Y-126115000D01*
X98067857Y-126043571D01*
X97996428Y-125900714D01*
X97996428Y-125829285D01*
X98067857Y-125686428D01*
X98139285Y-125615000D01*
X98282142Y-125543571D01*
X98567857Y-125543571D01*
X98710714Y-125615000D01*
X98782142Y-125686428D01*
X98853571Y-125829285D01*
X98853571Y-125900714D01*
X98782142Y-126043571D01*
X98710714Y-126115000D01*
X98567857Y-126186428D01*
X98282142Y-126186428D01*
X98139285Y-126257857D01*
X98067857Y-126329285D01*
X97996428Y-126472142D01*
X97996428Y-126757857D01*
X98067857Y-126900714D01*
X98139285Y-126972142D01*
X98282142Y-127043571D01*
X98567857Y-127043571D01*
X98710714Y-126972142D01*
X98782142Y-126900714D01*
X98853571Y-126757857D01*
X98853571Y-126472142D01*
X98782142Y-126329285D01*
X98710714Y-126257857D01*
X98567857Y-126186428D01*
X99425000Y-125686428D02*
X99496428Y-125615000D01*
X99639285Y-125543571D01*
X99996428Y-125543571D01*
X100139285Y-125615000D01*
X100210714Y-125686428D01*
X100282142Y-125829285D01*
X100282142Y-125972142D01*
X100210714Y-126186428D01*
X99353571Y-127043571D01*
X100282142Y-127043571D01*
X101567857Y-125543571D02*
X101282142Y-125543571D01*
X101139285Y-125615000D01*
X101067857Y-125686428D01*
X100925000Y-125900714D01*
X100853571Y-126186428D01*
X100853571Y-126757857D01*
X100925000Y-126900714D01*
X100996428Y-126972142D01*
X101139285Y-127043571D01*
X101425000Y-127043571D01*
X101567857Y-126972142D01*
X101639285Y-126900714D01*
X101710714Y-126757857D01*
X101710714Y-126400714D01*
X101639285Y-126257857D01*
X101567857Y-126186428D01*
X101425000Y-126115000D01*
X101139285Y-126115000D01*
X100996428Y-126186428D01*
X100925000Y-126257857D01*
X100853571Y-126400714D01*
X102996428Y-125543571D02*
X102710714Y-125543571D01*
X102567857Y-125615000D01*
X102496428Y-125686428D01*
X102353571Y-125900714D01*
X102282142Y-126186428D01*
X102282142Y-126757857D01*
X102353571Y-126900714D01*
X102425000Y-126972142D01*
X102567857Y-127043571D01*
X102853571Y-127043571D01*
X102996428Y-126972142D01*
X103067857Y-126900714D01*
X103139285Y-126757857D01*
X103139285Y-126400714D01*
X103067857Y-126257857D01*
X102996428Y-126186428D01*
X102853571Y-126115000D01*
X102567857Y-126115000D01*
X102425000Y-126186428D01*
X102353571Y-126257857D01*
X102282142Y-126400714D01*
D14*
X114237619Y-103139761D02*
X114237619Y-101139761D01*
X114713809Y-101139761D01*
X114999523Y-101235000D01*
X115190000Y-101425476D01*
X115285238Y-101615952D01*
X115380476Y-101996904D01*
X115380476Y-102282619D01*
X115285238Y-102663571D01*
X115190000Y-102854047D01*
X114999523Y-103044523D01*
X114713809Y-103139761D01*
X114237619Y-103139761D01*
X116237619Y-103139761D02*
X116237619Y-101139761D01*
X117190000Y-103139761D02*
X117190000Y-101139761D01*
X118332857Y-103139761D01*
X118332857Y-101139761D01*
X119666190Y-101139761D02*
X120047142Y-101139761D01*
X120237619Y-101235000D01*
X120428095Y-101425476D01*
X120523333Y-101806428D01*
X120523333Y-102473095D01*
X120428095Y-102854047D01*
X120237619Y-103044523D01*
X120047142Y-103139761D01*
X119666190Y-103139761D01*
X119475714Y-103044523D01*
X119285238Y-102854047D01*
X119190000Y-102473095D01*
X119190000Y-101806428D01*
X119285238Y-101425476D01*
X119475714Y-101235000D01*
X119666190Y-101139761D01*
X121380476Y-103139761D02*
X121380476Y-101139761D01*
X121856666Y-101139761D01*
X122142380Y-101235000D01*
X122332857Y-101425476D01*
X122428095Y-101615952D01*
X122523333Y-101996904D01*
X122523333Y-102282619D01*
X122428095Y-102663571D01*
X122332857Y-102854047D01*
X122142380Y-103044523D01*
X121856666Y-103139761D01*
X121380476Y-103139761D01*
X123380476Y-102092142D02*
X124047142Y-102092142D01*
X124332857Y-103139761D02*
X123380476Y-103139761D01*
X123380476Y-101139761D01*
X124332857Y-101139761D01*
X125190000Y-102377857D02*
X126713809Y-102377857D01*
X127570952Y-102568333D02*
X128523333Y-102568333D01*
X127380476Y-103139761D02*
X128047142Y-101139761D01*
X128713809Y-103139761D01*
X129094761Y-101139761D02*
X129761428Y-103139761D01*
X130428095Y-101139761D01*
X132237619Y-103139761D02*
X131570952Y-102187380D01*
X131094761Y-103139761D02*
X131094761Y-101139761D01*
X131856666Y-101139761D01*
X132047142Y-101235000D01*
X132142380Y-101330238D01*
X132237619Y-101520714D01*
X132237619Y-101806428D01*
X132142380Y-101996904D01*
X132047142Y-102092142D01*
X131856666Y-102187380D01*
X131094761Y-102187380D01*
D15*
G04 #@! TO.C,REF\002A\002A*
G36*
X122821878Y-103729776D02*
G01*
X122927612Y-103730355D01*
X123004132Y-103731922D01*
X123056372Y-103734972D01*
X123089263Y-103739996D01*
X123107737Y-103747489D01*
X123116727Y-103757944D01*
X123121163Y-103771853D01*
X123121594Y-103773654D01*
X123128333Y-103806145D01*
X123140808Y-103870252D01*
X123157719Y-103959151D01*
X123177771Y-104066019D01*
X123199664Y-104184033D01*
X123200429Y-104188178D01*
X123222359Y-104303831D01*
X123242877Y-104406014D01*
X123260659Y-104488598D01*
X123274381Y-104545456D01*
X123282718Y-104570458D01*
X123283116Y-104570901D01*
X123307677Y-104583110D01*
X123358315Y-104603456D01*
X123424095Y-104627545D01*
X123424461Y-104627674D01*
X123507317Y-104658818D01*
X123605000Y-104698491D01*
X123697077Y-104738381D01*
X123701434Y-104740353D01*
X123851407Y-104808420D01*
X124183498Y-104581639D01*
X124285374Y-104512504D01*
X124377657Y-104450697D01*
X124455003Y-104399733D01*
X124512064Y-104363127D01*
X124543495Y-104344394D01*
X124546479Y-104343004D01*
X124569321Y-104349190D01*
X124611982Y-104379035D01*
X124676128Y-104433947D01*
X124763421Y-104515334D01*
X124852535Y-104601922D01*
X124938441Y-104687247D01*
X125015327Y-104765108D01*
X125078564Y-104830697D01*
X125123523Y-104879205D01*
X125145576Y-104905825D01*
X125146396Y-104907195D01*
X125148834Y-104925463D01*
X125139650Y-104955295D01*
X125116574Y-105000721D01*
X125077337Y-105065770D01*
X125019670Y-105154470D01*
X124942795Y-105268657D01*
X124874570Y-105369162D01*
X124813582Y-105459303D01*
X124763356Y-105533849D01*
X124727416Y-105587565D01*
X124709287Y-105615218D01*
X124708146Y-105617095D01*
X124710359Y-105643590D01*
X124727138Y-105695086D01*
X124755142Y-105761851D01*
X124765122Y-105783172D01*
X124808672Y-105878159D01*
X124855134Y-105985937D01*
X124892877Y-106079192D01*
X124920073Y-106148406D01*
X124941675Y-106201006D01*
X124954158Y-106228497D01*
X124955709Y-106230616D01*
X124978668Y-106234124D01*
X125032786Y-106243738D01*
X125110868Y-106258089D01*
X125205719Y-106275807D01*
X125310143Y-106295525D01*
X125416944Y-106315874D01*
X125518926Y-106335486D01*
X125608894Y-106352991D01*
X125679653Y-106367022D01*
X125724006Y-106376209D01*
X125734885Y-106378807D01*
X125746122Y-106385218D01*
X125754605Y-106399697D01*
X125760714Y-106427133D01*
X125764832Y-106472411D01*
X125767341Y-106540420D01*
X125768621Y-106636047D01*
X125769054Y-106764180D01*
X125769077Y-106816701D01*
X125769077Y-107243845D01*
X125666500Y-107264091D01*
X125609431Y-107275070D01*
X125524269Y-107291095D01*
X125421372Y-107310233D01*
X125311096Y-107330551D01*
X125280615Y-107336132D01*
X125178855Y-107355917D01*
X125090205Y-107375373D01*
X125022108Y-107392697D01*
X124982004Y-107406088D01*
X124975323Y-107410079D01*
X124958919Y-107438342D01*
X124935399Y-107493109D01*
X124909316Y-107563588D01*
X124904142Y-107578769D01*
X124869956Y-107672896D01*
X124827523Y-107779101D01*
X124785997Y-107874473D01*
X124785792Y-107874916D01*
X124716640Y-108024525D01*
X125171512Y-108693617D01*
X124879500Y-108986116D01*
X124791180Y-109073170D01*
X124710625Y-109149909D01*
X124642360Y-109212237D01*
X124590908Y-109256056D01*
X124560794Y-109277270D01*
X124556474Y-109278616D01*
X124531111Y-109268016D01*
X124479358Y-109238547D01*
X124406868Y-109193705D01*
X124319294Y-109136984D01*
X124224612Y-109073462D01*
X124128516Y-109008668D01*
X124042837Y-108952287D01*
X123973016Y-108907788D01*
X123924494Y-108878639D01*
X123902782Y-108868308D01*
X123876293Y-108877050D01*
X123826062Y-108900087D01*
X123762451Y-108932631D01*
X123755708Y-108936249D01*
X123670046Y-108979210D01*
X123611306Y-109000279D01*
X123574772Y-109000503D01*
X123555731Y-108980928D01*
X123555620Y-108980654D01*
X123546102Y-108957472D01*
X123523403Y-108902441D01*
X123489282Y-108819822D01*
X123445500Y-108713872D01*
X123393816Y-108588852D01*
X123335992Y-108449020D01*
X123279991Y-108313637D01*
X123218447Y-108164234D01*
X123161939Y-108025832D01*
X123112161Y-107902673D01*
X123070806Y-107799002D01*
X123039568Y-107719059D01*
X123020141Y-107667088D01*
X123014154Y-107647692D01*
X123029168Y-107625443D01*
X123068439Y-107589982D01*
X123120807Y-107550887D01*
X123269941Y-107427245D01*
X123386511Y-107285522D01*
X123469118Y-107128704D01*
X123516366Y-106959775D01*
X123526857Y-106781722D01*
X123519231Y-106699539D01*
X123477682Y-106529031D01*
X123406123Y-106378459D01*
X123308995Y-106249309D01*
X123190734Y-106143064D01*
X123055780Y-106061210D01*
X122908571Y-106005232D01*
X122753544Y-105976615D01*
X122595139Y-105976844D01*
X122437794Y-106007405D01*
X122285946Y-106069782D01*
X122144035Y-106165460D01*
X122084803Y-106219572D01*
X121971203Y-106358520D01*
X121892106Y-106510361D01*
X121846986Y-106670667D01*
X121835316Y-106835012D01*
X121856569Y-106998971D01*
X121910220Y-107158118D01*
X121995740Y-107308025D01*
X122112605Y-107444267D01*
X122243193Y-107550887D01*
X122297588Y-107591642D01*
X122336014Y-107626718D01*
X122349846Y-107647726D01*
X122342603Y-107670635D01*
X122322005Y-107725365D01*
X122289746Y-107807672D01*
X122247521Y-107913315D01*
X122197023Y-108038050D01*
X122139948Y-108177636D01*
X122083854Y-108313670D01*
X122021967Y-108463201D01*
X121964644Y-108601767D01*
X121913644Y-108725107D01*
X121870727Y-108828964D01*
X121837653Y-108909080D01*
X121816181Y-108961195D01*
X121808225Y-108980654D01*
X121789429Y-109000423D01*
X121753074Y-109000365D01*
X121694479Y-108979441D01*
X121608968Y-108936613D01*
X121608292Y-108936249D01*
X121543907Y-108903012D01*
X121491861Y-108878802D01*
X121462512Y-108868404D01*
X121461217Y-108868308D01*
X121439124Y-108878855D01*
X121390348Y-108908184D01*
X121320331Y-108952827D01*
X121234514Y-109009314D01*
X121139388Y-109073462D01*
X121042540Y-109138411D01*
X120955253Y-109194896D01*
X120883181Y-109239421D01*
X120831977Y-109268490D01*
X120807526Y-109278616D01*
X120785010Y-109265307D01*
X120739742Y-109228112D01*
X120676244Y-109171128D01*
X120599039Y-109098449D01*
X120512651Y-109014171D01*
X120484399Y-108986016D01*
X120192287Y-108693416D01*
X120414631Y-108367104D01*
X120482202Y-108266897D01*
X120541507Y-108176963D01*
X120589217Y-108102510D01*
X120622007Y-108048751D01*
X120636548Y-108020894D01*
X120636974Y-108018912D01*
X120629308Y-107992655D01*
X120608689Y-107939837D01*
X120578685Y-107869310D01*
X120557625Y-107822093D01*
X120518248Y-107731694D01*
X120481165Y-107640366D01*
X120452415Y-107563200D01*
X120444605Y-107539692D01*
X120422417Y-107476916D01*
X120400727Y-107428411D01*
X120388813Y-107410079D01*
X120362523Y-107398859D01*
X120305142Y-107382954D01*
X120224118Y-107364167D01*
X120126895Y-107344299D01*
X120083385Y-107336132D01*
X119972896Y-107315829D01*
X119866916Y-107296170D01*
X119775801Y-107279088D01*
X119709908Y-107266518D01*
X119697500Y-107264091D01*
X119594923Y-107243845D01*
X119594923Y-106816701D01*
X119595153Y-106676246D01*
X119596099Y-106569979D01*
X119598141Y-106493013D01*
X119601662Y-106440460D01*
X119607043Y-106407433D01*
X119614666Y-106389045D01*
X119624912Y-106380408D01*
X119629115Y-106378807D01*
X119654470Y-106373127D01*
X119710484Y-106361795D01*
X119789964Y-106346179D01*
X119885712Y-106327647D01*
X119990533Y-106307569D01*
X120097232Y-106287312D01*
X120198613Y-106268246D01*
X120287479Y-106251739D01*
X120356637Y-106239159D01*
X120398889Y-106231875D01*
X120408290Y-106230616D01*
X120416807Y-106213763D01*
X120435660Y-106168870D01*
X120461324Y-106104430D01*
X120471123Y-106079192D01*
X120510648Y-105981686D01*
X120557192Y-105873959D01*
X120598877Y-105783172D01*
X120629550Y-105713753D01*
X120649956Y-105656710D01*
X120656768Y-105621777D01*
X120655682Y-105617095D01*
X120641285Y-105594991D01*
X120608412Y-105545831D01*
X120560590Y-105474848D01*
X120501348Y-105387278D01*
X120434215Y-105288357D01*
X120420941Y-105268830D01*
X120343046Y-105153140D01*
X120285787Y-105065044D01*
X120246881Y-105000486D01*
X120224044Y-104955411D01*
X120214994Y-104925763D01*
X120217448Y-104907485D01*
X120217511Y-104907369D01*
X120236827Y-104883361D01*
X120279551Y-104836947D01*
X120341051Y-104772937D01*
X120416698Y-104696145D01*
X120501861Y-104611382D01*
X120511465Y-104601922D01*
X120618790Y-104497989D01*
X120701615Y-104421675D01*
X120761605Y-104371571D01*
X120800423Y-104346270D01*
X120817520Y-104343004D01*
X120842473Y-104357250D01*
X120894255Y-104390156D01*
X120967520Y-104438208D01*
X121056920Y-104497890D01*
X121157111Y-104565688D01*
X121180501Y-104581639D01*
X121512593Y-104808420D01*
X121662565Y-104740353D01*
X121753770Y-104700685D01*
X121851669Y-104660791D01*
X121935831Y-104628983D01*
X121939538Y-104627674D01*
X122005369Y-104603576D01*
X122056116Y-104583200D01*
X122080842Y-104570936D01*
X122080884Y-104570901D01*
X122088729Y-104548734D01*
X122102066Y-104494217D01*
X122119570Y-104413480D01*
X122139917Y-104312650D01*
X122161782Y-104197856D01*
X122163571Y-104188178D01*
X122185504Y-104069904D01*
X122205640Y-103962542D01*
X122222680Y-103872917D01*
X122235328Y-103807851D01*
X122242284Y-103774168D01*
X122242406Y-103773654D01*
X122246639Y-103759325D01*
X122254871Y-103748507D01*
X122272033Y-103740706D01*
X122303058Y-103735429D01*
X122352878Y-103732182D01*
X122426424Y-103730472D01*
X122528629Y-103729807D01*
X122664425Y-103729693D01*
X122682000Y-103729692D01*
X122821878Y-103729776D01*
X122821878Y-103729776D01*
G37*
X122821878Y-103729776D02*
X122927612Y-103730355D01*
X123004132Y-103731922D01*
X123056372Y-103734972D01*
X123089263Y-103739996D01*
X123107737Y-103747489D01*
X123116727Y-103757944D01*
X123121163Y-103771853D01*
X123121594Y-103773654D01*
X123128333Y-103806145D01*
X123140808Y-103870252D01*
X123157719Y-103959151D01*
X123177771Y-104066019D01*
X123199664Y-104184033D01*
X123200429Y-104188178D01*
X123222359Y-104303831D01*
X123242877Y-104406014D01*
X123260659Y-104488598D01*
X123274381Y-104545456D01*
X123282718Y-104570458D01*
X123283116Y-104570901D01*
X123307677Y-104583110D01*
X123358315Y-104603456D01*
X123424095Y-104627545D01*
X123424461Y-104627674D01*
X123507317Y-104658818D01*
X123605000Y-104698491D01*
X123697077Y-104738381D01*
X123701434Y-104740353D01*
X123851407Y-104808420D01*
X124183498Y-104581639D01*
X124285374Y-104512504D01*
X124377657Y-104450697D01*
X124455003Y-104399733D01*
X124512064Y-104363127D01*
X124543495Y-104344394D01*
X124546479Y-104343004D01*
X124569321Y-104349190D01*
X124611982Y-104379035D01*
X124676128Y-104433947D01*
X124763421Y-104515334D01*
X124852535Y-104601922D01*
X124938441Y-104687247D01*
X125015327Y-104765108D01*
X125078564Y-104830697D01*
X125123523Y-104879205D01*
X125145576Y-104905825D01*
X125146396Y-104907195D01*
X125148834Y-104925463D01*
X125139650Y-104955295D01*
X125116574Y-105000721D01*
X125077337Y-105065770D01*
X125019670Y-105154470D01*
X124942795Y-105268657D01*
X124874570Y-105369162D01*
X124813582Y-105459303D01*
X124763356Y-105533849D01*
X124727416Y-105587565D01*
X124709287Y-105615218D01*
X124708146Y-105617095D01*
X124710359Y-105643590D01*
X124727138Y-105695086D01*
X124755142Y-105761851D01*
X124765122Y-105783172D01*
X124808672Y-105878159D01*
X124855134Y-105985937D01*
X124892877Y-106079192D01*
X124920073Y-106148406D01*
X124941675Y-106201006D01*
X124954158Y-106228497D01*
X124955709Y-106230616D01*
X124978668Y-106234124D01*
X125032786Y-106243738D01*
X125110868Y-106258089D01*
X125205719Y-106275807D01*
X125310143Y-106295525D01*
X125416944Y-106315874D01*
X125518926Y-106335486D01*
X125608894Y-106352991D01*
X125679653Y-106367022D01*
X125724006Y-106376209D01*
X125734885Y-106378807D01*
X125746122Y-106385218D01*
X125754605Y-106399697D01*
X125760714Y-106427133D01*
X125764832Y-106472411D01*
X125767341Y-106540420D01*
X125768621Y-106636047D01*
X125769054Y-106764180D01*
X125769077Y-106816701D01*
X125769077Y-107243845D01*
X125666500Y-107264091D01*
X125609431Y-107275070D01*
X125524269Y-107291095D01*
X125421372Y-107310233D01*
X125311096Y-107330551D01*
X125280615Y-107336132D01*
X125178855Y-107355917D01*
X125090205Y-107375373D01*
X125022108Y-107392697D01*
X124982004Y-107406088D01*
X124975323Y-107410079D01*
X124958919Y-107438342D01*
X124935399Y-107493109D01*
X124909316Y-107563588D01*
X124904142Y-107578769D01*
X124869956Y-107672896D01*
X124827523Y-107779101D01*
X124785997Y-107874473D01*
X124785792Y-107874916D01*
X124716640Y-108024525D01*
X125171512Y-108693617D01*
X124879500Y-108986116D01*
X124791180Y-109073170D01*
X124710625Y-109149909D01*
X124642360Y-109212237D01*
X124590908Y-109256056D01*
X124560794Y-109277270D01*
X124556474Y-109278616D01*
X124531111Y-109268016D01*
X124479358Y-109238547D01*
X124406868Y-109193705D01*
X124319294Y-109136984D01*
X124224612Y-109073462D01*
X124128516Y-109008668D01*
X124042837Y-108952287D01*
X123973016Y-108907788D01*
X123924494Y-108878639D01*
X123902782Y-108868308D01*
X123876293Y-108877050D01*
X123826062Y-108900087D01*
X123762451Y-108932631D01*
X123755708Y-108936249D01*
X123670046Y-108979210D01*
X123611306Y-109000279D01*
X123574772Y-109000503D01*
X123555731Y-108980928D01*
X123555620Y-108980654D01*
X123546102Y-108957472D01*
X123523403Y-108902441D01*
X123489282Y-108819822D01*
X123445500Y-108713872D01*
X123393816Y-108588852D01*
X123335992Y-108449020D01*
X123279991Y-108313637D01*
X123218447Y-108164234D01*
X123161939Y-108025832D01*
X123112161Y-107902673D01*
X123070806Y-107799002D01*
X123039568Y-107719059D01*
X123020141Y-107667088D01*
X123014154Y-107647692D01*
X123029168Y-107625443D01*
X123068439Y-107589982D01*
X123120807Y-107550887D01*
X123269941Y-107427245D01*
X123386511Y-107285522D01*
X123469118Y-107128704D01*
X123516366Y-106959775D01*
X123526857Y-106781722D01*
X123519231Y-106699539D01*
X123477682Y-106529031D01*
X123406123Y-106378459D01*
X123308995Y-106249309D01*
X123190734Y-106143064D01*
X123055780Y-106061210D01*
X122908571Y-106005232D01*
X122753544Y-105976615D01*
X122595139Y-105976844D01*
X122437794Y-106007405D01*
X122285946Y-106069782D01*
X122144035Y-106165460D01*
X122084803Y-106219572D01*
X121971203Y-106358520D01*
X121892106Y-106510361D01*
X121846986Y-106670667D01*
X121835316Y-106835012D01*
X121856569Y-106998971D01*
X121910220Y-107158118D01*
X121995740Y-107308025D01*
X122112605Y-107444267D01*
X122243193Y-107550887D01*
X122297588Y-107591642D01*
X122336014Y-107626718D01*
X122349846Y-107647726D01*
X122342603Y-107670635D01*
X122322005Y-107725365D01*
X122289746Y-107807672D01*
X122247521Y-107913315D01*
X122197023Y-108038050D01*
X122139948Y-108177636D01*
X122083854Y-108313670D01*
X122021967Y-108463201D01*
X121964644Y-108601767D01*
X121913644Y-108725107D01*
X121870727Y-108828964D01*
X121837653Y-108909080D01*
X121816181Y-108961195D01*
X121808225Y-108980654D01*
X121789429Y-109000423D01*
X121753074Y-109000365D01*
X121694479Y-108979441D01*
X121608968Y-108936613D01*
X121608292Y-108936249D01*
X121543907Y-108903012D01*
X121491861Y-108878802D01*
X121462512Y-108868404D01*
X121461217Y-108868308D01*
X121439124Y-108878855D01*
X121390348Y-108908184D01*
X121320331Y-108952827D01*
X121234514Y-109009314D01*
X121139388Y-109073462D01*
X121042540Y-109138411D01*
X120955253Y-109194896D01*
X120883181Y-109239421D01*
X120831977Y-109268490D01*
X120807526Y-109278616D01*
X120785010Y-109265307D01*
X120739742Y-109228112D01*
X120676244Y-109171128D01*
X120599039Y-109098449D01*
X120512651Y-109014171D01*
X120484399Y-108986016D01*
X120192287Y-108693416D01*
X120414631Y-108367104D01*
X120482202Y-108266897D01*
X120541507Y-108176963D01*
X120589217Y-108102510D01*
X120622007Y-108048751D01*
X120636548Y-108020894D01*
X120636974Y-108018912D01*
X120629308Y-107992655D01*
X120608689Y-107939837D01*
X120578685Y-107869310D01*
X120557625Y-107822093D01*
X120518248Y-107731694D01*
X120481165Y-107640366D01*
X120452415Y-107563200D01*
X120444605Y-107539692D01*
X120422417Y-107476916D01*
X120400727Y-107428411D01*
X120388813Y-107410079D01*
X120362523Y-107398859D01*
X120305142Y-107382954D01*
X120224118Y-107364167D01*
X120126895Y-107344299D01*
X120083385Y-107336132D01*
X119972896Y-107315829D01*
X119866916Y-107296170D01*
X119775801Y-107279088D01*
X119709908Y-107266518D01*
X119697500Y-107264091D01*
X119594923Y-107243845D01*
X119594923Y-106816701D01*
X119595153Y-106676246D01*
X119596099Y-106569979D01*
X119598141Y-106493013D01*
X119601662Y-106440460D01*
X119607043Y-106407433D01*
X119614666Y-106389045D01*
X119624912Y-106380408D01*
X119629115Y-106378807D01*
X119654470Y-106373127D01*
X119710484Y-106361795D01*
X119789964Y-106346179D01*
X119885712Y-106327647D01*
X119990533Y-106307569D01*
X120097232Y-106287312D01*
X120198613Y-106268246D01*
X120287479Y-106251739D01*
X120356637Y-106239159D01*
X120398889Y-106231875D01*
X120408290Y-106230616D01*
X120416807Y-106213763D01*
X120435660Y-106168870D01*
X120461324Y-106104430D01*
X120471123Y-106079192D01*
X120510648Y-105981686D01*
X120557192Y-105873959D01*
X120598877Y-105783172D01*
X120629550Y-105713753D01*
X120649956Y-105656710D01*
X120656768Y-105621777D01*
X120655682Y-105617095D01*
X120641285Y-105594991D01*
X120608412Y-105545831D01*
X120560590Y-105474848D01*
X120501348Y-105387278D01*
X120434215Y-105288357D01*
X120420941Y-105268830D01*
X120343046Y-105153140D01*
X120285787Y-105065044D01*
X120246881Y-105000486D01*
X120224044Y-104955411D01*
X120214994Y-104925763D01*
X120217448Y-104907485D01*
X120217511Y-104907369D01*
X120236827Y-104883361D01*
X120279551Y-104836947D01*
X120341051Y-104772937D01*
X120416698Y-104696145D01*
X120501861Y-104611382D01*
X120511465Y-104601922D01*
X120618790Y-104497989D01*
X120701615Y-104421675D01*
X120761605Y-104371571D01*
X120800423Y-104346270D01*
X120817520Y-104343004D01*
X120842473Y-104357250D01*
X120894255Y-104390156D01*
X120967520Y-104438208D01*
X121056920Y-104497890D01*
X121157111Y-104565688D01*
X121180501Y-104581639D01*
X121512593Y-104808420D01*
X121662565Y-104740353D01*
X121753770Y-104700685D01*
X121851669Y-104660791D01*
X121935831Y-104628983D01*
X121939538Y-104627674D01*
X122005369Y-104603576D01*
X122056116Y-104583200D01*
X122080842Y-104570936D01*
X122080884Y-104570901D01*
X122088729Y-104548734D01*
X122102066Y-104494217D01*
X122119570Y-104413480D01*
X122139917Y-104312650D01*
X122161782Y-104197856D01*
X122163571Y-104188178D01*
X122185504Y-104069904D01*
X122205640Y-103962542D01*
X122222680Y-103872917D01*
X122235328Y-103807851D01*
X122242284Y-103774168D01*
X122242406Y-103773654D01*
X122246639Y-103759325D01*
X122254871Y-103748507D01*
X122272033Y-103740706D01*
X122303058Y-103735429D01*
X122352878Y-103732182D01*
X122426424Y-103730472D01*
X122528629Y-103729807D01*
X122664425Y-103729693D01*
X122682000Y-103729692D01*
X122821878Y-103729776D01*
G36*
X126927224Y-110089838D02*
G01*
X127004528Y-110140361D01*
X127041814Y-110185590D01*
X127071353Y-110267663D01*
X127073699Y-110332607D01*
X127068385Y-110419445D01*
X126868115Y-110507103D01*
X126770739Y-110551887D01*
X126707113Y-110587913D01*
X126674029Y-110619117D01*
X126668280Y-110649436D01*
X126686658Y-110682805D01*
X126706923Y-110704923D01*
X126765889Y-110740393D01*
X126830024Y-110742879D01*
X126888926Y-110715235D01*
X126932197Y-110660320D01*
X126939936Y-110640928D01*
X126977006Y-110580364D01*
X127019654Y-110554552D01*
X127078154Y-110532471D01*
X127078154Y-110616184D01*
X127072982Y-110673150D01*
X127052723Y-110721189D01*
X127010262Y-110776346D01*
X127003951Y-110783514D01*
X126956720Y-110832585D01*
X126916121Y-110858920D01*
X126865328Y-110871035D01*
X126823220Y-110875003D01*
X126747902Y-110875991D01*
X126694286Y-110863466D01*
X126660838Y-110844869D01*
X126608268Y-110803975D01*
X126571879Y-110759748D01*
X126548850Y-110704126D01*
X126536359Y-110629047D01*
X126531587Y-110526449D01*
X126531206Y-110474376D01*
X126532501Y-110411948D01*
X126650471Y-110411948D01*
X126651839Y-110445438D01*
X126655249Y-110450923D01*
X126677753Y-110443472D01*
X126726182Y-110423753D01*
X126790908Y-110395718D01*
X126804443Y-110389692D01*
X126886244Y-110348096D01*
X126931312Y-110311538D01*
X126941217Y-110277296D01*
X126917526Y-110242648D01*
X126897960Y-110227339D01*
X126827360Y-110196721D01*
X126761280Y-110201780D01*
X126705959Y-110239151D01*
X126667636Y-110305473D01*
X126655349Y-110358116D01*
X126650471Y-110411948D01*
X126532501Y-110411948D01*
X126533730Y-110352720D01*
X126543032Y-110262710D01*
X126561460Y-110197167D01*
X126591360Y-110148912D01*
X126635080Y-110110767D01*
X126654141Y-110098440D01*
X126740726Y-110066336D01*
X126835522Y-110064316D01*
X126927224Y-110089838D01*
X126927224Y-110089838D01*
G37*
X126927224Y-110089838D02*
X127004528Y-110140361D01*
X127041814Y-110185590D01*
X127071353Y-110267663D01*
X127073699Y-110332607D01*
X127068385Y-110419445D01*
X126868115Y-110507103D01*
X126770739Y-110551887D01*
X126707113Y-110587913D01*
X126674029Y-110619117D01*
X126668280Y-110649436D01*
X126686658Y-110682805D01*
X126706923Y-110704923D01*
X126765889Y-110740393D01*
X126830024Y-110742879D01*
X126888926Y-110715235D01*
X126932197Y-110660320D01*
X126939936Y-110640928D01*
X126977006Y-110580364D01*
X127019654Y-110554552D01*
X127078154Y-110532471D01*
X127078154Y-110616184D01*
X127072982Y-110673150D01*
X127052723Y-110721189D01*
X127010262Y-110776346D01*
X127003951Y-110783514D01*
X126956720Y-110832585D01*
X126916121Y-110858920D01*
X126865328Y-110871035D01*
X126823220Y-110875003D01*
X126747902Y-110875991D01*
X126694286Y-110863466D01*
X126660838Y-110844869D01*
X126608268Y-110803975D01*
X126571879Y-110759748D01*
X126548850Y-110704126D01*
X126536359Y-110629047D01*
X126531587Y-110526449D01*
X126531206Y-110474376D01*
X126532501Y-110411948D01*
X126650471Y-110411948D01*
X126651839Y-110445438D01*
X126655249Y-110450923D01*
X126677753Y-110443472D01*
X126726182Y-110423753D01*
X126790908Y-110395718D01*
X126804443Y-110389692D01*
X126886244Y-110348096D01*
X126931312Y-110311538D01*
X126941217Y-110277296D01*
X126917526Y-110242648D01*
X126897960Y-110227339D01*
X126827360Y-110196721D01*
X126761280Y-110201780D01*
X126705959Y-110239151D01*
X126667636Y-110305473D01*
X126655349Y-110358116D01*
X126650471Y-110411948D01*
X126532501Y-110411948D01*
X126533730Y-110352720D01*
X126543032Y-110262710D01*
X126561460Y-110197167D01*
X126591360Y-110148912D01*
X126635080Y-110110767D01*
X126654141Y-110098440D01*
X126740726Y-110066336D01*
X126835522Y-110064316D01*
X126927224Y-110089838D01*
G36*
X126252807Y-110078782D02*
G01*
X126276161Y-110088988D01*
X126331902Y-110133134D01*
X126379569Y-110196967D01*
X126409048Y-110265087D01*
X126413846Y-110298670D01*
X126397760Y-110345556D01*
X126362475Y-110370365D01*
X126324644Y-110385387D01*
X126307321Y-110388155D01*
X126298886Y-110368066D01*
X126282230Y-110324351D01*
X126274923Y-110304598D01*
X126233948Y-110236271D01*
X126174622Y-110202191D01*
X126098552Y-110203239D01*
X126092918Y-110204581D01*
X126052305Y-110223836D01*
X126022448Y-110261375D01*
X126002055Y-110321809D01*
X125989836Y-110409751D01*
X125984500Y-110529813D01*
X125984000Y-110593698D01*
X125983752Y-110694403D01*
X125982126Y-110763054D01*
X125977801Y-110806673D01*
X125969454Y-110832282D01*
X125955765Y-110846903D01*
X125935411Y-110857558D01*
X125934234Y-110858095D01*
X125895038Y-110874667D01*
X125875619Y-110880769D01*
X125872635Y-110862319D01*
X125870081Y-110811323D01*
X125868140Y-110734308D01*
X125866997Y-110637805D01*
X125866769Y-110567184D01*
X125867932Y-110430525D01*
X125872479Y-110326851D01*
X125881999Y-110250108D01*
X125898081Y-110194246D01*
X125922313Y-110153212D01*
X125956286Y-110120954D01*
X125989833Y-110098440D01*
X126070499Y-110068476D01*
X126164381Y-110061718D01*
X126252807Y-110078782D01*
X126252807Y-110078782D01*
G37*
X126252807Y-110078782D02*
X126276161Y-110088988D01*
X126331902Y-110133134D01*
X126379569Y-110196967D01*
X126409048Y-110265087D01*
X126413846Y-110298670D01*
X126397760Y-110345556D01*
X126362475Y-110370365D01*
X126324644Y-110385387D01*
X126307321Y-110388155D01*
X126298886Y-110368066D01*
X126282230Y-110324351D01*
X126274923Y-110304598D01*
X126233948Y-110236271D01*
X126174622Y-110202191D01*
X126098552Y-110203239D01*
X126092918Y-110204581D01*
X126052305Y-110223836D01*
X126022448Y-110261375D01*
X126002055Y-110321809D01*
X125989836Y-110409751D01*
X125984500Y-110529813D01*
X125984000Y-110593698D01*
X125983752Y-110694403D01*
X125982126Y-110763054D01*
X125977801Y-110806673D01*
X125969454Y-110832282D01*
X125955765Y-110846903D01*
X125935411Y-110857558D01*
X125934234Y-110858095D01*
X125895038Y-110874667D01*
X125875619Y-110880769D01*
X125872635Y-110862319D01*
X125870081Y-110811323D01*
X125868140Y-110734308D01*
X125866997Y-110637805D01*
X125866769Y-110567184D01*
X125867932Y-110430525D01*
X125872479Y-110326851D01*
X125881999Y-110250108D01*
X125898081Y-110194246D01*
X125922313Y-110153212D01*
X125956286Y-110120954D01*
X125989833Y-110098440D01*
X126070499Y-110068476D01*
X126164381Y-110061718D01*
X126252807Y-110078782D01*
G36*
X125569333Y-110075528D02*
G01*
X125625590Y-110101117D01*
X125669747Y-110132124D01*
X125702101Y-110166795D01*
X125724438Y-110211520D01*
X125738546Y-110272692D01*
X125746211Y-110356701D01*
X125749220Y-110469940D01*
X125749538Y-110544509D01*
X125749538Y-110835420D01*
X125699773Y-110858095D01*
X125660576Y-110874667D01*
X125641157Y-110880769D01*
X125637442Y-110862610D01*
X125634495Y-110813648D01*
X125632691Y-110742153D01*
X125632308Y-110685385D01*
X125630661Y-110603371D01*
X125626222Y-110538309D01*
X125619740Y-110498467D01*
X125614590Y-110490000D01*
X125579977Y-110498646D01*
X125525640Y-110520823D01*
X125462722Y-110550886D01*
X125402368Y-110583192D01*
X125355721Y-110612098D01*
X125333926Y-110631961D01*
X125333839Y-110632175D01*
X125335714Y-110668935D01*
X125352525Y-110704026D01*
X125382039Y-110732528D01*
X125425116Y-110742061D01*
X125461932Y-110740950D01*
X125514074Y-110740133D01*
X125541444Y-110752349D01*
X125557882Y-110784624D01*
X125559955Y-110790710D01*
X125567081Y-110836739D01*
X125548024Y-110864687D01*
X125498353Y-110878007D01*
X125444697Y-110880470D01*
X125348142Y-110862210D01*
X125298159Y-110836131D01*
X125236429Y-110774868D01*
X125203690Y-110699670D01*
X125200753Y-110620211D01*
X125228424Y-110546167D01*
X125270047Y-110499769D01*
X125311604Y-110473793D01*
X125376922Y-110440907D01*
X125453038Y-110407557D01*
X125465726Y-110402461D01*
X125549333Y-110365565D01*
X125597530Y-110333046D01*
X125613030Y-110300718D01*
X125598550Y-110264394D01*
X125573692Y-110236000D01*
X125514939Y-110201039D01*
X125450293Y-110198417D01*
X125391008Y-110225358D01*
X125348339Y-110279088D01*
X125342739Y-110292950D01*
X125310133Y-110343936D01*
X125262530Y-110381787D01*
X125202461Y-110412850D01*
X125202461Y-110324768D01*
X125205997Y-110270951D01*
X125221156Y-110228534D01*
X125254768Y-110183279D01*
X125287035Y-110148420D01*
X125337209Y-110099062D01*
X125376193Y-110072547D01*
X125418064Y-110061911D01*
X125465460Y-110060154D01*
X125569333Y-110075528D01*
X125569333Y-110075528D01*
G37*
X125569333Y-110075528D02*
X125625590Y-110101117D01*
X125669747Y-110132124D01*
X125702101Y-110166795D01*
X125724438Y-110211520D01*
X125738546Y-110272692D01*
X125746211Y-110356701D01*
X125749220Y-110469940D01*
X125749538Y-110544509D01*
X125749538Y-110835420D01*
X125699773Y-110858095D01*
X125660576Y-110874667D01*
X125641157Y-110880769D01*
X125637442Y-110862610D01*
X125634495Y-110813648D01*
X125632691Y-110742153D01*
X125632308Y-110685385D01*
X125630661Y-110603371D01*
X125626222Y-110538309D01*
X125619740Y-110498467D01*
X125614590Y-110490000D01*
X125579977Y-110498646D01*
X125525640Y-110520823D01*
X125462722Y-110550886D01*
X125402368Y-110583192D01*
X125355721Y-110612098D01*
X125333926Y-110631961D01*
X125333839Y-110632175D01*
X125335714Y-110668935D01*
X125352525Y-110704026D01*
X125382039Y-110732528D01*
X125425116Y-110742061D01*
X125461932Y-110740950D01*
X125514074Y-110740133D01*
X125541444Y-110752349D01*
X125557882Y-110784624D01*
X125559955Y-110790710D01*
X125567081Y-110836739D01*
X125548024Y-110864687D01*
X125498353Y-110878007D01*
X125444697Y-110880470D01*
X125348142Y-110862210D01*
X125298159Y-110836131D01*
X125236429Y-110774868D01*
X125203690Y-110699670D01*
X125200753Y-110620211D01*
X125228424Y-110546167D01*
X125270047Y-110499769D01*
X125311604Y-110473793D01*
X125376922Y-110440907D01*
X125453038Y-110407557D01*
X125465726Y-110402461D01*
X125549333Y-110365565D01*
X125597530Y-110333046D01*
X125613030Y-110300718D01*
X125598550Y-110264394D01*
X125573692Y-110236000D01*
X125514939Y-110201039D01*
X125450293Y-110198417D01*
X125391008Y-110225358D01*
X125348339Y-110279088D01*
X125342739Y-110292950D01*
X125310133Y-110343936D01*
X125262530Y-110381787D01*
X125202461Y-110412850D01*
X125202461Y-110324768D01*
X125205997Y-110270951D01*
X125221156Y-110228534D01*
X125254768Y-110183279D01*
X125287035Y-110148420D01*
X125337209Y-110099062D01*
X125376193Y-110072547D01*
X125418064Y-110061911D01*
X125465460Y-110060154D01*
X125569333Y-110075528D01*
G36*
X125077929Y-110078662D02*
G01*
X125080911Y-110130068D01*
X125083247Y-110208192D01*
X125084749Y-110306857D01*
X125085231Y-110410343D01*
X125085231Y-110760533D01*
X125023401Y-110822363D01*
X124980793Y-110860462D01*
X124943390Y-110875895D01*
X124892270Y-110874918D01*
X124871978Y-110872433D01*
X124808554Y-110865200D01*
X124756095Y-110861055D01*
X124743308Y-110860672D01*
X124700199Y-110863176D01*
X124638544Y-110869462D01*
X124614638Y-110872433D01*
X124555922Y-110877028D01*
X124516464Y-110867046D01*
X124477338Y-110836228D01*
X124463215Y-110822363D01*
X124401385Y-110760533D01*
X124401385Y-110105503D01*
X124451150Y-110082829D01*
X124494002Y-110066034D01*
X124519073Y-110060154D01*
X124525501Y-110078736D01*
X124531509Y-110130655D01*
X124536697Y-110210172D01*
X124540664Y-110311546D01*
X124542577Y-110397192D01*
X124547923Y-110734231D01*
X124594560Y-110740825D01*
X124636976Y-110736214D01*
X124657760Y-110721287D01*
X124663570Y-110693377D01*
X124668530Y-110633925D01*
X124672246Y-110550466D01*
X124674324Y-110450532D01*
X124674624Y-110399104D01*
X124674923Y-110103054D01*
X124736454Y-110081604D01*
X124780004Y-110067020D01*
X124803694Y-110060219D01*
X124804377Y-110060154D01*
X124806754Y-110078642D01*
X124809366Y-110129906D01*
X124811995Y-110207649D01*
X124814421Y-110305574D01*
X124816115Y-110397192D01*
X124821461Y-110734231D01*
X124938692Y-110734231D01*
X124944072Y-110426746D01*
X124949451Y-110119261D01*
X125006601Y-110089707D01*
X125048797Y-110069413D01*
X125073770Y-110060204D01*
X125074491Y-110060154D01*
X125077929Y-110078662D01*
X125077929Y-110078662D01*
G37*
X125077929Y-110078662D02*
X125080911Y-110130068D01*
X125083247Y-110208192D01*
X125084749Y-110306857D01*
X125085231Y-110410343D01*
X125085231Y-110760533D01*
X125023401Y-110822363D01*
X124980793Y-110860462D01*
X124943390Y-110875895D01*
X124892270Y-110874918D01*
X124871978Y-110872433D01*
X124808554Y-110865200D01*
X124756095Y-110861055D01*
X124743308Y-110860672D01*
X124700199Y-110863176D01*
X124638544Y-110869462D01*
X124614638Y-110872433D01*
X124555922Y-110877028D01*
X124516464Y-110867046D01*
X124477338Y-110836228D01*
X124463215Y-110822363D01*
X124401385Y-110760533D01*
X124401385Y-110105503D01*
X124451150Y-110082829D01*
X124494002Y-110066034D01*
X124519073Y-110060154D01*
X124525501Y-110078736D01*
X124531509Y-110130655D01*
X124536697Y-110210172D01*
X124540664Y-110311546D01*
X124542577Y-110397192D01*
X124547923Y-110734231D01*
X124594560Y-110740825D01*
X124636976Y-110736214D01*
X124657760Y-110721287D01*
X124663570Y-110693377D01*
X124668530Y-110633925D01*
X124672246Y-110550466D01*
X124674324Y-110450532D01*
X124674624Y-110399104D01*
X124674923Y-110103054D01*
X124736454Y-110081604D01*
X124780004Y-110067020D01*
X124803694Y-110060219D01*
X124804377Y-110060154D01*
X124806754Y-110078642D01*
X124809366Y-110129906D01*
X124811995Y-110207649D01*
X124814421Y-110305574D01*
X124816115Y-110397192D01*
X124821461Y-110734231D01*
X124938692Y-110734231D01*
X124944072Y-110426746D01*
X124949451Y-110119261D01*
X125006601Y-110089707D01*
X125048797Y-110069413D01*
X125073770Y-110060204D01*
X125074491Y-110060154D01*
X125077929Y-110078662D01*
G36*
X124284081Y-110222289D02*
G01*
X124283833Y-110368320D01*
X124282872Y-110480655D01*
X124280794Y-110564678D01*
X124277193Y-110625769D01*
X124271665Y-110669309D01*
X124263804Y-110700679D01*
X124253207Y-110725262D01*
X124245182Y-110739294D01*
X124178728Y-110815388D01*
X124094470Y-110863084D01*
X124001249Y-110880199D01*
X123907900Y-110864546D01*
X123852312Y-110836418D01*
X123793957Y-110787760D01*
X123754186Y-110728333D01*
X123730190Y-110650507D01*
X123719161Y-110546652D01*
X123717599Y-110470462D01*
X123717809Y-110464986D01*
X123854308Y-110464986D01*
X123855141Y-110552355D01*
X123858961Y-110610192D01*
X123867746Y-110648029D01*
X123883474Y-110675398D01*
X123902266Y-110696042D01*
X123965375Y-110735890D01*
X124033137Y-110739295D01*
X124097179Y-110706025D01*
X124102164Y-110701517D01*
X124123439Y-110678067D01*
X124136779Y-110650166D01*
X124144001Y-110608641D01*
X124146923Y-110544316D01*
X124147385Y-110473200D01*
X124146383Y-110383858D01*
X124142238Y-110324258D01*
X124133236Y-110285089D01*
X124117667Y-110257040D01*
X124104902Y-110242144D01*
X124045600Y-110204575D01*
X123977301Y-110200057D01*
X123912110Y-110228753D01*
X123899528Y-110239406D01*
X123878111Y-110263063D01*
X123864744Y-110291251D01*
X123857566Y-110333245D01*
X123854719Y-110398319D01*
X123854308Y-110464986D01*
X123717809Y-110464986D01*
X123722322Y-110347765D01*
X123738362Y-110255577D01*
X123768528Y-110186269D01*
X123815629Y-110132211D01*
X123852312Y-110104505D01*
X123918990Y-110074572D01*
X123996272Y-110060678D01*
X124068110Y-110064397D01*
X124108308Y-110079400D01*
X124124082Y-110083670D01*
X124134550Y-110067750D01*
X124141856Y-110025089D01*
X124147385Y-109960106D01*
X124153437Y-109887732D01*
X124161844Y-109844187D01*
X124177141Y-109819287D01*
X124203864Y-109802845D01*
X124220654Y-109795564D01*
X124284154Y-109768963D01*
X124284081Y-110222289D01*
X124284081Y-110222289D01*
G37*
X124284081Y-110222289D02*
X124283833Y-110368320D01*
X124282872Y-110480655D01*
X124280794Y-110564678D01*
X124277193Y-110625769D01*
X124271665Y-110669309D01*
X124263804Y-110700679D01*
X124253207Y-110725262D01*
X124245182Y-110739294D01*
X124178728Y-110815388D01*
X124094470Y-110863084D01*
X124001249Y-110880199D01*
X123907900Y-110864546D01*
X123852312Y-110836418D01*
X123793957Y-110787760D01*
X123754186Y-110728333D01*
X123730190Y-110650507D01*
X123719161Y-110546652D01*
X123717599Y-110470462D01*
X123717809Y-110464986D01*
X123854308Y-110464986D01*
X123855141Y-110552355D01*
X123858961Y-110610192D01*
X123867746Y-110648029D01*
X123883474Y-110675398D01*
X123902266Y-110696042D01*
X123965375Y-110735890D01*
X124033137Y-110739295D01*
X124097179Y-110706025D01*
X124102164Y-110701517D01*
X124123439Y-110678067D01*
X124136779Y-110650166D01*
X124144001Y-110608641D01*
X124146923Y-110544316D01*
X124147385Y-110473200D01*
X124146383Y-110383858D01*
X124142238Y-110324258D01*
X124133236Y-110285089D01*
X124117667Y-110257040D01*
X124104902Y-110242144D01*
X124045600Y-110204575D01*
X123977301Y-110200057D01*
X123912110Y-110228753D01*
X123899528Y-110239406D01*
X123878111Y-110263063D01*
X123864744Y-110291251D01*
X123857566Y-110333245D01*
X123854719Y-110398319D01*
X123854308Y-110464986D01*
X123717809Y-110464986D01*
X123722322Y-110347765D01*
X123738362Y-110255577D01*
X123768528Y-110186269D01*
X123815629Y-110132211D01*
X123852312Y-110104505D01*
X123918990Y-110074572D01*
X123996272Y-110060678D01*
X124068110Y-110064397D01*
X124108308Y-110079400D01*
X124124082Y-110083670D01*
X124134550Y-110067750D01*
X124141856Y-110025089D01*
X124147385Y-109960106D01*
X124153437Y-109887732D01*
X124161844Y-109844187D01*
X124177141Y-109819287D01*
X124203864Y-109802845D01*
X124220654Y-109795564D01*
X124284154Y-109768963D01*
X124284081Y-110222289D01*
G36*
X123395362Y-110066670D02*
G01*
X123484117Y-110099421D01*
X123556022Y-110157350D01*
X123584144Y-110198128D01*
X123614802Y-110272954D01*
X123614165Y-110327058D01*
X123581987Y-110363446D01*
X123570081Y-110369633D01*
X123518675Y-110388925D01*
X123492422Y-110383982D01*
X123483530Y-110351587D01*
X123483077Y-110333692D01*
X123466797Y-110267859D01*
X123424365Y-110221807D01*
X123365388Y-110199564D01*
X123299475Y-110205161D01*
X123245895Y-110234229D01*
X123227798Y-110250810D01*
X123214971Y-110270925D01*
X123206306Y-110301332D01*
X123200696Y-110348788D01*
X123197035Y-110420050D01*
X123194215Y-110521875D01*
X123193484Y-110554115D01*
X123190820Y-110664410D01*
X123187792Y-110742036D01*
X123183250Y-110793396D01*
X123176046Y-110824890D01*
X123165033Y-110842920D01*
X123149060Y-110853888D01*
X123138834Y-110858733D01*
X123095406Y-110875301D01*
X123069842Y-110880769D01*
X123061395Y-110862507D01*
X123056239Y-110807296D01*
X123054346Y-110714499D01*
X123055689Y-110583478D01*
X123056107Y-110563269D01*
X123059058Y-110443733D01*
X123062548Y-110356449D01*
X123067514Y-110294591D01*
X123074893Y-110251336D01*
X123085624Y-110219860D01*
X123100645Y-110193339D01*
X123108502Y-110181975D01*
X123153553Y-110131692D01*
X123203940Y-110092581D01*
X123210108Y-110089167D01*
X123300458Y-110062212D01*
X123395362Y-110066670D01*
X123395362Y-110066670D01*
G37*
X123395362Y-110066670D02*
X123484117Y-110099421D01*
X123556022Y-110157350D01*
X123584144Y-110198128D01*
X123614802Y-110272954D01*
X123614165Y-110327058D01*
X123581987Y-110363446D01*
X123570081Y-110369633D01*
X123518675Y-110388925D01*
X123492422Y-110383982D01*
X123483530Y-110351587D01*
X123483077Y-110333692D01*
X123466797Y-110267859D01*
X123424365Y-110221807D01*
X123365388Y-110199564D01*
X123299475Y-110205161D01*
X123245895Y-110234229D01*
X123227798Y-110250810D01*
X123214971Y-110270925D01*
X123206306Y-110301332D01*
X123200696Y-110348788D01*
X123197035Y-110420050D01*
X123194215Y-110521875D01*
X123193484Y-110554115D01*
X123190820Y-110664410D01*
X123187792Y-110742036D01*
X123183250Y-110793396D01*
X123176046Y-110824890D01*
X123165033Y-110842920D01*
X123149060Y-110853888D01*
X123138834Y-110858733D01*
X123095406Y-110875301D01*
X123069842Y-110880769D01*
X123061395Y-110862507D01*
X123056239Y-110807296D01*
X123054346Y-110714499D01*
X123055689Y-110583478D01*
X123056107Y-110563269D01*
X123059058Y-110443733D01*
X123062548Y-110356449D01*
X123067514Y-110294591D01*
X123074893Y-110251336D01*
X123085624Y-110219860D01*
X123100645Y-110193339D01*
X123108502Y-110181975D01*
X123153553Y-110131692D01*
X123203940Y-110092581D01*
X123210108Y-110089167D01*
X123300458Y-110062212D01*
X123395362Y-110066670D01*
G36*
X122735501Y-110068303D02*
G01*
X122812060Y-110096733D01*
X122812936Y-110097279D01*
X122860285Y-110132127D01*
X122895241Y-110172852D01*
X122919825Y-110225925D01*
X122936062Y-110297814D01*
X122945975Y-110394992D01*
X122951586Y-110523928D01*
X122952077Y-110542298D01*
X122959141Y-110819287D01*
X122899695Y-110850028D01*
X122856681Y-110870802D01*
X122830710Y-110880646D01*
X122829509Y-110880769D01*
X122825014Y-110862606D01*
X122821444Y-110813612D01*
X122819248Y-110742031D01*
X122818769Y-110684068D01*
X122818758Y-110590170D01*
X122814466Y-110531203D01*
X122799503Y-110503079D01*
X122767482Y-110501706D01*
X122712014Y-110522998D01*
X122628269Y-110562136D01*
X122566689Y-110594643D01*
X122535017Y-110622845D01*
X122525706Y-110653582D01*
X122525692Y-110655104D01*
X122541057Y-110708054D01*
X122586547Y-110736660D01*
X122656166Y-110740803D01*
X122706313Y-110740084D01*
X122732754Y-110754527D01*
X122749243Y-110789218D01*
X122758733Y-110833416D01*
X122745057Y-110858493D01*
X122739907Y-110862082D01*
X122691425Y-110876496D01*
X122623531Y-110878537D01*
X122553612Y-110868983D01*
X122504068Y-110851522D01*
X122435570Y-110793364D01*
X122396634Y-110712408D01*
X122388923Y-110649160D01*
X122394807Y-110592111D01*
X122416101Y-110545542D01*
X122458265Y-110504181D01*
X122526759Y-110462755D01*
X122627044Y-110415993D01*
X122633154Y-110413350D01*
X122723490Y-110371617D01*
X122779235Y-110337391D01*
X122803129Y-110306635D01*
X122797913Y-110275311D01*
X122766328Y-110239383D01*
X122756883Y-110231116D01*
X122693617Y-110199058D01*
X122628064Y-110200407D01*
X122570972Y-110231838D01*
X122533093Y-110290024D01*
X122529574Y-110301446D01*
X122495300Y-110356837D01*
X122451809Y-110383518D01*
X122388923Y-110409960D01*
X122388923Y-110341548D01*
X122408052Y-110242110D01*
X122464831Y-110150902D01*
X122494378Y-110120389D01*
X122561542Y-110081228D01*
X122646956Y-110063500D01*
X122735501Y-110068303D01*
X122735501Y-110068303D01*
G37*
X122735501Y-110068303D02*
X122812060Y-110096733D01*
X122812936Y-110097279D01*
X122860285Y-110132127D01*
X122895241Y-110172852D01*
X122919825Y-110225925D01*
X122936062Y-110297814D01*
X122945975Y-110394992D01*
X122951586Y-110523928D01*
X122952077Y-110542298D01*
X122959141Y-110819287D01*
X122899695Y-110850028D01*
X122856681Y-110870802D01*
X122830710Y-110880646D01*
X122829509Y-110880769D01*
X122825014Y-110862606D01*
X122821444Y-110813612D01*
X122819248Y-110742031D01*
X122818769Y-110684068D01*
X122818758Y-110590170D01*
X122814466Y-110531203D01*
X122799503Y-110503079D01*
X122767482Y-110501706D01*
X122712014Y-110522998D01*
X122628269Y-110562136D01*
X122566689Y-110594643D01*
X122535017Y-110622845D01*
X122525706Y-110653582D01*
X122525692Y-110655104D01*
X122541057Y-110708054D01*
X122586547Y-110736660D01*
X122656166Y-110740803D01*
X122706313Y-110740084D01*
X122732754Y-110754527D01*
X122749243Y-110789218D01*
X122758733Y-110833416D01*
X122745057Y-110858493D01*
X122739907Y-110862082D01*
X122691425Y-110876496D01*
X122623531Y-110878537D01*
X122553612Y-110868983D01*
X122504068Y-110851522D01*
X122435570Y-110793364D01*
X122396634Y-110712408D01*
X122388923Y-110649160D01*
X122394807Y-110592111D01*
X122416101Y-110545542D01*
X122458265Y-110504181D01*
X122526759Y-110462755D01*
X122627044Y-110415993D01*
X122633154Y-110413350D01*
X122723490Y-110371617D01*
X122779235Y-110337391D01*
X122803129Y-110306635D01*
X122797913Y-110275311D01*
X122766328Y-110239383D01*
X122756883Y-110231116D01*
X122693617Y-110199058D01*
X122628064Y-110200407D01*
X122570972Y-110231838D01*
X122533093Y-110290024D01*
X122529574Y-110301446D01*
X122495300Y-110356837D01*
X122451809Y-110383518D01*
X122388923Y-110409960D01*
X122388923Y-110341548D01*
X122408052Y-110242110D01*
X122464831Y-110150902D01*
X122494378Y-110120389D01*
X122561542Y-110081228D01*
X122646956Y-110063500D01*
X122735501Y-110068303D01*
G36*
X121841846Y-109934120D02*
G01*
X121847572Y-110013980D01*
X121854149Y-110061039D01*
X121863262Y-110081566D01*
X121876598Y-110081829D01*
X121880923Y-110079378D01*
X121938444Y-110061636D01*
X122013268Y-110062672D01*
X122089339Y-110080910D01*
X122136918Y-110104505D01*
X122185702Y-110142198D01*
X122221364Y-110184855D01*
X122245845Y-110239057D01*
X122261087Y-110311384D01*
X122269030Y-110408419D01*
X122271616Y-110536742D01*
X122271662Y-110561358D01*
X122271692Y-110837870D01*
X122210161Y-110859320D01*
X122166459Y-110873912D01*
X122142482Y-110880706D01*
X122141777Y-110880769D01*
X122139415Y-110862345D01*
X122137406Y-110811526D01*
X122135901Y-110734993D01*
X122135053Y-110639430D01*
X122134923Y-110581329D01*
X122134651Y-110466771D01*
X122133252Y-110384667D01*
X122129849Y-110328393D01*
X122123567Y-110291326D01*
X122113529Y-110266844D01*
X122098861Y-110248325D01*
X122089702Y-110239406D01*
X122026789Y-110203466D01*
X121958136Y-110200775D01*
X121895848Y-110231170D01*
X121884329Y-110242144D01*
X121867433Y-110262779D01*
X121855714Y-110287256D01*
X121848233Y-110322647D01*
X121844054Y-110376026D01*
X121842237Y-110454466D01*
X121841846Y-110562617D01*
X121841846Y-110837870D01*
X121780315Y-110859320D01*
X121736613Y-110873912D01*
X121712636Y-110880706D01*
X121711930Y-110880769D01*
X121710126Y-110862069D01*
X121708500Y-110809322D01*
X121707117Y-110727557D01*
X121706042Y-110621805D01*
X121705340Y-110497094D01*
X121705077Y-110358455D01*
X121705077Y-109823806D01*
X121832077Y-109770236D01*
X121841846Y-109934120D01*
X121841846Y-109934120D01*
G37*
X121841846Y-109934120D02*
X121847572Y-110013980D01*
X121854149Y-110061039D01*
X121863262Y-110081566D01*
X121876598Y-110081829D01*
X121880923Y-110079378D01*
X121938444Y-110061636D01*
X122013268Y-110062672D01*
X122089339Y-110080910D01*
X122136918Y-110104505D01*
X122185702Y-110142198D01*
X122221364Y-110184855D01*
X122245845Y-110239057D01*
X122261087Y-110311384D01*
X122269030Y-110408419D01*
X122271616Y-110536742D01*
X122271662Y-110561358D01*
X122271692Y-110837870D01*
X122210161Y-110859320D01*
X122166459Y-110873912D01*
X122142482Y-110880706D01*
X122141777Y-110880769D01*
X122139415Y-110862345D01*
X122137406Y-110811526D01*
X122135901Y-110734993D01*
X122135053Y-110639430D01*
X122134923Y-110581329D01*
X122134651Y-110466771D01*
X122133252Y-110384667D01*
X122129849Y-110328393D01*
X122123567Y-110291326D01*
X122113529Y-110266844D01*
X122098861Y-110248325D01*
X122089702Y-110239406D01*
X122026789Y-110203466D01*
X121958136Y-110200775D01*
X121895848Y-110231170D01*
X121884329Y-110242144D01*
X121867433Y-110262779D01*
X121855714Y-110287256D01*
X121848233Y-110322647D01*
X121844054Y-110376026D01*
X121842237Y-110454466D01*
X121841846Y-110562617D01*
X121841846Y-110837870D01*
X121780315Y-110859320D01*
X121736613Y-110873912D01*
X121712636Y-110880706D01*
X121711930Y-110880769D01*
X121710126Y-110862069D01*
X121708500Y-110809322D01*
X121707117Y-110727557D01*
X121706042Y-110621805D01*
X121705340Y-110497094D01*
X121705077Y-110358455D01*
X121705077Y-109823806D01*
X121832077Y-109770236D01*
X121841846Y-109934120D01*
G36*
X120216254Y-110041745D02*
G01*
X120293286Y-110093567D01*
X120352816Y-110168412D01*
X120388378Y-110263654D01*
X120395571Y-110333756D01*
X120394754Y-110363009D01*
X120387914Y-110385407D01*
X120369112Y-110405474D01*
X120332408Y-110427733D01*
X120271862Y-110456709D01*
X120181534Y-110496927D01*
X120181077Y-110497129D01*
X120097933Y-110535210D01*
X120029753Y-110569025D01*
X119983505Y-110594933D01*
X119966158Y-110609295D01*
X119966154Y-110609411D01*
X119981443Y-110640685D01*
X120017196Y-110675157D01*
X120058242Y-110699990D01*
X120079037Y-110704923D01*
X120135770Y-110687862D01*
X120184627Y-110645133D01*
X120208465Y-110598155D01*
X120231397Y-110563522D01*
X120276318Y-110524081D01*
X120329123Y-110490009D01*
X120375710Y-110471480D01*
X120385452Y-110470462D01*
X120396418Y-110487215D01*
X120397079Y-110530039D01*
X120389020Y-110587781D01*
X120373827Y-110649289D01*
X120353086Y-110703409D01*
X120352038Y-110705510D01*
X120289621Y-110792660D01*
X120208726Y-110851939D01*
X120116856Y-110881034D01*
X120021513Y-110877634D01*
X119930198Y-110839428D01*
X119926138Y-110836741D01*
X119854306Y-110771642D01*
X119807073Y-110686705D01*
X119780934Y-110575021D01*
X119777426Y-110543643D01*
X119771213Y-110395536D01*
X119778661Y-110326468D01*
X119966154Y-110326468D01*
X119968590Y-110369552D01*
X119981914Y-110382126D01*
X120015132Y-110372719D01*
X120067494Y-110350483D01*
X120126024Y-110322610D01*
X120127479Y-110321872D01*
X120177089Y-110295777D01*
X120197000Y-110278363D01*
X120192090Y-110260107D01*
X120171416Y-110236120D01*
X120118819Y-110201406D01*
X120062177Y-110198856D01*
X120011369Y-110224119D01*
X119976276Y-110272847D01*
X119966154Y-110326468D01*
X119778661Y-110326468D01*
X119783992Y-110277036D01*
X119816778Y-110183055D01*
X119862421Y-110117215D01*
X119944802Y-110050681D01*
X120035546Y-110017676D01*
X120128185Y-110015573D01*
X120216254Y-110041745D01*
X120216254Y-110041745D01*
G37*
X120216254Y-110041745D02*
X120293286Y-110093567D01*
X120352816Y-110168412D01*
X120388378Y-110263654D01*
X120395571Y-110333756D01*
X120394754Y-110363009D01*
X120387914Y-110385407D01*
X120369112Y-110405474D01*
X120332408Y-110427733D01*
X120271862Y-110456709D01*
X120181534Y-110496927D01*
X120181077Y-110497129D01*
X120097933Y-110535210D01*
X120029753Y-110569025D01*
X119983505Y-110594933D01*
X119966158Y-110609295D01*
X119966154Y-110609411D01*
X119981443Y-110640685D01*
X120017196Y-110675157D01*
X120058242Y-110699990D01*
X120079037Y-110704923D01*
X120135770Y-110687862D01*
X120184627Y-110645133D01*
X120208465Y-110598155D01*
X120231397Y-110563522D01*
X120276318Y-110524081D01*
X120329123Y-110490009D01*
X120375710Y-110471480D01*
X120385452Y-110470462D01*
X120396418Y-110487215D01*
X120397079Y-110530039D01*
X120389020Y-110587781D01*
X120373827Y-110649289D01*
X120353086Y-110703409D01*
X120352038Y-110705510D01*
X120289621Y-110792660D01*
X120208726Y-110851939D01*
X120116856Y-110881034D01*
X120021513Y-110877634D01*
X119930198Y-110839428D01*
X119926138Y-110836741D01*
X119854306Y-110771642D01*
X119807073Y-110686705D01*
X119780934Y-110575021D01*
X119777426Y-110543643D01*
X119771213Y-110395536D01*
X119778661Y-110326468D01*
X119966154Y-110326468D01*
X119968590Y-110369552D01*
X119981914Y-110382126D01*
X120015132Y-110372719D01*
X120067494Y-110350483D01*
X120126024Y-110322610D01*
X120127479Y-110321872D01*
X120177089Y-110295777D01*
X120197000Y-110278363D01*
X120192090Y-110260107D01*
X120171416Y-110236120D01*
X120118819Y-110201406D01*
X120062177Y-110198856D01*
X120011369Y-110224119D01*
X119976276Y-110272847D01*
X119966154Y-110326468D01*
X119778661Y-110326468D01*
X119783992Y-110277036D01*
X119816778Y-110183055D01*
X119862421Y-110117215D01*
X119944802Y-110050681D01*
X120035546Y-110017676D01*
X120128185Y-110015573D01*
X120216254Y-110041745D01*
G36*
X118698886Y-110029256D02*
G01*
X118790464Y-110077409D01*
X118858049Y-110154905D01*
X118882057Y-110204727D01*
X118900738Y-110279533D01*
X118910301Y-110374052D01*
X118911208Y-110477210D01*
X118903921Y-110577935D01*
X118888903Y-110665153D01*
X118866615Y-110727791D01*
X118859765Y-110738579D01*
X118778632Y-110819105D01*
X118682266Y-110867336D01*
X118577701Y-110881450D01*
X118471968Y-110859629D01*
X118442543Y-110846547D01*
X118385241Y-110806231D01*
X118334950Y-110752775D01*
X118330197Y-110745995D01*
X118310878Y-110713321D01*
X118298108Y-110678394D01*
X118290564Y-110632414D01*
X118286924Y-110566584D01*
X118285865Y-110472105D01*
X118285846Y-110450923D01*
X118285894Y-110444182D01*
X118481231Y-110444182D01*
X118482368Y-110533349D01*
X118486841Y-110592520D01*
X118496246Y-110630741D01*
X118512176Y-110657053D01*
X118520308Y-110665846D01*
X118567058Y-110699261D01*
X118612447Y-110697737D01*
X118658340Y-110668752D01*
X118685712Y-110637809D01*
X118701923Y-110592643D01*
X118711026Y-110521420D01*
X118711651Y-110513114D01*
X118713204Y-110384037D01*
X118696965Y-110288172D01*
X118663152Y-110226107D01*
X118611984Y-110198432D01*
X118593720Y-110196923D01*
X118545760Y-110204513D01*
X118512953Y-110230808D01*
X118492895Y-110281095D01*
X118483178Y-110360664D01*
X118481231Y-110444182D01*
X118285894Y-110444182D01*
X118286574Y-110350249D01*
X118289629Y-110279906D01*
X118296322Y-110231163D01*
X118307960Y-110195288D01*
X118325853Y-110163548D01*
X118329808Y-110157648D01*
X118396267Y-110078104D01*
X118468685Y-110031929D01*
X118556849Y-110013599D01*
X118586787Y-110012703D01*
X118698886Y-110029256D01*
X118698886Y-110029256D01*
G37*
X118698886Y-110029256D02*
X118790464Y-110077409D01*
X118858049Y-110154905D01*
X118882057Y-110204727D01*
X118900738Y-110279533D01*
X118910301Y-110374052D01*
X118911208Y-110477210D01*
X118903921Y-110577935D01*
X118888903Y-110665153D01*
X118866615Y-110727791D01*
X118859765Y-110738579D01*
X118778632Y-110819105D01*
X118682266Y-110867336D01*
X118577701Y-110881450D01*
X118471968Y-110859629D01*
X118442543Y-110846547D01*
X118385241Y-110806231D01*
X118334950Y-110752775D01*
X118330197Y-110745995D01*
X118310878Y-110713321D01*
X118298108Y-110678394D01*
X118290564Y-110632414D01*
X118286924Y-110566584D01*
X118285865Y-110472105D01*
X118285846Y-110450923D01*
X118285894Y-110444182D01*
X118481231Y-110444182D01*
X118482368Y-110533349D01*
X118486841Y-110592520D01*
X118496246Y-110630741D01*
X118512176Y-110657053D01*
X118520308Y-110665846D01*
X118567058Y-110699261D01*
X118612447Y-110697737D01*
X118658340Y-110668752D01*
X118685712Y-110637809D01*
X118701923Y-110592643D01*
X118711026Y-110521420D01*
X118711651Y-110513114D01*
X118713204Y-110384037D01*
X118696965Y-110288172D01*
X118663152Y-110226107D01*
X118611984Y-110198432D01*
X118593720Y-110196923D01*
X118545760Y-110204513D01*
X118512953Y-110230808D01*
X118492895Y-110281095D01*
X118483178Y-110360664D01*
X118481231Y-110444182D01*
X118285894Y-110444182D01*
X118286574Y-110350249D01*
X118289629Y-110279906D01*
X118296322Y-110231163D01*
X118307960Y-110195288D01*
X118325853Y-110163548D01*
X118329808Y-110157648D01*
X118396267Y-110078104D01*
X118468685Y-110031929D01*
X118556849Y-110013599D01*
X118586787Y-110012703D01*
X118698886Y-110029256D01*
G36*
X120953664Y-110037089D02*
G01*
X121016367Y-110073358D01*
X121059961Y-110109358D01*
X121091845Y-110147075D01*
X121113810Y-110193199D01*
X121127649Y-110254421D01*
X121135153Y-110337431D01*
X121138117Y-110448919D01*
X121138461Y-110529062D01*
X121138461Y-110824065D01*
X120972385Y-110898515D01*
X120962615Y-110575402D01*
X120958579Y-110454729D01*
X120954344Y-110367141D01*
X120949097Y-110306650D01*
X120942025Y-110267268D01*
X120932311Y-110243007D01*
X120919144Y-110227880D01*
X120914919Y-110224606D01*
X120850909Y-110199034D01*
X120786208Y-110209153D01*
X120747692Y-110236000D01*
X120732025Y-110255024D01*
X120721180Y-110279988D01*
X120714288Y-110317834D01*
X120710479Y-110375502D01*
X120708883Y-110459935D01*
X120708615Y-110547928D01*
X120708563Y-110658323D01*
X120706672Y-110736463D01*
X120700345Y-110789165D01*
X120686983Y-110823242D01*
X120663985Y-110845511D01*
X120628754Y-110862787D01*
X120581697Y-110880738D01*
X120530303Y-110900278D01*
X120536421Y-110553485D01*
X120538884Y-110428468D01*
X120541767Y-110336082D01*
X120545898Y-110269881D01*
X120552107Y-110223420D01*
X120561226Y-110190256D01*
X120574083Y-110163944D01*
X120589584Y-110140729D01*
X120664371Y-110066569D01*
X120755628Y-110023684D01*
X120854883Y-110013412D01*
X120953664Y-110037089D01*
X120953664Y-110037089D01*
G37*
X120953664Y-110037089D02*
X121016367Y-110073358D01*
X121059961Y-110109358D01*
X121091845Y-110147075D01*
X121113810Y-110193199D01*
X121127649Y-110254421D01*
X121135153Y-110337431D01*
X121138117Y-110448919D01*
X121138461Y-110529062D01*
X121138461Y-110824065D01*
X120972385Y-110898515D01*
X120962615Y-110575402D01*
X120958579Y-110454729D01*
X120954344Y-110367141D01*
X120949097Y-110306650D01*
X120942025Y-110267268D01*
X120932311Y-110243007D01*
X120919144Y-110227880D01*
X120914919Y-110224606D01*
X120850909Y-110199034D01*
X120786208Y-110209153D01*
X120747692Y-110236000D01*
X120732025Y-110255024D01*
X120721180Y-110279988D01*
X120714288Y-110317834D01*
X120710479Y-110375502D01*
X120708883Y-110459935D01*
X120708615Y-110547928D01*
X120708563Y-110658323D01*
X120706672Y-110736463D01*
X120700345Y-110789165D01*
X120686983Y-110823242D01*
X120663985Y-110845511D01*
X120628754Y-110862787D01*
X120581697Y-110880738D01*
X120530303Y-110900278D01*
X120536421Y-110553485D01*
X120538884Y-110428468D01*
X120541767Y-110336082D01*
X120545898Y-110269881D01*
X120552107Y-110223420D01*
X120561226Y-110190256D01*
X120574083Y-110163944D01*
X120589584Y-110140729D01*
X120664371Y-110066569D01*
X120755628Y-110023684D01*
X120854883Y-110013412D01*
X120953664Y-110037089D01*
G36*
X119450886Y-110026505D02*
G01*
X119525539Y-110063727D01*
X119591431Y-110132261D01*
X119609577Y-110157648D01*
X119629345Y-110190866D01*
X119642172Y-110226945D01*
X119649510Y-110275098D01*
X119652813Y-110344536D01*
X119653538Y-110436206D01*
X119650263Y-110561830D01*
X119638877Y-110656154D01*
X119617041Y-110726523D01*
X119582419Y-110780286D01*
X119532670Y-110824788D01*
X119529014Y-110827423D01*
X119479985Y-110854377D01*
X119420945Y-110867712D01*
X119345859Y-110871000D01*
X119223795Y-110871000D01*
X119223744Y-110989497D01*
X119222608Y-111055492D01*
X119215686Y-111094202D01*
X119197598Y-111117419D01*
X119162962Y-111136933D01*
X119154645Y-111140920D01*
X119115720Y-111159603D01*
X119085583Y-111171403D01*
X119063174Y-111172422D01*
X119047433Y-111158761D01*
X119037302Y-111126522D01*
X119031723Y-111071804D01*
X119029635Y-110990711D01*
X119029981Y-110879344D01*
X119031700Y-110733802D01*
X119032237Y-110690269D01*
X119034172Y-110540205D01*
X119035904Y-110442042D01*
X119223692Y-110442042D01*
X119224748Y-110525364D01*
X119229438Y-110579880D01*
X119240051Y-110615837D01*
X119258872Y-110643482D01*
X119271650Y-110656965D01*
X119323890Y-110696417D01*
X119370142Y-110699628D01*
X119417867Y-110667049D01*
X119419077Y-110665846D01*
X119438494Y-110640668D01*
X119450307Y-110606447D01*
X119456265Y-110553748D01*
X119458120Y-110473131D01*
X119458154Y-110455271D01*
X119453670Y-110344175D01*
X119439074Y-110267161D01*
X119412650Y-110220147D01*
X119372683Y-110199050D01*
X119349584Y-110196923D01*
X119294762Y-110206900D01*
X119257158Y-110239752D01*
X119234523Y-110299857D01*
X119224606Y-110391598D01*
X119223692Y-110442042D01*
X119035904Y-110442042D01*
X119036222Y-110424060D01*
X119038873Y-110336679D01*
X119042606Y-110272905D01*
X119047907Y-110227582D01*
X119055258Y-110195555D01*
X119065143Y-110171668D01*
X119078046Y-110150764D01*
X119083579Y-110142898D01*
X119156969Y-110068595D01*
X119249760Y-110026467D01*
X119357096Y-110014722D01*
X119450886Y-110026505D01*
X119450886Y-110026505D01*
G37*
X119450886Y-110026505D02*
X119525539Y-110063727D01*
X119591431Y-110132261D01*
X119609577Y-110157648D01*
X119629345Y-110190866D01*
X119642172Y-110226945D01*
X119649510Y-110275098D01*
X119652813Y-110344536D01*
X119653538Y-110436206D01*
X119650263Y-110561830D01*
X119638877Y-110656154D01*
X119617041Y-110726523D01*
X119582419Y-110780286D01*
X119532670Y-110824788D01*
X119529014Y-110827423D01*
X119479985Y-110854377D01*
X119420945Y-110867712D01*
X119345859Y-110871000D01*
X119223795Y-110871000D01*
X119223744Y-110989497D01*
X119222608Y-111055492D01*
X119215686Y-111094202D01*
X119197598Y-111117419D01*
X119162962Y-111136933D01*
X119154645Y-111140920D01*
X119115720Y-111159603D01*
X119085583Y-111171403D01*
X119063174Y-111172422D01*
X119047433Y-111158761D01*
X119037302Y-111126522D01*
X119031723Y-111071804D01*
X119029635Y-110990711D01*
X119029981Y-110879344D01*
X119031700Y-110733802D01*
X119032237Y-110690269D01*
X119034172Y-110540205D01*
X119035904Y-110442042D01*
X119223692Y-110442042D01*
X119224748Y-110525364D01*
X119229438Y-110579880D01*
X119240051Y-110615837D01*
X119258872Y-110643482D01*
X119271650Y-110656965D01*
X119323890Y-110696417D01*
X119370142Y-110699628D01*
X119417867Y-110667049D01*
X119419077Y-110665846D01*
X119438494Y-110640668D01*
X119450307Y-110606447D01*
X119456265Y-110553748D01*
X119458120Y-110473131D01*
X119458154Y-110455271D01*
X119453670Y-110344175D01*
X119439074Y-110267161D01*
X119412650Y-110220147D01*
X119372683Y-110199050D01*
X119349584Y-110196923D01*
X119294762Y-110206900D01*
X119257158Y-110239752D01*
X119234523Y-110299857D01*
X119224606Y-110391598D01*
X119223692Y-110442042D01*
X119035904Y-110442042D01*
X119036222Y-110424060D01*
X119038873Y-110336679D01*
X119042606Y-110272905D01*
X119047907Y-110227582D01*
X119055258Y-110195555D01*
X119065143Y-110171668D01*
X119078046Y-110150764D01*
X119083579Y-110142898D01*
X119156969Y-110068595D01*
X119249760Y-110026467D01*
X119357096Y-110014722D01*
X119450886Y-110026505D01*
D10*
G04 #@! TO.C,C1*
X110415000Y-94658922D02*
X110415000Y-95176078D01*
X111835000Y-94658922D02*
X111835000Y-95176078D01*
G04 #@! TO.C,C2*
X108660000Y-94658922D02*
X108660000Y-95176078D01*
X107240000Y-94658922D02*
X107240000Y-95176078D01*
G04 #@! TO.C,C3*
X109530000Y-64730000D02*
G75*
G03X109530000Y-64730000I-4120000J0D01*
G01*
X109490000Y-64730000D02*
X101330000Y-64730000D01*
X109490000Y-64770000D02*
X101330000Y-64770000D01*
X109490000Y-64810000D02*
X101330000Y-64810000D01*
X109489000Y-64850000D02*
X101331000Y-64850000D01*
X109487000Y-64890000D02*
X101333000Y-64890000D01*
X109486000Y-64930000D02*
X101334000Y-64930000D01*
X109484000Y-64970000D02*
X101336000Y-64970000D01*
X109481000Y-65010000D02*
X101339000Y-65010000D01*
X109478000Y-65050000D02*
X101342000Y-65050000D01*
X109475000Y-65090000D02*
X101345000Y-65090000D01*
X109471000Y-65130000D02*
X101349000Y-65130000D01*
X109467000Y-65170000D02*
X101353000Y-65170000D01*
X109462000Y-65210000D02*
X101358000Y-65210000D01*
X109458000Y-65250000D02*
X101362000Y-65250000D01*
X109452000Y-65290000D02*
X101368000Y-65290000D01*
X109447000Y-65330000D02*
X101373000Y-65330000D01*
X109440000Y-65370000D02*
X101380000Y-65370000D01*
X109434000Y-65410000D02*
X101386000Y-65410000D01*
X109427000Y-65451000D02*
X101393000Y-65451000D01*
X109420000Y-65491000D02*
X101400000Y-65491000D01*
X109412000Y-65531000D02*
X101408000Y-65531000D01*
X109404000Y-65571000D02*
X101416000Y-65571000D01*
X109395000Y-65611000D02*
X101425000Y-65611000D01*
X109386000Y-65651000D02*
X101434000Y-65651000D01*
X109377000Y-65691000D02*
X101443000Y-65691000D01*
X109367000Y-65731000D02*
X101453000Y-65731000D01*
X109357000Y-65771000D02*
X101463000Y-65771000D01*
X109346000Y-65811000D02*
X101474000Y-65811000D01*
X109335000Y-65851000D02*
X101485000Y-65851000D01*
X109324000Y-65891000D02*
X101496000Y-65891000D01*
X109312000Y-65931000D02*
X101508000Y-65931000D01*
X109299000Y-65971000D02*
X101521000Y-65971000D01*
X109287000Y-66011000D02*
X101533000Y-66011000D01*
X109273000Y-66051000D02*
X101547000Y-66051000D01*
X109260000Y-66091000D02*
X101560000Y-66091000D01*
X109245000Y-66131000D02*
X101575000Y-66131000D01*
X109231000Y-66171000D02*
X101589000Y-66171000D01*
X109215000Y-66211000D02*
X106450000Y-66211000D01*
X104370000Y-66211000D02*
X101605000Y-66211000D01*
X109200000Y-66251000D02*
X106450000Y-66251000D01*
X104370000Y-66251000D02*
X101620000Y-66251000D01*
X109184000Y-66291000D02*
X106450000Y-66291000D01*
X104370000Y-66291000D02*
X101636000Y-66291000D01*
X109167000Y-66331000D02*
X106450000Y-66331000D01*
X104370000Y-66331000D02*
X101653000Y-66331000D01*
X109150000Y-66371000D02*
X106450000Y-66371000D01*
X104370000Y-66371000D02*
X101670000Y-66371000D01*
X109132000Y-66411000D02*
X106450000Y-66411000D01*
X104370000Y-66411000D02*
X101688000Y-66411000D01*
X109114000Y-66451000D02*
X106450000Y-66451000D01*
X104370000Y-66451000D02*
X101706000Y-66451000D01*
X109096000Y-66491000D02*
X106450000Y-66491000D01*
X104370000Y-66491000D02*
X101724000Y-66491000D01*
X109076000Y-66531000D02*
X106450000Y-66531000D01*
X104370000Y-66531000D02*
X101744000Y-66531000D01*
X109057000Y-66571000D02*
X106450000Y-66571000D01*
X104370000Y-66571000D02*
X101763000Y-66571000D01*
X109037000Y-66611000D02*
X106450000Y-66611000D01*
X104370000Y-66611000D02*
X101783000Y-66611000D01*
X109016000Y-66651000D02*
X106450000Y-66651000D01*
X104370000Y-66651000D02*
X101804000Y-66651000D01*
X108994000Y-66691000D02*
X106450000Y-66691000D01*
X104370000Y-66691000D02*
X101826000Y-66691000D01*
X108972000Y-66731000D02*
X106450000Y-66731000D01*
X104370000Y-66731000D02*
X101848000Y-66731000D01*
X108950000Y-66771000D02*
X106450000Y-66771000D01*
X104370000Y-66771000D02*
X101870000Y-66771000D01*
X108927000Y-66811000D02*
X106450000Y-66811000D01*
X104370000Y-66811000D02*
X101893000Y-66811000D01*
X108903000Y-66851000D02*
X106450000Y-66851000D01*
X104370000Y-66851000D02*
X101917000Y-66851000D01*
X108879000Y-66891000D02*
X106450000Y-66891000D01*
X104370000Y-66891000D02*
X101941000Y-66891000D01*
X108854000Y-66931000D02*
X106450000Y-66931000D01*
X104370000Y-66931000D02*
X101966000Y-66931000D01*
X108828000Y-66971000D02*
X106450000Y-66971000D01*
X104370000Y-66971000D02*
X101992000Y-66971000D01*
X108802000Y-67011000D02*
X106450000Y-67011000D01*
X104370000Y-67011000D02*
X102018000Y-67011000D01*
X108775000Y-67051000D02*
X106450000Y-67051000D01*
X104370000Y-67051000D02*
X102045000Y-67051000D01*
X108748000Y-67091000D02*
X106450000Y-67091000D01*
X104370000Y-67091000D02*
X102072000Y-67091000D01*
X108719000Y-67131000D02*
X106450000Y-67131000D01*
X104370000Y-67131000D02*
X102101000Y-67131000D01*
X108690000Y-67171000D02*
X106450000Y-67171000D01*
X104370000Y-67171000D02*
X102130000Y-67171000D01*
X108660000Y-67211000D02*
X106450000Y-67211000D01*
X104370000Y-67211000D02*
X102160000Y-67211000D01*
X108630000Y-67251000D02*
X106450000Y-67251000D01*
X104370000Y-67251000D02*
X102190000Y-67251000D01*
X108599000Y-67291000D02*
X106450000Y-67291000D01*
X104370000Y-67291000D02*
X102221000Y-67291000D01*
X108566000Y-67331000D02*
X106450000Y-67331000D01*
X104370000Y-67331000D02*
X102254000Y-67331000D01*
X108534000Y-67371000D02*
X106450000Y-67371000D01*
X104370000Y-67371000D02*
X102286000Y-67371000D01*
X108500000Y-67411000D02*
X106450000Y-67411000D01*
X104370000Y-67411000D02*
X102320000Y-67411000D01*
X108465000Y-67451000D02*
X106450000Y-67451000D01*
X104370000Y-67451000D02*
X102355000Y-67451000D01*
X108429000Y-67491000D02*
X106450000Y-67491000D01*
X104370000Y-67491000D02*
X102391000Y-67491000D01*
X108393000Y-67531000D02*
X106450000Y-67531000D01*
X104370000Y-67531000D02*
X102427000Y-67531000D01*
X108355000Y-67571000D02*
X106450000Y-67571000D01*
X104370000Y-67571000D02*
X102465000Y-67571000D01*
X108317000Y-67611000D02*
X106450000Y-67611000D01*
X104370000Y-67611000D02*
X102503000Y-67611000D01*
X108277000Y-67651000D02*
X106450000Y-67651000D01*
X104370000Y-67651000D02*
X102543000Y-67651000D01*
X108236000Y-67691000D02*
X106450000Y-67691000D01*
X104370000Y-67691000D02*
X102584000Y-67691000D01*
X108194000Y-67731000D02*
X106450000Y-67731000D01*
X104370000Y-67731000D02*
X102626000Y-67731000D01*
X108151000Y-67771000D02*
X106450000Y-67771000D01*
X104370000Y-67771000D02*
X102669000Y-67771000D01*
X108107000Y-67811000D02*
X106450000Y-67811000D01*
X104370000Y-67811000D02*
X102713000Y-67811000D01*
X108061000Y-67851000D02*
X106450000Y-67851000D01*
X104370000Y-67851000D02*
X102759000Y-67851000D01*
X108014000Y-67891000D02*
X106450000Y-67891000D01*
X104370000Y-67891000D02*
X102806000Y-67891000D01*
X107966000Y-67931000D02*
X106450000Y-67931000D01*
X104370000Y-67931000D02*
X102854000Y-67931000D01*
X107915000Y-67971000D02*
X106450000Y-67971000D01*
X104370000Y-67971000D02*
X102905000Y-67971000D01*
X107864000Y-68011000D02*
X106450000Y-68011000D01*
X104370000Y-68011000D02*
X102956000Y-68011000D01*
X107810000Y-68051000D02*
X106450000Y-68051000D01*
X104370000Y-68051000D02*
X103010000Y-68051000D01*
X107755000Y-68091000D02*
X106450000Y-68091000D01*
X104370000Y-68091000D02*
X103065000Y-68091000D01*
X107697000Y-68131000D02*
X106450000Y-68131000D01*
X104370000Y-68131000D02*
X103123000Y-68131000D01*
X107638000Y-68171000D02*
X106450000Y-68171000D01*
X104370000Y-68171000D02*
X103182000Y-68171000D01*
X107576000Y-68211000D02*
X106450000Y-68211000D01*
X104370000Y-68211000D02*
X103244000Y-68211000D01*
X107512000Y-68251000D02*
X106450000Y-68251000D01*
X104370000Y-68251000D02*
X103308000Y-68251000D01*
X107444000Y-68291000D02*
X103376000Y-68291000D01*
X107374000Y-68331000D02*
X103446000Y-68331000D01*
X107300000Y-68371000D02*
X103520000Y-68371000D01*
X107223000Y-68411000D02*
X103597000Y-68411000D01*
X107141000Y-68451000D02*
X103679000Y-68451000D01*
X107055000Y-68491000D02*
X103765000Y-68491000D01*
X106962000Y-68531000D02*
X103858000Y-68531000D01*
X106863000Y-68571000D02*
X103957000Y-68571000D01*
X106756000Y-68611000D02*
X104064000Y-68611000D01*
X106639000Y-68651000D02*
X104181000Y-68651000D01*
X106508000Y-68691000D02*
X104312000Y-68691000D01*
X106358000Y-68731000D02*
X104462000Y-68731000D01*
X106178000Y-68771000D02*
X104642000Y-68771000D01*
X105943000Y-68811000D02*
X104877000Y-68811000D01*
X107725000Y-60320302D02*
X107725000Y-61120302D01*
X108125000Y-60720302D02*
X107325000Y-60720302D01*
G04 #@! TO.C,C4*
X117015000Y-60720302D02*
X116215000Y-60720302D01*
X116615000Y-60320302D02*
X116615000Y-61120302D01*
X114833000Y-68811000D02*
X113767000Y-68811000D01*
X115068000Y-68771000D02*
X113532000Y-68771000D01*
X115248000Y-68731000D02*
X113352000Y-68731000D01*
X115398000Y-68691000D02*
X113202000Y-68691000D01*
X115529000Y-68651000D02*
X113071000Y-68651000D01*
X115646000Y-68611000D02*
X112954000Y-68611000D01*
X115753000Y-68571000D02*
X112847000Y-68571000D01*
X115852000Y-68531000D02*
X112748000Y-68531000D01*
X115945000Y-68491000D02*
X112655000Y-68491000D01*
X116031000Y-68451000D02*
X112569000Y-68451000D01*
X116113000Y-68411000D02*
X112487000Y-68411000D01*
X116190000Y-68371000D02*
X112410000Y-68371000D01*
X116264000Y-68331000D02*
X112336000Y-68331000D01*
X116334000Y-68291000D02*
X112266000Y-68291000D01*
X113260000Y-68251000D02*
X112198000Y-68251000D01*
X116402000Y-68251000D02*
X115340000Y-68251000D01*
X113260000Y-68211000D02*
X112134000Y-68211000D01*
X116466000Y-68211000D02*
X115340000Y-68211000D01*
X113260000Y-68171000D02*
X112072000Y-68171000D01*
X116528000Y-68171000D02*
X115340000Y-68171000D01*
X113260000Y-68131000D02*
X112013000Y-68131000D01*
X116587000Y-68131000D02*
X115340000Y-68131000D01*
X113260000Y-68091000D02*
X111955000Y-68091000D01*
X116645000Y-68091000D02*
X115340000Y-68091000D01*
X113260000Y-68051000D02*
X111900000Y-68051000D01*
X116700000Y-68051000D02*
X115340000Y-68051000D01*
X113260000Y-68011000D02*
X111846000Y-68011000D01*
X116754000Y-68011000D02*
X115340000Y-68011000D01*
X113260000Y-67971000D02*
X111795000Y-67971000D01*
X116805000Y-67971000D02*
X115340000Y-67971000D01*
X113260000Y-67931000D02*
X111744000Y-67931000D01*
X116856000Y-67931000D02*
X115340000Y-67931000D01*
X113260000Y-67891000D02*
X111696000Y-67891000D01*
X116904000Y-67891000D02*
X115340000Y-67891000D01*
X113260000Y-67851000D02*
X111649000Y-67851000D01*
X116951000Y-67851000D02*
X115340000Y-67851000D01*
X113260000Y-67811000D02*
X111603000Y-67811000D01*
X116997000Y-67811000D02*
X115340000Y-67811000D01*
X113260000Y-67771000D02*
X111559000Y-67771000D01*
X117041000Y-67771000D02*
X115340000Y-67771000D01*
X113260000Y-67731000D02*
X111516000Y-67731000D01*
X117084000Y-67731000D02*
X115340000Y-67731000D01*
X113260000Y-67691000D02*
X111474000Y-67691000D01*
X117126000Y-67691000D02*
X115340000Y-67691000D01*
X113260000Y-67651000D02*
X111433000Y-67651000D01*
X117167000Y-67651000D02*
X115340000Y-67651000D01*
X113260000Y-67611000D02*
X111393000Y-67611000D01*
X117207000Y-67611000D02*
X115340000Y-67611000D01*
X113260000Y-67571000D02*
X111355000Y-67571000D01*
X117245000Y-67571000D02*
X115340000Y-67571000D01*
X113260000Y-67531000D02*
X111317000Y-67531000D01*
X117283000Y-67531000D02*
X115340000Y-67531000D01*
X113260000Y-67491000D02*
X111281000Y-67491000D01*
X117319000Y-67491000D02*
X115340000Y-67491000D01*
X113260000Y-67451000D02*
X111245000Y-67451000D01*
X117355000Y-67451000D02*
X115340000Y-67451000D01*
X113260000Y-67411000D02*
X111210000Y-67411000D01*
X117390000Y-67411000D02*
X115340000Y-67411000D01*
X113260000Y-67371000D02*
X111176000Y-67371000D01*
X117424000Y-67371000D02*
X115340000Y-67371000D01*
X113260000Y-67331000D02*
X111144000Y-67331000D01*
X117456000Y-67331000D02*
X115340000Y-67331000D01*
X113260000Y-67291000D02*
X111111000Y-67291000D01*
X117489000Y-67291000D02*
X115340000Y-67291000D01*
X113260000Y-67251000D02*
X111080000Y-67251000D01*
X117520000Y-67251000D02*
X115340000Y-67251000D01*
X113260000Y-67211000D02*
X111050000Y-67211000D01*
X117550000Y-67211000D02*
X115340000Y-67211000D01*
X113260000Y-67171000D02*
X111020000Y-67171000D01*
X117580000Y-67171000D02*
X115340000Y-67171000D01*
X113260000Y-67131000D02*
X110991000Y-67131000D01*
X117609000Y-67131000D02*
X115340000Y-67131000D01*
X113260000Y-67091000D02*
X110962000Y-67091000D01*
X117638000Y-67091000D02*
X115340000Y-67091000D01*
X113260000Y-67051000D02*
X110935000Y-67051000D01*
X117665000Y-67051000D02*
X115340000Y-67051000D01*
X113260000Y-67011000D02*
X110908000Y-67011000D01*
X117692000Y-67011000D02*
X115340000Y-67011000D01*
X113260000Y-66971000D02*
X110882000Y-66971000D01*
X117718000Y-66971000D02*
X115340000Y-66971000D01*
X113260000Y-66931000D02*
X110856000Y-66931000D01*
X117744000Y-66931000D02*
X115340000Y-66931000D01*
X113260000Y-66891000D02*
X110831000Y-66891000D01*
X117769000Y-66891000D02*
X115340000Y-66891000D01*
X113260000Y-66851000D02*
X110807000Y-66851000D01*
X117793000Y-66851000D02*
X115340000Y-66851000D01*
X113260000Y-66811000D02*
X110783000Y-66811000D01*
X117817000Y-66811000D02*
X115340000Y-66811000D01*
X113260000Y-66771000D02*
X110760000Y-66771000D01*
X117840000Y-66771000D02*
X115340000Y-66771000D01*
X113260000Y-66731000D02*
X110738000Y-66731000D01*
X117862000Y-66731000D02*
X115340000Y-66731000D01*
X113260000Y-66691000D02*
X110716000Y-66691000D01*
X117884000Y-66691000D02*
X115340000Y-66691000D01*
X113260000Y-66651000D02*
X110694000Y-66651000D01*
X117906000Y-66651000D02*
X115340000Y-66651000D01*
X113260000Y-66611000D02*
X110673000Y-66611000D01*
X117927000Y-66611000D02*
X115340000Y-66611000D01*
X113260000Y-66571000D02*
X110653000Y-66571000D01*
X117947000Y-66571000D02*
X115340000Y-66571000D01*
X113260000Y-66531000D02*
X110634000Y-66531000D01*
X117966000Y-66531000D02*
X115340000Y-66531000D01*
X113260000Y-66491000D02*
X110614000Y-66491000D01*
X117986000Y-66491000D02*
X115340000Y-66491000D01*
X113260000Y-66451000D02*
X110596000Y-66451000D01*
X118004000Y-66451000D02*
X115340000Y-66451000D01*
X113260000Y-66411000D02*
X110578000Y-66411000D01*
X118022000Y-66411000D02*
X115340000Y-66411000D01*
X113260000Y-66371000D02*
X110560000Y-66371000D01*
X118040000Y-66371000D02*
X115340000Y-66371000D01*
X113260000Y-66331000D02*
X110543000Y-66331000D01*
X118057000Y-66331000D02*
X115340000Y-66331000D01*
X113260000Y-66291000D02*
X110526000Y-66291000D01*
X118074000Y-66291000D02*
X115340000Y-66291000D01*
X113260000Y-66251000D02*
X110510000Y-66251000D01*
X118090000Y-66251000D02*
X115340000Y-66251000D01*
X113260000Y-66211000D02*
X110495000Y-66211000D01*
X118105000Y-66211000D02*
X115340000Y-66211000D01*
X118121000Y-66171000D02*
X110479000Y-66171000D01*
X118135000Y-66131000D02*
X110465000Y-66131000D01*
X118150000Y-66091000D02*
X110450000Y-66091000D01*
X118163000Y-66051000D02*
X110437000Y-66051000D01*
X118177000Y-66011000D02*
X110423000Y-66011000D01*
X118189000Y-65971000D02*
X110411000Y-65971000D01*
X118202000Y-65931000D02*
X110398000Y-65931000D01*
X118214000Y-65891000D02*
X110386000Y-65891000D01*
X118225000Y-65851000D02*
X110375000Y-65851000D01*
X118236000Y-65811000D02*
X110364000Y-65811000D01*
X118247000Y-65771000D02*
X110353000Y-65771000D01*
X118257000Y-65731000D02*
X110343000Y-65731000D01*
X118267000Y-65691000D02*
X110333000Y-65691000D01*
X118276000Y-65651000D02*
X110324000Y-65651000D01*
X118285000Y-65611000D02*
X110315000Y-65611000D01*
X118294000Y-65571000D02*
X110306000Y-65571000D01*
X118302000Y-65531000D02*
X110298000Y-65531000D01*
X118310000Y-65491000D02*
X110290000Y-65491000D01*
X118317000Y-65451000D02*
X110283000Y-65451000D01*
X118324000Y-65410000D02*
X110276000Y-65410000D01*
X118330000Y-65370000D02*
X110270000Y-65370000D01*
X118337000Y-65330000D02*
X110263000Y-65330000D01*
X118342000Y-65290000D02*
X110258000Y-65290000D01*
X118348000Y-65250000D02*
X110252000Y-65250000D01*
X118352000Y-65210000D02*
X110248000Y-65210000D01*
X118357000Y-65170000D02*
X110243000Y-65170000D01*
X118361000Y-65130000D02*
X110239000Y-65130000D01*
X118365000Y-65090000D02*
X110235000Y-65090000D01*
X118368000Y-65050000D02*
X110232000Y-65050000D01*
X118371000Y-65010000D02*
X110229000Y-65010000D01*
X118374000Y-64970000D02*
X110226000Y-64970000D01*
X118376000Y-64930000D02*
X110224000Y-64930000D01*
X118377000Y-64890000D02*
X110223000Y-64890000D01*
X118379000Y-64850000D02*
X110221000Y-64850000D01*
X118380000Y-64810000D02*
X110220000Y-64810000D01*
X118380000Y-64770000D02*
X110220000Y-64770000D01*
X118380000Y-64730000D02*
X110220000Y-64730000D01*
X118420000Y-64730000D02*
G75*
G03X118420000Y-64730000I-4120000J0D01*
G01*
G04 #@! TO.C,C5*
X117400000Y-57741078D02*
X117400000Y-57223922D01*
X118820000Y-57741078D02*
X118820000Y-57223922D01*
G04 #@! TO.C,C6*
X118820000Y-53266078D02*
X118820000Y-52748922D01*
X117400000Y-53266078D02*
X117400000Y-52748922D01*
G04 #@! TO.C,D1*
X131155000Y-55055000D02*
X131155000Y-55211000D01*
X131155000Y-52739000D02*
X131155000Y-52895000D01*
X133756130Y-55054837D02*
G75*
G02X131674039Y-55055000I-1041130J1079837D01*
G01*
X133756130Y-52895163D02*
G75*
G03X131674039Y-52895000I-1041130J-1079837D01*
G01*
X134387335Y-55053608D02*
G75*
G02X131155000Y-55210516I-1672335J1078608D01*
G01*
X134387335Y-52896392D02*
G75*
G03X131155000Y-52739484I-1672335J-1078608D01*
G01*
G04 #@! TO.C,D2*
X139467335Y-77661392D02*
G75*
G03X136235000Y-77504484I-1672335J-1078608D01*
G01*
X139467335Y-79818608D02*
G75*
G02X136235000Y-79975516I-1672335J1078608D01*
G01*
X138836130Y-77660163D02*
G75*
G03X136754039Y-77660000I-1041130J-1079837D01*
G01*
X138836130Y-79819837D02*
G75*
G02X136754039Y-79820000I-1041130J1079837D01*
G01*
X136235000Y-77504000D02*
X136235000Y-77660000D01*
X136235000Y-79820000D02*
X136235000Y-79976000D01*
G04 #@! TO.C,J2*
X146110000Y-52645000D02*
X143450000Y-52645000D01*
X146110000Y-55245000D02*
X146110000Y-52645000D01*
X143450000Y-55245000D02*
X143450000Y-52645000D01*
X146110000Y-55245000D02*
X143450000Y-55245000D01*
X146110000Y-56515000D02*
X146110000Y-57845000D01*
X146110000Y-57845000D02*
X144780000Y-57845000D01*
G04 #@! TO.C,J3*
X110490000Y-122615000D02*
X110490000Y-119955000D01*
X110490000Y-122615000D02*
X125790000Y-122615000D01*
X125790000Y-122615000D02*
X125790000Y-119955000D01*
X110490000Y-119955000D02*
X125790000Y-119955000D01*
X107890000Y-119955000D02*
X109220000Y-119955000D01*
X107890000Y-121285000D02*
X107890000Y-119955000D01*
G04 #@! TO.C,J4*
X96580000Y-105410000D02*
X93920000Y-105410000D01*
X96580000Y-105410000D02*
X96580000Y-67250000D01*
X96580000Y-67250000D02*
X93920000Y-67250000D01*
X93920000Y-105410000D02*
X93920000Y-67250000D01*
X93920000Y-108010000D02*
X93920000Y-106680000D01*
X95250000Y-108010000D02*
X93920000Y-108010000D01*
G04 #@! TO.C,J5*
X104200000Y-118050000D02*
X104200000Y-120650000D01*
X104200000Y-118050000D02*
X93920000Y-118050000D01*
X93920000Y-118050000D02*
X93920000Y-123250000D01*
X101600000Y-123250000D02*
X93920000Y-123250000D01*
X101600000Y-120650000D02*
X101600000Y-123250000D01*
X104200000Y-120650000D02*
X101600000Y-120650000D01*
X104200000Y-123250000D02*
X102870000Y-123250000D01*
X104200000Y-121920000D02*
X104200000Y-123250000D01*
G04 #@! TO.C,J6*
X156380000Y-60900000D02*
X156380000Y-71180000D01*
X156380000Y-71180000D02*
X159040000Y-71180000D01*
X159040000Y-71180000D02*
X159040000Y-60900000D01*
X159040000Y-60900000D02*
X156380000Y-60900000D01*
X159040000Y-61850000D02*
X165040000Y-61850000D01*
X165040000Y-61850000D02*
X165040000Y-62610000D01*
X165040000Y-62610000D02*
X159040000Y-62610000D01*
X159040000Y-61910000D02*
X165040000Y-61910000D01*
X159040000Y-62030000D02*
X165040000Y-62030000D01*
X159040000Y-62150000D02*
X165040000Y-62150000D01*
X159040000Y-62270000D02*
X165040000Y-62270000D01*
X159040000Y-62390000D02*
X165040000Y-62390000D01*
X159040000Y-62510000D02*
X165040000Y-62510000D01*
X155982929Y-61850000D02*
X156380000Y-61850000D01*
X155982929Y-62610000D02*
X156380000Y-62610000D01*
X153510000Y-61850000D02*
X153897071Y-61850000D01*
X153510000Y-62610000D02*
X153897071Y-62610000D01*
X156380000Y-63500000D02*
X159040000Y-63500000D01*
X159040000Y-64390000D02*
X165040000Y-64390000D01*
X165040000Y-64390000D02*
X165040000Y-65150000D01*
X165040000Y-65150000D02*
X159040000Y-65150000D01*
X155982929Y-64390000D02*
X156380000Y-64390000D01*
X155982929Y-65150000D02*
X156380000Y-65150000D01*
X153442929Y-64390000D02*
X153897071Y-64390000D01*
X153442929Y-65150000D02*
X153897071Y-65150000D01*
X156380000Y-66040000D02*
X159040000Y-66040000D01*
X159040000Y-66930000D02*
X165040000Y-66930000D01*
X165040000Y-66930000D02*
X165040000Y-67690000D01*
X165040000Y-67690000D02*
X159040000Y-67690000D01*
X155982929Y-66930000D02*
X156380000Y-66930000D01*
X155982929Y-67690000D02*
X156380000Y-67690000D01*
X153442929Y-66930000D02*
X153897071Y-66930000D01*
X153442929Y-67690000D02*
X153897071Y-67690000D01*
X156380000Y-68580000D02*
X159040000Y-68580000D01*
X159040000Y-69470000D02*
X165040000Y-69470000D01*
X165040000Y-69470000D02*
X165040000Y-70230000D01*
X165040000Y-70230000D02*
X159040000Y-70230000D01*
X155982929Y-69470000D02*
X156380000Y-69470000D01*
X155982929Y-70230000D02*
X156380000Y-70230000D01*
X153442929Y-69470000D02*
X153897071Y-69470000D01*
X153442929Y-70230000D02*
X153897071Y-70230000D01*
X151130000Y-62230000D02*
X151130000Y-60960000D01*
X151130000Y-60960000D02*
X152400000Y-60960000D01*
G04 #@! TO.C,J7*
X156380000Y-88840000D02*
X156380000Y-99120000D01*
X156380000Y-99120000D02*
X159040000Y-99120000D01*
X159040000Y-99120000D02*
X159040000Y-88840000D01*
X159040000Y-88840000D02*
X156380000Y-88840000D01*
X159040000Y-89790000D02*
X165040000Y-89790000D01*
X165040000Y-89790000D02*
X165040000Y-90550000D01*
X165040000Y-90550000D02*
X159040000Y-90550000D01*
X159040000Y-89850000D02*
X165040000Y-89850000D01*
X159040000Y-89970000D02*
X165040000Y-89970000D01*
X159040000Y-90090000D02*
X165040000Y-90090000D01*
X159040000Y-90210000D02*
X165040000Y-90210000D01*
X159040000Y-90330000D02*
X165040000Y-90330000D01*
X159040000Y-90450000D02*
X165040000Y-90450000D01*
X155982929Y-89790000D02*
X156380000Y-89790000D01*
X155982929Y-90550000D02*
X156380000Y-90550000D01*
X153510000Y-89790000D02*
X153897071Y-89790000D01*
X153510000Y-90550000D02*
X153897071Y-90550000D01*
X156380000Y-91440000D02*
X159040000Y-91440000D01*
X159040000Y-92330000D02*
X165040000Y-92330000D01*
X165040000Y-92330000D02*
X165040000Y-93090000D01*
X165040000Y-93090000D02*
X159040000Y-93090000D01*
X155982929Y-92330000D02*
X156380000Y-92330000D01*
X155982929Y-93090000D02*
X156380000Y-93090000D01*
X153442929Y-92330000D02*
X153897071Y-92330000D01*
X153442929Y-93090000D02*
X153897071Y-93090000D01*
X156380000Y-93980000D02*
X159040000Y-93980000D01*
X159040000Y-94870000D02*
X165040000Y-94870000D01*
X165040000Y-94870000D02*
X165040000Y-95630000D01*
X165040000Y-95630000D02*
X159040000Y-95630000D01*
X155982929Y-94870000D02*
X156380000Y-94870000D01*
X155982929Y-95630000D02*
X156380000Y-95630000D01*
X153442929Y-94870000D02*
X153897071Y-94870000D01*
X153442929Y-95630000D02*
X153897071Y-95630000D01*
X156380000Y-96520000D02*
X159040000Y-96520000D01*
X159040000Y-97410000D02*
X165040000Y-97410000D01*
X165040000Y-97410000D02*
X165040000Y-98170000D01*
X165040000Y-98170000D02*
X159040000Y-98170000D01*
X155982929Y-97410000D02*
X156380000Y-97410000D01*
X155982929Y-98170000D02*
X156380000Y-98170000D01*
X153442929Y-97410000D02*
X153897071Y-97410000D01*
X153442929Y-98170000D02*
X153897071Y-98170000D01*
X151130000Y-90170000D02*
X151130000Y-88900000D01*
X151130000Y-88900000D02*
X152400000Y-88900000D01*
G04 #@! TO.C,J9*
X151130000Y-74930000D02*
X152400000Y-74930000D01*
X151130000Y-76200000D02*
X151130000Y-74930000D01*
X153442929Y-84200000D02*
X153897071Y-84200000D01*
X153442929Y-83440000D02*
X153897071Y-83440000D01*
X155982929Y-84200000D02*
X156380000Y-84200000D01*
X155982929Y-83440000D02*
X156380000Y-83440000D01*
X165040000Y-84200000D02*
X159040000Y-84200000D01*
X165040000Y-83440000D02*
X165040000Y-84200000D01*
X159040000Y-83440000D02*
X165040000Y-83440000D01*
X156380000Y-82550000D02*
X159040000Y-82550000D01*
X153442929Y-81660000D02*
X153897071Y-81660000D01*
X153442929Y-80900000D02*
X153897071Y-80900000D01*
X155982929Y-81660000D02*
X156380000Y-81660000D01*
X155982929Y-80900000D02*
X156380000Y-80900000D01*
X165040000Y-81660000D02*
X159040000Y-81660000D01*
X165040000Y-80900000D02*
X165040000Y-81660000D01*
X159040000Y-80900000D02*
X165040000Y-80900000D01*
X156380000Y-80010000D02*
X159040000Y-80010000D01*
X153442929Y-79120000D02*
X153897071Y-79120000D01*
X153442929Y-78360000D02*
X153897071Y-78360000D01*
X155982929Y-79120000D02*
X156380000Y-79120000D01*
X155982929Y-78360000D02*
X156380000Y-78360000D01*
X165040000Y-79120000D02*
X159040000Y-79120000D01*
X165040000Y-78360000D02*
X165040000Y-79120000D01*
X159040000Y-78360000D02*
X165040000Y-78360000D01*
X156380000Y-77470000D02*
X159040000Y-77470000D01*
X153510000Y-76580000D02*
X153897071Y-76580000D01*
X153510000Y-75820000D02*
X153897071Y-75820000D01*
X155982929Y-76580000D02*
X156380000Y-76580000D01*
X155982929Y-75820000D02*
X156380000Y-75820000D01*
X159040000Y-76480000D02*
X165040000Y-76480000D01*
X159040000Y-76360000D02*
X165040000Y-76360000D01*
X159040000Y-76240000D02*
X165040000Y-76240000D01*
X159040000Y-76120000D02*
X165040000Y-76120000D01*
X159040000Y-76000000D02*
X165040000Y-76000000D01*
X159040000Y-75880000D02*
X165040000Y-75880000D01*
X165040000Y-76580000D02*
X159040000Y-76580000D01*
X165040000Y-75820000D02*
X165040000Y-76580000D01*
X159040000Y-75820000D02*
X165040000Y-75820000D01*
X159040000Y-74870000D02*
X156380000Y-74870000D01*
X159040000Y-85150000D02*
X159040000Y-74870000D01*
X156380000Y-85150000D02*
X159040000Y-85150000D01*
X156380000Y-74870000D02*
X156380000Y-85150000D01*
G04 #@! TO.C,J10*
X140395000Y-51375000D02*
X137735000Y-51375000D01*
X140395000Y-56515000D02*
X140395000Y-51375000D01*
X137735000Y-56515000D02*
X137735000Y-51375000D01*
X140395000Y-56515000D02*
X137735000Y-56515000D01*
X140395000Y-57785000D02*
X140395000Y-59115000D01*
X140395000Y-59115000D02*
X139065000Y-59115000D01*
G04 #@! TO.C,J11*
X151130000Y-102870000D02*
X152400000Y-102870000D01*
X151130000Y-104140000D02*
X151130000Y-102870000D01*
X153442929Y-112140000D02*
X153897071Y-112140000D01*
X153442929Y-111380000D02*
X153897071Y-111380000D01*
X155982929Y-112140000D02*
X156380000Y-112140000D01*
X155982929Y-111380000D02*
X156380000Y-111380000D01*
X165040000Y-112140000D02*
X159040000Y-112140000D01*
X165040000Y-111380000D02*
X165040000Y-112140000D01*
X159040000Y-111380000D02*
X165040000Y-111380000D01*
X156380000Y-110490000D02*
X159040000Y-110490000D01*
X153442929Y-109600000D02*
X153897071Y-109600000D01*
X153442929Y-108840000D02*
X153897071Y-108840000D01*
X155982929Y-109600000D02*
X156380000Y-109600000D01*
X155982929Y-108840000D02*
X156380000Y-108840000D01*
X165040000Y-109600000D02*
X159040000Y-109600000D01*
X165040000Y-108840000D02*
X165040000Y-109600000D01*
X159040000Y-108840000D02*
X165040000Y-108840000D01*
X156380000Y-107950000D02*
X159040000Y-107950000D01*
X153442929Y-107060000D02*
X153897071Y-107060000D01*
X153442929Y-106300000D02*
X153897071Y-106300000D01*
X155982929Y-107060000D02*
X156380000Y-107060000D01*
X155982929Y-106300000D02*
X156380000Y-106300000D01*
X165040000Y-107060000D02*
X159040000Y-107060000D01*
X165040000Y-106300000D02*
X165040000Y-107060000D01*
X159040000Y-106300000D02*
X165040000Y-106300000D01*
X156380000Y-105410000D02*
X159040000Y-105410000D01*
X153510000Y-104520000D02*
X153897071Y-104520000D01*
X153510000Y-103760000D02*
X153897071Y-103760000D01*
X155982929Y-104520000D02*
X156380000Y-104520000D01*
X155982929Y-103760000D02*
X156380000Y-103760000D01*
X159040000Y-104420000D02*
X165040000Y-104420000D01*
X159040000Y-104300000D02*
X165040000Y-104300000D01*
X159040000Y-104180000D02*
X165040000Y-104180000D01*
X159040000Y-104060000D02*
X165040000Y-104060000D01*
X159040000Y-103940000D02*
X165040000Y-103940000D01*
X159040000Y-103820000D02*
X165040000Y-103820000D01*
X165040000Y-104520000D02*
X159040000Y-104520000D01*
X165040000Y-103760000D02*
X165040000Y-104520000D01*
X159040000Y-103760000D02*
X165040000Y-103760000D01*
X159040000Y-102810000D02*
X156380000Y-102810000D01*
X159040000Y-113090000D02*
X159040000Y-102810000D01*
X156380000Y-113090000D02*
X159040000Y-113090000D01*
X156380000Y-102810000D02*
X156380000Y-113090000D01*
G04 #@! TO.C,R1*
X114395000Y-115340000D02*
X114395000Y-115670000D01*
X114395000Y-115670000D02*
X107855000Y-115670000D01*
X107855000Y-115670000D02*
X107855000Y-115340000D01*
X114395000Y-113260000D02*
X114395000Y-112930000D01*
X114395000Y-112930000D02*
X107855000Y-112930000D01*
X107855000Y-112930000D02*
X107855000Y-113260000D01*
G04 #@! TO.C,R2*
X97060000Y-112930000D02*
X97060000Y-113260000D01*
X103600000Y-112930000D02*
X97060000Y-112930000D01*
X103600000Y-113260000D02*
X103600000Y-112930000D01*
X97060000Y-115670000D02*
X97060000Y-115340000D01*
X103600000Y-115670000D02*
X97060000Y-115670000D01*
X103600000Y-115340000D02*
X103600000Y-115670000D01*
G04 #@! TO.C,R3*
X132456422Y-59384000D02*
X132973578Y-59384000D01*
X132456422Y-57964000D02*
X132973578Y-57964000D01*
G04 #@! TO.C,R4*
X136901422Y-82475000D02*
X137418578Y-82475000D01*
X136901422Y-83895000D02*
X137418578Y-83895000D01*
D16*
G04 #@! TO.C,U1*
X105390000Y-52050000D02*
X115490000Y-52050000D01*
X115590000Y-55740000D02*
X115590000Y-55340000D01*
X115590000Y-55740000D02*
X115190000Y-55740000D01*
X105390000Y-55740000D02*
X105390000Y-51340000D01*
X105390000Y-55740000D02*
X105790000Y-55740000D01*
X105390000Y-50940000D02*
X105390000Y-51340000D01*
X105390000Y-50940000D02*
X105790000Y-50940000D01*
X115190000Y-50940000D02*
X115590000Y-50940000D01*
X115590000Y-50940000D02*
X115590000Y-51340000D01*
D12*
G04 #@! TO.C,U2*
X118015000Y-79915000D02*
X118015000Y-80490000D01*
X128365000Y-79915000D02*
X128365000Y-80590000D01*
X128365000Y-90265000D02*
X128365000Y-89590000D01*
X118015000Y-90265000D02*
X118015000Y-89590000D01*
X118015000Y-79915000D02*
X118690000Y-79915000D01*
X118015000Y-90265000D02*
X118690000Y-90265000D01*
X128365000Y-90265000D02*
X127690000Y-90265000D01*
X128365000Y-79915000D02*
X127690000Y-79915000D01*
X118015000Y-80490000D02*
X116740000Y-80490000D01*
D16*
G04 #@! TO.C,U3*
X121185000Y-56195000D02*
X121185000Y-56670000D01*
X121185000Y-56670000D02*
X121485000Y-56995000D01*
X121485000Y-56995000D02*
X121485000Y-57190000D01*
X127735000Y-56520000D02*
X127735000Y-56995000D01*
X127735000Y-56995000D02*
X127285000Y-56995000D01*
X121685000Y-53445000D02*
X121185000Y-53445000D01*
X121185000Y-53445000D02*
X121185000Y-53845000D01*
X127360000Y-53445000D02*
X127735000Y-53445000D01*
X127735000Y-53445000D02*
X127735000Y-53745000D01*
D10*
G04 #@! TO.C,Y1*
X106695000Y-89585000D02*
X106695000Y-83335000D01*
X111745000Y-89585000D02*
X111745000Y-83335000D01*
X111745000Y-89585000D02*
G75*
G02X106695000Y-89585000I-2525000J0D01*
G01*
X111745000Y-83335000D02*
G75*
G03X106695000Y-83335000I-2525000J0D01*
G01*
G04 #@! TO.C,J1*
X101430000Y-49590000D02*
X101430000Y-48540000D01*
X100380000Y-48540000D02*
X101430000Y-48540000D01*
X95330000Y-57940000D02*
X86530000Y-57940000D01*
X86530000Y-57940000D02*
X86530000Y-48740000D01*
X101230000Y-55240000D02*
X101230000Y-57940000D01*
X101230000Y-57940000D02*
X99330000Y-57940000D01*
X86530000Y-48740000D02*
X101230000Y-48740000D01*
X101230000Y-48740000D02*
X101230000Y-51340000D01*
G04 #@! TO.C,J8*
X138430000Y-113030000D02*
X137160000Y-113030000D01*
X138430000Y-114300000D02*
X138430000Y-113030000D01*
X142510000Y-127780000D02*
X126730000Y-127780000D01*
X142510000Y-118430000D02*
X142510000Y-127780000D01*
X136870000Y-118430000D02*
X136870000Y-127780000D01*
X126730000Y-118430000D02*
X126730000Y-127780000D01*
X126730000Y-118430000D02*
X142510000Y-118430000D01*
X132370000Y-118430000D02*
X132370000Y-127780000D01*
G04 #@! TO.C,RV1*
X103521863Y-107450075D02*
G75*
G02X101980000Y-107094000I-56863J3270075D01*
G01*
X100551613Y-105665202D02*
G75*
G02X100551000Y-102696000I2913387J1485202D01*
G01*
X101981032Y-101266171D02*
G75*
G02X106557000Y-103116000I1483968J-2913829D01*
G01*
X106556846Y-105244608D02*
G75*
G02X103465000Y-107450000I-3091846J1064608D01*
G01*
G04 #@! TO.C,RV2*
X128781846Y-68414608D02*
G75*
G02X125690000Y-70620000I-3091846J1064608D01*
G01*
X124206032Y-64436171D02*
G75*
G02X128782000Y-66286000I1483968J-2913829D01*
G01*
X122776613Y-68835202D02*
G75*
G02X122776000Y-65866000I2913387J1485202D01*
G01*
X125746863Y-70620075D02*
G75*
G02X124205000Y-70264000I-56863J3270075D01*
G01*
G04 #@! TO.C,SW1*
X151495000Y-57570000D02*
X155995000Y-57570000D01*
X150245000Y-53570000D02*
X150245000Y-55070000D01*
X155995000Y-51070000D02*
X151495000Y-51070000D01*
X157245000Y-55070000D02*
X157245000Y-53570000D01*
G04 #@! TO.C,J12*
X152340000Y-120650000D02*
X155000000Y-120650000D01*
X152340000Y-120650000D02*
X152340000Y-125790000D01*
X152340000Y-125790000D02*
X155000000Y-125790000D01*
X155000000Y-120650000D02*
X155000000Y-125790000D01*
X155000000Y-118050000D02*
X155000000Y-119380000D01*
X153670000Y-118050000D02*
X155000000Y-118050000D01*
G04 #@! TO.C,J13*
X149225000Y-116780000D02*
X150555000Y-116780000D01*
X150555000Y-116780000D02*
X150555000Y-118110000D01*
X147955000Y-116780000D02*
X147955000Y-119380000D01*
X147955000Y-119380000D02*
X150555000Y-119380000D01*
X150555000Y-119380000D02*
X150555000Y-127060000D01*
X145355000Y-127060000D02*
X150555000Y-127060000D01*
X145355000Y-116780000D02*
X145355000Y-127060000D01*
X145355000Y-116780000D02*
X147955000Y-116780000D01*
G04 #@! TD*
G04 #@! TO.C,C1*
D12*
X113132142Y-95084166D02*
X113179761Y-95131785D01*
X113227380Y-95274642D01*
X113227380Y-95369880D01*
X113179761Y-95512738D01*
X113084523Y-95607976D01*
X112989285Y-95655595D01*
X112798809Y-95703214D01*
X112655952Y-95703214D01*
X112465476Y-95655595D01*
X112370238Y-95607976D01*
X112275000Y-95512738D01*
X112227380Y-95369880D01*
X112227380Y-95274642D01*
X112275000Y-95131785D01*
X112322619Y-95084166D01*
X113227380Y-94131785D02*
X113227380Y-94703214D01*
X113227380Y-94417500D02*
X112227380Y-94417500D01*
X112370238Y-94512738D01*
X112465476Y-94607976D01*
X112513095Y-94703214D01*
G04 #@! TO.C,C2*
X106402142Y-95416666D02*
X106449761Y-95464285D01*
X106497380Y-95607142D01*
X106497380Y-95702380D01*
X106449761Y-95845238D01*
X106354523Y-95940476D01*
X106259285Y-95988095D01*
X106068809Y-96035714D01*
X105925952Y-96035714D01*
X105735476Y-95988095D01*
X105640238Y-95940476D01*
X105545000Y-95845238D01*
X105497380Y-95702380D01*
X105497380Y-95607142D01*
X105545000Y-95464285D01*
X105592619Y-95416666D01*
X105592619Y-95035714D02*
X105545000Y-94988095D01*
X105497380Y-94892857D01*
X105497380Y-94654761D01*
X105545000Y-94559523D01*
X105592619Y-94511904D01*
X105687857Y-94464285D01*
X105783095Y-94464285D01*
X105925952Y-94511904D01*
X106497380Y-95083333D01*
X106497380Y-94464285D01*
G04 #@! TO.C,C3*
X105243333Y-70207142D02*
X105195714Y-70254761D01*
X105052857Y-70302380D01*
X104957619Y-70302380D01*
X104814761Y-70254761D01*
X104719523Y-70159523D01*
X104671904Y-70064285D01*
X104624285Y-69873809D01*
X104624285Y-69730952D01*
X104671904Y-69540476D01*
X104719523Y-69445238D01*
X104814761Y-69350000D01*
X104957619Y-69302380D01*
X105052857Y-69302380D01*
X105195714Y-69350000D01*
X105243333Y-69397619D01*
X105576666Y-69302380D02*
X106195714Y-69302380D01*
X105862380Y-69683333D01*
X106005238Y-69683333D01*
X106100476Y-69730952D01*
X106148095Y-69778571D01*
X106195714Y-69873809D01*
X106195714Y-70111904D01*
X106148095Y-70207142D01*
X106100476Y-70254761D01*
X106005238Y-70302380D01*
X105719523Y-70302380D01*
X105624285Y-70254761D01*
X105576666Y-70207142D01*
G04 #@! TO.C,C4*
X114133333Y-71477142D02*
X114085714Y-71524761D01*
X113942857Y-71572380D01*
X113847619Y-71572380D01*
X113704761Y-71524761D01*
X113609523Y-71429523D01*
X113561904Y-71334285D01*
X113514285Y-71143809D01*
X113514285Y-71000952D01*
X113561904Y-70810476D01*
X113609523Y-70715238D01*
X113704761Y-70620000D01*
X113847619Y-70572380D01*
X113942857Y-70572380D01*
X114085714Y-70620000D01*
X114133333Y-70667619D01*
X114990476Y-70905714D02*
X114990476Y-71572380D01*
X114752380Y-70524761D02*
X114514285Y-71239047D01*
X115133333Y-71239047D01*
G04 #@! TO.C,C5*
X116817142Y-57649166D02*
X116864761Y-57696785D01*
X116912380Y-57839642D01*
X116912380Y-57934880D01*
X116864761Y-58077738D01*
X116769523Y-58172976D01*
X116674285Y-58220595D01*
X116483809Y-58268214D01*
X116340952Y-58268214D01*
X116150476Y-58220595D01*
X116055238Y-58172976D01*
X115960000Y-58077738D01*
X115912380Y-57934880D01*
X115912380Y-57839642D01*
X115960000Y-57696785D01*
X116007619Y-57649166D01*
X115912380Y-56744404D02*
X115912380Y-57220595D01*
X116388571Y-57268214D01*
X116340952Y-57220595D01*
X116293333Y-57125357D01*
X116293333Y-56887261D01*
X116340952Y-56792023D01*
X116388571Y-56744404D01*
X116483809Y-56696785D01*
X116721904Y-56696785D01*
X116817142Y-56744404D01*
X116864761Y-56792023D01*
X116912380Y-56887261D01*
X116912380Y-57125357D01*
X116864761Y-57220595D01*
X116817142Y-57268214D01*
G04 #@! TO.C,C6*
X116817142Y-53174166D02*
X116864761Y-53221785D01*
X116912380Y-53364642D01*
X116912380Y-53459880D01*
X116864761Y-53602738D01*
X116769523Y-53697976D01*
X116674285Y-53745595D01*
X116483809Y-53793214D01*
X116340952Y-53793214D01*
X116150476Y-53745595D01*
X116055238Y-53697976D01*
X115960000Y-53602738D01*
X115912380Y-53459880D01*
X115912380Y-53364642D01*
X115960000Y-53221785D01*
X116007619Y-53174166D01*
X115912380Y-52317023D02*
X115912380Y-52507500D01*
X115960000Y-52602738D01*
X116007619Y-52650357D01*
X116150476Y-52745595D01*
X116340952Y-52793214D01*
X116721904Y-52793214D01*
X116817142Y-52745595D01*
X116864761Y-52697976D01*
X116912380Y-52602738D01*
X116912380Y-52412261D01*
X116864761Y-52317023D01*
X116817142Y-52269404D01*
X116721904Y-52221785D01*
X116483809Y-52221785D01*
X116388571Y-52269404D01*
X116340952Y-52317023D01*
X116293333Y-52412261D01*
X116293333Y-52602738D01*
X116340952Y-52697976D01*
X116388571Y-52745595D01*
X116483809Y-52793214D01*
G04 #@! TO.C,D1*
X131976904Y-51467380D02*
X131976904Y-50467380D01*
X132215000Y-50467380D01*
X132357857Y-50515000D01*
X132453095Y-50610238D01*
X132500714Y-50705476D01*
X132548333Y-50895952D01*
X132548333Y-51038809D01*
X132500714Y-51229285D01*
X132453095Y-51324523D01*
X132357857Y-51419761D01*
X132215000Y-51467380D01*
X131976904Y-51467380D01*
X133500714Y-51467380D02*
X132929285Y-51467380D01*
X133215000Y-51467380D02*
X133215000Y-50467380D01*
X133119761Y-50610238D01*
X133024523Y-50705476D01*
X132929285Y-50753095D01*
G04 #@! TO.C,D2*
X137056904Y-76232380D02*
X137056904Y-75232380D01*
X137295000Y-75232380D01*
X137437857Y-75280000D01*
X137533095Y-75375238D01*
X137580714Y-75470476D01*
X137628333Y-75660952D01*
X137628333Y-75803809D01*
X137580714Y-75994285D01*
X137533095Y-76089523D01*
X137437857Y-76184761D01*
X137295000Y-76232380D01*
X137056904Y-76232380D01*
X138009285Y-75327619D02*
X138056904Y-75280000D01*
X138152142Y-75232380D01*
X138390238Y-75232380D01*
X138485476Y-75280000D01*
X138533095Y-75327619D01*
X138580714Y-75422857D01*
X138580714Y-75518095D01*
X138533095Y-75660952D01*
X137961666Y-76232380D01*
X138580714Y-76232380D01*
G04 #@! TO.C,J2*
X146518380Y-55959333D02*
X147232666Y-55959333D01*
X147375523Y-56006952D01*
X147470761Y-56102190D01*
X147518380Y-56245047D01*
X147518380Y-56340285D01*
X146613619Y-55530761D02*
X146566000Y-55483142D01*
X146518380Y-55387904D01*
X146518380Y-55149809D01*
X146566000Y-55054571D01*
X146613619Y-55006952D01*
X146708857Y-54959333D01*
X146804095Y-54959333D01*
X146946952Y-55006952D01*
X147518380Y-55578380D01*
X147518380Y-54959333D01*
G04 #@! TO.C,J3*
X108886666Y-118197380D02*
X108886666Y-118911666D01*
X108839047Y-119054523D01*
X108743809Y-119149761D01*
X108600952Y-119197380D01*
X108505714Y-119197380D01*
X109267619Y-118197380D02*
X109886666Y-118197380D01*
X109553333Y-118578333D01*
X109696190Y-118578333D01*
X109791428Y-118625952D01*
X109839047Y-118673571D01*
X109886666Y-118768809D01*
X109886666Y-119006904D01*
X109839047Y-119102142D01*
X109791428Y-119149761D01*
X109696190Y-119197380D01*
X109410476Y-119197380D01*
X109315238Y-119149761D01*
X109267619Y-119102142D01*
G04 #@! TO.C,J4*
X94916666Y-108902380D02*
X94916666Y-109616666D01*
X94869047Y-109759523D01*
X94773809Y-109854761D01*
X94630952Y-109902380D01*
X94535714Y-109902380D01*
X95821428Y-109235714D02*
X95821428Y-109902380D01*
X95583333Y-108854761D02*
X95345238Y-109569047D01*
X95964285Y-109569047D01*
G04 #@! TO.C,J5*
X105092380Y-120983333D02*
X105806666Y-120983333D01*
X105949523Y-121030952D01*
X106044761Y-121126190D01*
X106092380Y-121269047D01*
X106092380Y-121364285D01*
X105092380Y-120030952D02*
X105092380Y-120507142D01*
X105568571Y-120554761D01*
X105520952Y-120507142D01*
X105473333Y-120411904D01*
X105473333Y-120173809D01*
X105520952Y-120078571D01*
X105568571Y-120030952D01*
X105663809Y-119983333D01*
X105901904Y-119983333D01*
X105997142Y-120030952D01*
X106044761Y-120078571D01*
X106092380Y-120173809D01*
X106092380Y-120411904D01*
X106044761Y-120507142D01*
X105997142Y-120554761D01*
G04 #@! TO.C,J6*
X157721666Y-59412380D02*
X157721666Y-60126666D01*
X157674047Y-60269523D01*
X157578809Y-60364761D01*
X157435952Y-60412380D01*
X157340714Y-60412380D01*
X158626428Y-59412380D02*
X158435952Y-59412380D01*
X158340714Y-59460000D01*
X158293095Y-59507619D01*
X158197857Y-59650476D01*
X158150238Y-59840952D01*
X158150238Y-60221904D01*
X158197857Y-60317142D01*
X158245476Y-60364761D01*
X158340714Y-60412380D01*
X158531190Y-60412380D01*
X158626428Y-60364761D01*
X158674047Y-60317142D01*
X158721666Y-60221904D01*
X158721666Y-59983809D01*
X158674047Y-59888571D01*
X158626428Y-59840952D01*
X158531190Y-59793333D01*
X158340714Y-59793333D01*
X158245476Y-59840952D01*
X158197857Y-59888571D01*
X158150238Y-59983809D01*
G04 #@! TO.C,J7*
X157721666Y-87352380D02*
X157721666Y-88066666D01*
X157674047Y-88209523D01*
X157578809Y-88304761D01*
X157435952Y-88352380D01*
X157340714Y-88352380D01*
X158102619Y-87352380D02*
X158769285Y-87352380D01*
X158340714Y-88352380D01*
G04 #@! TO.C,J9*
X157721666Y-73382380D02*
X157721666Y-74096666D01*
X157674047Y-74239523D01*
X157578809Y-74334761D01*
X157435952Y-74382380D01*
X157340714Y-74382380D01*
X158245476Y-74382380D02*
X158435952Y-74382380D01*
X158531190Y-74334761D01*
X158578809Y-74287142D01*
X158674047Y-74144285D01*
X158721666Y-73953809D01*
X158721666Y-73572857D01*
X158674047Y-73477619D01*
X158626428Y-73430000D01*
X158531190Y-73382380D01*
X158340714Y-73382380D01*
X158245476Y-73430000D01*
X158197857Y-73477619D01*
X158150238Y-73572857D01*
X158150238Y-73810952D01*
X158197857Y-73906190D01*
X158245476Y-73953809D01*
X158340714Y-74001428D01*
X158531190Y-74001428D01*
X158626428Y-73953809D01*
X158674047Y-73906190D01*
X158721666Y-73810952D01*
G04 #@! TO.C,J10*
X140676380Y-56689523D02*
X141390666Y-56689523D01*
X141533523Y-56737142D01*
X141628761Y-56832380D01*
X141676380Y-56975238D01*
X141676380Y-57070476D01*
X141676380Y-55689523D02*
X141676380Y-56260952D01*
X141676380Y-55975238D02*
X140676380Y-55975238D01*
X140819238Y-56070476D01*
X140914476Y-56165714D01*
X140962095Y-56260952D01*
X140676380Y-55070476D02*
X140676380Y-54975238D01*
X140724000Y-54880000D01*
X140771619Y-54832380D01*
X140866857Y-54784761D01*
X141057333Y-54737142D01*
X141295428Y-54737142D01*
X141485904Y-54784761D01*
X141581142Y-54832380D01*
X141628761Y-54880000D01*
X141676380Y-54975238D01*
X141676380Y-55070476D01*
X141628761Y-55165714D01*
X141581142Y-55213333D01*
X141485904Y-55260952D01*
X141295428Y-55308571D01*
X141057333Y-55308571D01*
X140866857Y-55260952D01*
X140771619Y-55213333D01*
X140724000Y-55165714D01*
X140676380Y-55070476D01*
G04 #@! TO.C,J11*
X157245476Y-101322380D02*
X157245476Y-102036666D01*
X157197857Y-102179523D01*
X157102619Y-102274761D01*
X156959761Y-102322380D01*
X156864523Y-102322380D01*
X158245476Y-102322380D02*
X157674047Y-102322380D01*
X157959761Y-102322380D02*
X157959761Y-101322380D01*
X157864523Y-101465238D01*
X157769285Y-101560476D01*
X157674047Y-101608095D01*
X159197857Y-102322380D02*
X158626428Y-102322380D01*
X158912142Y-102322380D02*
X158912142Y-101322380D01*
X158816904Y-101465238D01*
X158721666Y-101560476D01*
X158626428Y-101608095D01*
G04 #@! TO.C,R1*
X110958333Y-117122380D02*
X110625000Y-116646190D01*
X110386904Y-117122380D02*
X110386904Y-116122380D01*
X110767857Y-116122380D01*
X110863095Y-116170000D01*
X110910714Y-116217619D01*
X110958333Y-116312857D01*
X110958333Y-116455714D01*
X110910714Y-116550952D01*
X110863095Y-116598571D01*
X110767857Y-116646190D01*
X110386904Y-116646190D01*
X111910714Y-117122380D02*
X111339285Y-117122380D01*
X111625000Y-117122380D02*
X111625000Y-116122380D01*
X111529761Y-116265238D01*
X111434523Y-116360476D01*
X111339285Y-116408095D01*
G04 #@! TO.C,R2*
X100163333Y-117122380D02*
X99830000Y-116646190D01*
X99591904Y-117122380D02*
X99591904Y-116122380D01*
X99972857Y-116122380D01*
X100068095Y-116170000D01*
X100115714Y-116217619D01*
X100163333Y-116312857D01*
X100163333Y-116455714D01*
X100115714Y-116550952D01*
X100068095Y-116598571D01*
X99972857Y-116646190D01*
X99591904Y-116646190D01*
X100544285Y-116217619D02*
X100591904Y-116170000D01*
X100687142Y-116122380D01*
X100925238Y-116122380D01*
X101020476Y-116170000D01*
X101068095Y-116217619D01*
X101115714Y-116312857D01*
X101115714Y-116408095D01*
X101068095Y-116550952D01*
X100496666Y-117122380D01*
X101115714Y-117122380D01*
G04 #@! TO.C,R3*
X135580380Y-58840666D02*
X135104190Y-59174000D01*
X135580380Y-59412095D02*
X134580380Y-59412095D01*
X134580380Y-59031142D01*
X134628000Y-58935904D01*
X134675619Y-58888285D01*
X134770857Y-58840666D01*
X134913714Y-58840666D01*
X135008952Y-58888285D01*
X135056571Y-58935904D01*
X135104190Y-59031142D01*
X135104190Y-59412095D01*
X134580380Y-58507333D02*
X134580380Y-57888285D01*
X134961333Y-58221619D01*
X134961333Y-58078761D01*
X135008952Y-57983523D01*
X135056571Y-57935904D01*
X135151809Y-57888285D01*
X135389904Y-57888285D01*
X135485142Y-57935904D01*
X135532761Y-57983523D01*
X135580380Y-58078761D01*
X135580380Y-58364476D01*
X135532761Y-58459714D01*
X135485142Y-58507333D01*
G04 #@! TO.C,R4*
X139835833Y-83637380D02*
X139502500Y-83161190D01*
X139264404Y-83637380D02*
X139264404Y-82637380D01*
X139645357Y-82637380D01*
X139740595Y-82685000D01*
X139788214Y-82732619D01*
X139835833Y-82827857D01*
X139835833Y-82970714D01*
X139788214Y-83065952D01*
X139740595Y-83113571D01*
X139645357Y-83161190D01*
X139264404Y-83161190D01*
X140692976Y-82970714D02*
X140692976Y-83637380D01*
X140454880Y-82589761D02*
X140216785Y-83304047D01*
X140835833Y-83304047D01*
G04 #@! TO.C,U1*
X109808095Y-49572380D02*
X109808095Y-50381904D01*
X109855714Y-50477142D01*
X109903333Y-50524761D01*
X109998571Y-50572380D01*
X110189047Y-50572380D01*
X110284285Y-50524761D01*
X110331904Y-50477142D01*
X110379523Y-50381904D01*
X110379523Y-49572380D01*
X111379523Y-50572380D02*
X110808095Y-50572380D01*
X111093809Y-50572380D02*
X111093809Y-49572380D01*
X110998571Y-49715238D01*
X110903333Y-49810476D01*
X110808095Y-49858095D01*
G04 #@! TO.C,U2*
X122428095Y-77092380D02*
X122428095Y-77901904D01*
X122475714Y-77997142D01*
X122523333Y-78044761D01*
X122618571Y-78092380D01*
X122809047Y-78092380D01*
X122904285Y-78044761D01*
X122951904Y-77997142D01*
X122999523Y-77901904D01*
X122999523Y-77092380D01*
X123428095Y-77187619D02*
X123475714Y-77140000D01*
X123570952Y-77092380D01*
X123809047Y-77092380D01*
X123904285Y-77140000D01*
X123951904Y-77187619D01*
X123999523Y-77282857D01*
X123999523Y-77378095D01*
X123951904Y-77520952D01*
X123380476Y-78092380D01*
X123999523Y-78092380D01*
G04 #@! TO.C,U3*
X123698095Y-48572380D02*
X123698095Y-49381904D01*
X123745714Y-49477142D01*
X123793333Y-49524761D01*
X123888571Y-49572380D01*
X124079047Y-49572380D01*
X124174285Y-49524761D01*
X124221904Y-49477142D01*
X124269523Y-49381904D01*
X124269523Y-48572380D01*
X124650476Y-48572380D02*
X125269523Y-48572380D01*
X124936190Y-48953333D01*
X125079047Y-48953333D01*
X125174285Y-49000952D01*
X125221904Y-49048571D01*
X125269523Y-49143809D01*
X125269523Y-49381904D01*
X125221904Y-49477142D01*
X125174285Y-49524761D01*
X125079047Y-49572380D01*
X124793333Y-49572380D01*
X124698095Y-49524761D01*
X124650476Y-49477142D01*
G04 #@! TO.C,Y1*
X105671190Y-86936190D02*
X106147380Y-86936190D01*
X105147380Y-87269523D02*
X105671190Y-86936190D01*
X105147380Y-86602857D01*
X106147380Y-85745714D02*
X106147380Y-86317142D01*
X106147380Y-86031428D02*
X105147380Y-86031428D01*
X105290238Y-86126666D01*
X105385476Y-86221904D01*
X105433095Y-86317142D01*
G04 #@! TO.C,J1*
X91546666Y-58542380D02*
X91546666Y-59256666D01*
X91499047Y-59399523D01*
X91403809Y-59494761D01*
X91260952Y-59542380D01*
X91165714Y-59542380D01*
X92546666Y-59542380D02*
X91975238Y-59542380D01*
X92260952Y-59542380D02*
X92260952Y-58542380D01*
X92165714Y-58685238D01*
X92070476Y-58780476D01*
X91975238Y-58828095D01*
G04 #@! TO.C,J8*
X138898380Y-121237333D02*
X139612666Y-121237333D01*
X139755523Y-121284952D01*
X139850761Y-121380190D01*
X139898380Y-121523047D01*
X139898380Y-121618285D01*
X139326952Y-120618285D02*
X139279333Y-120713523D01*
X139231714Y-120761142D01*
X139136476Y-120808761D01*
X139088857Y-120808761D01*
X138993619Y-120761142D01*
X138946000Y-120713523D01*
X138898380Y-120618285D01*
X138898380Y-120427809D01*
X138946000Y-120332571D01*
X138993619Y-120284952D01*
X139088857Y-120237333D01*
X139136476Y-120237333D01*
X139231714Y-120284952D01*
X139279333Y-120332571D01*
X139326952Y-120427809D01*
X139326952Y-120618285D01*
X139374571Y-120713523D01*
X139422190Y-120761142D01*
X139517428Y-120808761D01*
X139707904Y-120808761D01*
X139803142Y-120761142D01*
X139850761Y-120713523D01*
X139898380Y-120618285D01*
X139898380Y-120427809D01*
X139850761Y-120332571D01*
X139803142Y-120284952D01*
X139707904Y-120237333D01*
X139517428Y-120237333D01*
X139422190Y-120284952D01*
X139374571Y-120332571D01*
X139326952Y-120427809D01*
G04 #@! TO.C,RV1*
X102869761Y-100072380D02*
X102536428Y-99596190D01*
X102298333Y-100072380D02*
X102298333Y-99072380D01*
X102679285Y-99072380D01*
X102774523Y-99120000D01*
X102822142Y-99167619D01*
X102869761Y-99262857D01*
X102869761Y-99405714D01*
X102822142Y-99500952D01*
X102774523Y-99548571D01*
X102679285Y-99596190D01*
X102298333Y-99596190D01*
X103155476Y-99072380D02*
X103488809Y-100072380D01*
X103822142Y-99072380D01*
X104679285Y-100072380D02*
X104107857Y-100072380D01*
X104393571Y-100072380D02*
X104393571Y-99072380D01*
X104298333Y-99215238D01*
X104203095Y-99310476D01*
X104107857Y-99358095D01*
G04 #@! TO.C,RV2*
X125094761Y-63242380D02*
X124761428Y-62766190D01*
X124523333Y-63242380D02*
X124523333Y-62242380D01*
X124904285Y-62242380D01*
X124999523Y-62290000D01*
X125047142Y-62337619D01*
X125094761Y-62432857D01*
X125094761Y-62575714D01*
X125047142Y-62670952D01*
X124999523Y-62718571D01*
X124904285Y-62766190D01*
X124523333Y-62766190D01*
X125380476Y-62242380D02*
X125713809Y-63242380D01*
X126047142Y-62242380D01*
X126332857Y-62337619D02*
X126380476Y-62290000D01*
X126475714Y-62242380D01*
X126713809Y-62242380D01*
X126809047Y-62290000D01*
X126856666Y-62337619D01*
X126904285Y-62432857D01*
X126904285Y-62528095D01*
X126856666Y-62670952D01*
X126285238Y-63242380D01*
X126904285Y-63242380D01*
G04 #@! TO.C,SW1*
X152411666Y-50474761D02*
X152554523Y-50522380D01*
X152792619Y-50522380D01*
X152887857Y-50474761D01*
X152935476Y-50427142D01*
X152983095Y-50331904D01*
X152983095Y-50236666D01*
X152935476Y-50141428D01*
X152887857Y-50093809D01*
X152792619Y-50046190D01*
X152602142Y-49998571D01*
X152506904Y-49950952D01*
X152459285Y-49903333D01*
X152411666Y-49808095D01*
X152411666Y-49712857D01*
X152459285Y-49617619D01*
X152506904Y-49570000D01*
X152602142Y-49522380D01*
X152840238Y-49522380D01*
X152983095Y-49570000D01*
X153316428Y-49522380D02*
X153554523Y-50522380D01*
X153745000Y-49808095D01*
X153935476Y-50522380D01*
X154173571Y-49522380D01*
X155078333Y-50522380D02*
X154506904Y-50522380D01*
X154792619Y-50522380D02*
X154792619Y-49522380D01*
X154697380Y-49665238D01*
X154602142Y-49760476D01*
X154506904Y-49808095D01*
G04 #@! TO.C,J12*
X150836380Y-122729523D02*
X151550666Y-122729523D01*
X151693523Y-122777142D01*
X151788761Y-122872380D01*
X151836380Y-123015238D01*
X151836380Y-123110476D01*
X151836380Y-121729523D02*
X151836380Y-122300952D01*
X151836380Y-122015238D02*
X150836380Y-122015238D01*
X150979238Y-122110476D01*
X151074476Y-122205714D01*
X151122095Y-122300952D01*
X150931619Y-121348571D02*
X150884000Y-121300952D01*
X150836380Y-121205714D01*
X150836380Y-120967619D01*
X150884000Y-120872380D01*
X150931619Y-120824761D01*
X151026857Y-120777142D01*
X151122095Y-120777142D01*
X151264952Y-120824761D01*
X151836380Y-121396190D01*
X151836380Y-120777142D01*
G04 #@! TO.C,J13*
X143724380Y-121713523D02*
X144438666Y-121713523D01*
X144581523Y-121761142D01*
X144676761Y-121856380D01*
X144724380Y-121999238D01*
X144724380Y-122094476D01*
X144724380Y-120713523D02*
X144724380Y-121284952D01*
X144724380Y-120999238D02*
X143724380Y-120999238D01*
X143867238Y-121094476D01*
X143962476Y-121189714D01*
X144010095Y-121284952D01*
X143724380Y-120380190D02*
X143724380Y-119761142D01*
X144105333Y-120094476D01*
X144105333Y-119951619D01*
X144152952Y-119856380D01*
X144200571Y-119808761D01*
X144295809Y-119761142D01*
X144533904Y-119761142D01*
X144629142Y-119808761D01*
X144676761Y-119856380D01*
X144724380Y-119951619D01*
X144724380Y-120237333D01*
X144676761Y-120332571D01*
X144629142Y-120380190D01*
G04 #@! TO.C,H1*
X146050095Y-48712380D02*
X146050095Y-47712380D01*
X146050095Y-48188571D02*
X146621523Y-48188571D01*
X146621523Y-48712380D02*
X146621523Y-47712380D01*
X147621523Y-48712380D02*
X147050095Y-48712380D01*
X147335809Y-48712380D02*
X147335809Y-47712380D01*
X147240571Y-47855238D01*
X147145333Y-47950476D01*
X147050095Y-47998095D01*
G04 #@! TO.C,H2*
X89154095Y-66864380D02*
X89154095Y-65864380D01*
X89154095Y-66340571D02*
X89725523Y-66340571D01*
X89725523Y-66864380D02*
X89725523Y-65864380D01*
X90154095Y-65959619D02*
X90201714Y-65912000D01*
X90296952Y-65864380D01*
X90535047Y-65864380D01*
X90630285Y-65912000D01*
X90677904Y-65959619D01*
X90725523Y-66054857D01*
X90725523Y-66150095D01*
X90677904Y-66292952D01*
X90106476Y-66864380D01*
X90725523Y-66864380D01*
G04 #@! TO.C,H3*
X88900095Y-107894380D02*
X88900095Y-106894380D01*
X88900095Y-107370571D02*
X89471523Y-107370571D01*
X89471523Y-107894380D02*
X89471523Y-106894380D01*
X89852476Y-106894380D02*
X90471523Y-106894380D01*
X90138190Y-107275333D01*
X90281047Y-107275333D01*
X90376285Y-107322952D01*
X90423904Y-107370571D01*
X90471523Y-107465809D01*
X90471523Y-107703904D01*
X90423904Y-107799142D01*
X90376285Y-107846761D01*
X90281047Y-107894380D01*
X89995333Y-107894380D01*
X89900095Y-107846761D01*
X89852476Y-107799142D01*
G04 #@! TD*
M02*
