G04 #@! TF.GenerationSoftware,KiCad,Pcbnew,(5.1.2)-2*
G04 #@! TF.CreationDate,2020-01-11T10:49:25+03:00*
G04 #@! TF.ProjectId,DINODE,44494e4f-4445-42e6-9b69-6361645f7063,rev?*
G04 #@! TF.SameCoordinates,Original*
G04 #@! TF.FileFunction,Soldermask,Bot*
G04 #@! TF.FilePolarity,Negative*
%FSLAX46Y46*%
G04 Gerber Fmt 4.6, Leading zero omitted, Abs format (unit mm)*
G04 Created by KiCad (PCBNEW (5.1.2)-2) date 2020-01-11 10:49:25*
%MOMM*%
%LPD*%
G04 APERTURE LIST*
%ADD10C,0.050000*%
%ADD11C,0.100000*%
G04 APERTURE END LIST*
D10*
X159131000Y-129540000D02*
X130810000Y-129540000D01*
X159131000Y-60198000D02*
X159131000Y-129540000D01*
X159131000Y-45720000D02*
X148590000Y-45720000D01*
X159131000Y-60198000D02*
X159131000Y-45720000D01*
X137160000Y-43180000D02*
X111760000Y-43180000D01*
X137160000Y-46990000D02*
X137160000Y-43180000D01*
X111760000Y-46990000D02*
X137160000Y-46990000D01*
X111760000Y-43180000D02*
X111760000Y-46990000D01*
X138303000Y-39370000D02*
X148590000Y-45720000D01*
X136017000Y-39370000D02*
X138303000Y-39370000D01*
X111760000Y-39370000D02*
X136017000Y-39370000D01*
X101473000Y-45720000D02*
X111760000Y-39370000D01*
X86995000Y-45720000D02*
X101473000Y-45720000D01*
X85090000Y-45720000D02*
X86995000Y-45720000D01*
X85090000Y-129540000D02*
X90170000Y-129540000D01*
X85090000Y-45720000D02*
X85090000Y-129540000D01*
X90170000Y-129540000D02*
X130810000Y-129540000D01*
D11*
G36*
X149335443Y-124835519D02*
G01*
X149401627Y-124842037D01*
X149571466Y-124893557D01*
X149727991Y-124977222D01*
X149763729Y-125006552D01*
X149865186Y-125089814D01*
X149948448Y-125191271D01*
X149977778Y-125227009D01*
X150061443Y-125383534D01*
X150112963Y-125553373D01*
X150130359Y-125730000D01*
X150112963Y-125906627D01*
X150061443Y-126076466D01*
X149977778Y-126232991D01*
X149948448Y-126268729D01*
X149865186Y-126370186D01*
X149763729Y-126453448D01*
X149727991Y-126482778D01*
X149571466Y-126566443D01*
X149401627Y-126617963D01*
X149335442Y-126624482D01*
X149269260Y-126631000D01*
X149180740Y-126631000D01*
X149114558Y-126624482D01*
X149048373Y-126617963D01*
X148878534Y-126566443D01*
X148722009Y-126482778D01*
X148686271Y-126453448D01*
X148584814Y-126370186D01*
X148501552Y-126268729D01*
X148472222Y-126232991D01*
X148388557Y-126076466D01*
X148337037Y-125906627D01*
X148319641Y-125730000D01*
X148337037Y-125553373D01*
X148388557Y-125383534D01*
X148472222Y-125227009D01*
X148501552Y-125191271D01*
X148584814Y-125089814D01*
X148686271Y-125006552D01*
X148722009Y-124977222D01*
X148878534Y-124893557D01*
X149048373Y-124842037D01*
X149114557Y-124835519D01*
X149180740Y-124829000D01*
X149269260Y-124829000D01*
X149335443Y-124835519D01*
X149335443Y-124835519D01*
G37*
G36*
X146795443Y-124835519D02*
G01*
X146861627Y-124842037D01*
X147031466Y-124893557D01*
X147187991Y-124977222D01*
X147223729Y-125006552D01*
X147325186Y-125089814D01*
X147408448Y-125191271D01*
X147437778Y-125227009D01*
X147521443Y-125383534D01*
X147572963Y-125553373D01*
X147590359Y-125730000D01*
X147572963Y-125906627D01*
X147521443Y-126076466D01*
X147437778Y-126232991D01*
X147408448Y-126268729D01*
X147325186Y-126370186D01*
X147223729Y-126453448D01*
X147187991Y-126482778D01*
X147031466Y-126566443D01*
X146861627Y-126617963D01*
X146795442Y-126624482D01*
X146729260Y-126631000D01*
X146640740Y-126631000D01*
X146574558Y-126624482D01*
X146508373Y-126617963D01*
X146338534Y-126566443D01*
X146182009Y-126482778D01*
X146146271Y-126453448D01*
X146044814Y-126370186D01*
X145961552Y-126268729D01*
X145932222Y-126232991D01*
X145848557Y-126076466D01*
X145797037Y-125906627D01*
X145779641Y-125730000D01*
X145797037Y-125553373D01*
X145848557Y-125383534D01*
X145932222Y-125227009D01*
X145961552Y-125191271D01*
X146044814Y-125089814D01*
X146146271Y-125006552D01*
X146182009Y-124977222D01*
X146338534Y-124893557D01*
X146508373Y-124842037D01*
X146574557Y-124835519D01*
X146640740Y-124829000D01*
X146729260Y-124829000D01*
X146795443Y-124835519D01*
X146795443Y-124835519D01*
G37*
G36*
X153780442Y-123565518D02*
G01*
X153846627Y-123572037D01*
X154016466Y-123623557D01*
X154172991Y-123707222D01*
X154208729Y-123736552D01*
X154310186Y-123819814D01*
X154393448Y-123921271D01*
X154422778Y-123957009D01*
X154506443Y-124113534D01*
X154557963Y-124283373D01*
X154575359Y-124460000D01*
X154557963Y-124636627D01*
X154506443Y-124806466D01*
X154422778Y-124962991D01*
X154393448Y-124998729D01*
X154310186Y-125100186D01*
X154208729Y-125183448D01*
X154172991Y-125212778D01*
X154016466Y-125296443D01*
X153846627Y-125347963D01*
X153780442Y-125354482D01*
X153714260Y-125361000D01*
X153625740Y-125361000D01*
X153559558Y-125354482D01*
X153493373Y-125347963D01*
X153323534Y-125296443D01*
X153167009Y-125212778D01*
X153131271Y-125183448D01*
X153029814Y-125100186D01*
X152946552Y-124998729D01*
X152917222Y-124962991D01*
X152833557Y-124806466D01*
X152782037Y-124636627D01*
X152764641Y-124460000D01*
X152782037Y-124283373D01*
X152833557Y-124113534D01*
X152917222Y-123957009D01*
X152946552Y-123921271D01*
X153029814Y-123819814D01*
X153131271Y-123736552D01*
X153167009Y-123707222D01*
X153323534Y-123623557D01*
X153493373Y-123572037D01*
X153559558Y-123565518D01*
X153625740Y-123559000D01*
X153714260Y-123559000D01*
X153780442Y-123565518D01*
X153780442Y-123565518D01*
G37*
G36*
X149335443Y-122295519D02*
G01*
X149401627Y-122302037D01*
X149571466Y-122353557D01*
X149727991Y-122437222D01*
X149763729Y-122466552D01*
X149865186Y-122549814D01*
X149948448Y-122651271D01*
X149977778Y-122687009D01*
X150061443Y-122843534D01*
X150112963Y-123013373D01*
X150130359Y-123190000D01*
X150112963Y-123366627D01*
X150061443Y-123536466D01*
X149977778Y-123692991D01*
X149948448Y-123728729D01*
X149865186Y-123830186D01*
X149763729Y-123913448D01*
X149727991Y-123942778D01*
X149571466Y-124026443D01*
X149401627Y-124077963D01*
X149335442Y-124084482D01*
X149269260Y-124091000D01*
X149180740Y-124091000D01*
X149114558Y-124084482D01*
X149048373Y-124077963D01*
X148878534Y-124026443D01*
X148722009Y-123942778D01*
X148686271Y-123913448D01*
X148584814Y-123830186D01*
X148501552Y-123728729D01*
X148472222Y-123692991D01*
X148388557Y-123536466D01*
X148337037Y-123366627D01*
X148319641Y-123190000D01*
X148337037Y-123013373D01*
X148388557Y-122843534D01*
X148472222Y-122687009D01*
X148501552Y-122651271D01*
X148584814Y-122549814D01*
X148686271Y-122466552D01*
X148722009Y-122437222D01*
X148878534Y-122353557D01*
X149048373Y-122302037D01*
X149114557Y-122295519D01*
X149180740Y-122289000D01*
X149269260Y-122289000D01*
X149335443Y-122295519D01*
X149335443Y-122295519D01*
G37*
G36*
X146795443Y-122295519D02*
G01*
X146861627Y-122302037D01*
X147031466Y-122353557D01*
X147187991Y-122437222D01*
X147223729Y-122466552D01*
X147325186Y-122549814D01*
X147408448Y-122651271D01*
X147437778Y-122687009D01*
X147521443Y-122843534D01*
X147572963Y-123013373D01*
X147590359Y-123190000D01*
X147572963Y-123366627D01*
X147521443Y-123536466D01*
X147437778Y-123692991D01*
X147408448Y-123728729D01*
X147325186Y-123830186D01*
X147223729Y-123913448D01*
X147187991Y-123942778D01*
X147031466Y-124026443D01*
X146861627Y-124077963D01*
X146795442Y-124084482D01*
X146729260Y-124091000D01*
X146640740Y-124091000D01*
X146574558Y-124084482D01*
X146508373Y-124077963D01*
X146338534Y-124026443D01*
X146182009Y-123942778D01*
X146146271Y-123913448D01*
X146044814Y-123830186D01*
X145961552Y-123728729D01*
X145932222Y-123692991D01*
X145848557Y-123536466D01*
X145797037Y-123366627D01*
X145779641Y-123190000D01*
X145797037Y-123013373D01*
X145848557Y-122843534D01*
X145932222Y-122687009D01*
X145961552Y-122651271D01*
X146044814Y-122549814D01*
X146146271Y-122466552D01*
X146182009Y-122437222D01*
X146338534Y-122353557D01*
X146508373Y-122302037D01*
X146574557Y-122295519D01*
X146640740Y-122289000D01*
X146729260Y-122289000D01*
X146795443Y-122295519D01*
X146795443Y-122295519D01*
G37*
G36*
X153780442Y-121025518D02*
G01*
X153846627Y-121032037D01*
X154016466Y-121083557D01*
X154172991Y-121167222D01*
X154208729Y-121196552D01*
X154310186Y-121279814D01*
X154393448Y-121381271D01*
X154422778Y-121417009D01*
X154506443Y-121573534D01*
X154557963Y-121743373D01*
X154575359Y-121920000D01*
X154557963Y-122096627D01*
X154506443Y-122266466D01*
X154422778Y-122422991D01*
X154393448Y-122458729D01*
X154310186Y-122560186D01*
X154208729Y-122643448D01*
X154172991Y-122672778D01*
X154016466Y-122756443D01*
X153846627Y-122807963D01*
X153780443Y-122814481D01*
X153714260Y-122821000D01*
X153625740Y-122821000D01*
X153559557Y-122814481D01*
X153493373Y-122807963D01*
X153323534Y-122756443D01*
X153167009Y-122672778D01*
X153131271Y-122643448D01*
X153029814Y-122560186D01*
X152946552Y-122458729D01*
X152917222Y-122422991D01*
X152833557Y-122266466D01*
X152782037Y-122096627D01*
X152764641Y-121920000D01*
X152782037Y-121743373D01*
X152833557Y-121573534D01*
X152917222Y-121417009D01*
X152946552Y-121381271D01*
X153029814Y-121279814D01*
X153131271Y-121196552D01*
X153167009Y-121167222D01*
X153323534Y-121083557D01*
X153493373Y-121032037D01*
X153559558Y-121025518D01*
X153625740Y-121019000D01*
X153714260Y-121019000D01*
X153780442Y-121025518D01*
X153780442Y-121025518D01*
G37*
G36*
X95360442Y-121025518D02*
G01*
X95426627Y-121032037D01*
X95596466Y-121083557D01*
X95752991Y-121167222D01*
X95788729Y-121196552D01*
X95890186Y-121279814D01*
X95973448Y-121381271D01*
X96002778Y-121417009D01*
X96086443Y-121573534D01*
X96137963Y-121743373D01*
X96155359Y-121920000D01*
X96137963Y-122096627D01*
X96086443Y-122266466D01*
X96002778Y-122422991D01*
X95973448Y-122458729D01*
X95890186Y-122560186D01*
X95788729Y-122643448D01*
X95752991Y-122672778D01*
X95596466Y-122756443D01*
X95426627Y-122807963D01*
X95360443Y-122814481D01*
X95294260Y-122821000D01*
X95205740Y-122821000D01*
X95139557Y-122814481D01*
X95073373Y-122807963D01*
X94903534Y-122756443D01*
X94747009Y-122672778D01*
X94711271Y-122643448D01*
X94609814Y-122560186D01*
X94526552Y-122458729D01*
X94497222Y-122422991D01*
X94413557Y-122266466D01*
X94362037Y-122096627D01*
X94344641Y-121920000D01*
X94362037Y-121743373D01*
X94413557Y-121573534D01*
X94497222Y-121417009D01*
X94526552Y-121381271D01*
X94609814Y-121279814D01*
X94711271Y-121196552D01*
X94747009Y-121167222D01*
X94903534Y-121083557D01*
X95073373Y-121032037D01*
X95139558Y-121025518D01*
X95205740Y-121019000D01*
X95294260Y-121019000D01*
X95360442Y-121025518D01*
X95360442Y-121025518D01*
G37*
G36*
X97900442Y-121025518D02*
G01*
X97966627Y-121032037D01*
X98136466Y-121083557D01*
X98292991Y-121167222D01*
X98328729Y-121196552D01*
X98430186Y-121279814D01*
X98513448Y-121381271D01*
X98542778Y-121417009D01*
X98626443Y-121573534D01*
X98677963Y-121743373D01*
X98695359Y-121920000D01*
X98677963Y-122096627D01*
X98626443Y-122266466D01*
X98542778Y-122422991D01*
X98513448Y-122458729D01*
X98430186Y-122560186D01*
X98328729Y-122643448D01*
X98292991Y-122672778D01*
X98136466Y-122756443D01*
X97966627Y-122807963D01*
X97900443Y-122814481D01*
X97834260Y-122821000D01*
X97745740Y-122821000D01*
X97679557Y-122814481D01*
X97613373Y-122807963D01*
X97443534Y-122756443D01*
X97287009Y-122672778D01*
X97251271Y-122643448D01*
X97149814Y-122560186D01*
X97066552Y-122458729D01*
X97037222Y-122422991D01*
X96953557Y-122266466D01*
X96902037Y-122096627D01*
X96884641Y-121920000D01*
X96902037Y-121743373D01*
X96953557Y-121573534D01*
X97037222Y-121417009D01*
X97066552Y-121381271D01*
X97149814Y-121279814D01*
X97251271Y-121196552D01*
X97287009Y-121167222D01*
X97443534Y-121083557D01*
X97613373Y-121032037D01*
X97679558Y-121025518D01*
X97745740Y-121019000D01*
X97834260Y-121019000D01*
X97900442Y-121025518D01*
X97900442Y-121025518D01*
G37*
G36*
X100440442Y-121025518D02*
G01*
X100506627Y-121032037D01*
X100676466Y-121083557D01*
X100832991Y-121167222D01*
X100868729Y-121196552D01*
X100970186Y-121279814D01*
X101053448Y-121381271D01*
X101082778Y-121417009D01*
X101166443Y-121573534D01*
X101217963Y-121743373D01*
X101235359Y-121920000D01*
X101217963Y-122096627D01*
X101166443Y-122266466D01*
X101082778Y-122422991D01*
X101053448Y-122458729D01*
X100970186Y-122560186D01*
X100868729Y-122643448D01*
X100832991Y-122672778D01*
X100676466Y-122756443D01*
X100506627Y-122807963D01*
X100440443Y-122814481D01*
X100374260Y-122821000D01*
X100285740Y-122821000D01*
X100219557Y-122814481D01*
X100153373Y-122807963D01*
X99983534Y-122756443D01*
X99827009Y-122672778D01*
X99791271Y-122643448D01*
X99689814Y-122560186D01*
X99606552Y-122458729D01*
X99577222Y-122422991D01*
X99493557Y-122266466D01*
X99442037Y-122096627D01*
X99424641Y-121920000D01*
X99442037Y-121743373D01*
X99493557Y-121573534D01*
X99577222Y-121417009D01*
X99606552Y-121381271D01*
X99689814Y-121279814D01*
X99791271Y-121196552D01*
X99827009Y-121167222D01*
X99983534Y-121083557D01*
X100153373Y-121032037D01*
X100219558Y-121025518D01*
X100285740Y-121019000D01*
X100374260Y-121019000D01*
X100440442Y-121025518D01*
X100440442Y-121025518D01*
G37*
G36*
X103771000Y-122821000D02*
G01*
X101969000Y-122821000D01*
X101969000Y-121019000D01*
X103771000Y-121019000D01*
X103771000Y-122821000D01*
X103771000Y-122821000D01*
G37*
G36*
X124570443Y-120390519D02*
G01*
X124636627Y-120397037D01*
X124806466Y-120448557D01*
X124962991Y-120532222D01*
X124998729Y-120561552D01*
X125100186Y-120644814D01*
X125183448Y-120746271D01*
X125212778Y-120782009D01*
X125296443Y-120938534D01*
X125347963Y-121108373D01*
X125365359Y-121285000D01*
X125347963Y-121461627D01*
X125296443Y-121631466D01*
X125212778Y-121787991D01*
X125183448Y-121823729D01*
X125100186Y-121925186D01*
X124998729Y-122008448D01*
X124962991Y-122037778D01*
X124806466Y-122121443D01*
X124636627Y-122172963D01*
X124570442Y-122179482D01*
X124504260Y-122186000D01*
X124415740Y-122186000D01*
X124349558Y-122179482D01*
X124283373Y-122172963D01*
X124113534Y-122121443D01*
X123957009Y-122037778D01*
X123921271Y-122008448D01*
X123819814Y-121925186D01*
X123736552Y-121823729D01*
X123707222Y-121787991D01*
X123623557Y-121631466D01*
X123572037Y-121461627D01*
X123554641Y-121285000D01*
X123572037Y-121108373D01*
X123623557Y-120938534D01*
X123707222Y-120782009D01*
X123736552Y-120746271D01*
X123819814Y-120644814D01*
X123921271Y-120561552D01*
X123957009Y-120532222D01*
X124113534Y-120448557D01*
X124283373Y-120397037D01*
X124349557Y-120390519D01*
X124415740Y-120384000D01*
X124504260Y-120384000D01*
X124570443Y-120390519D01*
X124570443Y-120390519D01*
G37*
G36*
X122030443Y-120390519D02*
G01*
X122096627Y-120397037D01*
X122266466Y-120448557D01*
X122422991Y-120532222D01*
X122458729Y-120561552D01*
X122560186Y-120644814D01*
X122643448Y-120746271D01*
X122672778Y-120782009D01*
X122756443Y-120938534D01*
X122807963Y-121108373D01*
X122825359Y-121285000D01*
X122807963Y-121461627D01*
X122756443Y-121631466D01*
X122672778Y-121787991D01*
X122643448Y-121823729D01*
X122560186Y-121925186D01*
X122458729Y-122008448D01*
X122422991Y-122037778D01*
X122266466Y-122121443D01*
X122096627Y-122172963D01*
X122030442Y-122179482D01*
X121964260Y-122186000D01*
X121875740Y-122186000D01*
X121809558Y-122179482D01*
X121743373Y-122172963D01*
X121573534Y-122121443D01*
X121417009Y-122037778D01*
X121381271Y-122008448D01*
X121279814Y-121925186D01*
X121196552Y-121823729D01*
X121167222Y-121787991D01*
X121083557Y-121631466D01*
X121032037Y-121461627D01*
X121014641Y-121285000D01*
X121032037Y-121108373D01*
X121083557Y-120938534D01*
X121167222Y-120782009D01*
X121196552Y-120746271D01*
X121279814Y-120644814D01*
X121381271Y-120561552D01*
X121417009Y-120532222D01*
X121573534Y-120448557D01*
X121743373Y-120397037D01*
X121809557Y-120390519D01*
X121875740Y-120384000D01*
X121964260Y-120384000D01*
X122030443Y-120390519D01*
X122030443Y-120390519D01*
G37*
G36*
X119490443Y-120390519D02*
G01*
X119556627Y-120397037D01*
X119726466Y-120448557D01*
X119882991Y-120532222D01*
X119918729Y-120561552D01*
X120020186Y-120644814D01*
X120103448Y-120746271D01*
X120132778Y-120782009D01*
X120216443Y-120938534D01*
X120267963Y-121108373D01*
X120285359Y-121285000D01*
X120267963Y-121461627D01*
X120216443Y-121631466D01*
X120132778Y-121787991D01*
X120103448Y-121823729D01*
X120020186Y-121925186D01*
X119918729Y-122008448D01*
X119882991Y-122037778D01*
X119726466Y-122121443D01*
X119556627Y-122172963D01*
X119490442Y-122179482D01*
X119424260Y-122186000D01*
X119335740Y-122186000D01*
X119269558Y-122179482D01*
X119203373Y-122172963D01*
X119033534Y-122121443D01*
X118877009Y-122037778D01*
X118841271Y-122008448D01*
X118739814Y-121925186D01*
X118656552Y-121823729D01*
X118627222Y-121787991D01*
X118543557Y-121631466D01*
X118492037Y-121461627D01*
X118474641Y-121285000D01*
X118492037Y-121108373D01*
X118543557Y-120938534D01*
X118627222Y-120782009D01*
X118656552Y-120746271D01*
X118739814Y-120644814D01*
X118841271Y-120561552D01*
X118877009Y-120532222D01*
X119033534Y-120448557D01*
X119203373Y-120397037D01*
X119269557Y-120390519D01*
X119335740Y-120384000D01*
X119424260Y-120384000D01*
X119490443Y-120390519D01*
X119490443Y-120390519D01*
G37*
G36*
X116950443Y-120390519D02*
G01*
X117016627Y-120397037D01*
X117186466Y-120448557D01*
X117342991Y-120532222D01*
X117378729Y-120561552D01*
X117480186Y-120644814D01*
X117563448Y-120746271D01*
X117592778Y-120782009D01*
X117676443Y-120938534D01*
X117727963Y-121108373D01*
X117745359Y-121285000D01*
X117727963Y-121461627D01*
X117676443Y-121631466D01*
X117592778Y-121787991D01*
X117563448Y-121823729D01*
X117480186Y-121925186D01*
X117378729Y-122008448D01*
X117342991Y-122037778D01*
X117186466Y-122121443D01*
X117016627Y-122172963D01*
X116950442Y-122179482D01*
X116884260Y-122186000D01*
X116795740Y-122186000D01*
X116729558Y-122179482D01*
X116663373Y-122172963D01*
X116493534Y-122121443D01*
X116337009Y-122037778D01*
X116301271Y-122008448D01*
X116199814Y-121925186D01*
X116116552Y-121823729D01*
X116087222Y-121787991D01*
X116003557Y-121631466D01*
X115952037Y-121461627D01*
X115934641Y-121285000D01*
X115952037Y-121108373D01*
X116003557Y-120938534D01*
X116087222Y-120782009D01*
X116116552Y-120746271D01*
X116199814Y-120644814D01*
X116301271Y-120561552D01*
X116337009Y-120532222D01*
X116493534Y-120448557D01*
X116663373Y-120397037D01*
X116729557Y-120390519D01*
X116795740Y-120384000D01*
X116884260Y-120384000D01*
X116950443Y-120390519D01*
X116950443Y-120390519D01*
G37*
G36*
X114410443Y-120390519D02*
G01*
X114476627Y-120397037D01*
X114646466Y-120448557D01*
X114802991Y-120532222D01*
X114838729Y-120561552D01*
X114940186Y-120644814D01*
X115023448Y-120746271D01*
X115052778Y-120782009D01*
X115136443Y-120938534D01*
X115187963Y-121108373D01*
X115205359Y-121285000D01*
X115187963Y-121461627D01*
X115136443Y-121631466D01*
X115052778Y-121787991D01*
X115023448Y-121823729D01*
X114940186Y-121925186D01*
X114838729Y-122008448D01*
X114802991Y-122037778D01*
X114646466Y-122121443D01*
X114476627Y-122172963D01*
X114410442Y-122179482D01*
X114344260Y-122186000D01*
X114255740Y-122186000D01*
X114189558Y-122179482D01*
X114123373Y-122172963D01*
X113953534Y-122121443D01*
X113797009Y-122037778D01*
X113761271Y-122008448D01*
X113659814Y-121925186D01*
X113576552Y-121823729D01*
X113547222Y-121787991D01*
X113463557Y-121631466D01*
X113412037Y-121461627D01*
X113394641Y-121285000D01*
X113412037Y-121108373D01*
X113463557Y-120938534D01*
X113547222Y-120782009D01*
X113576552Y-120746271D01*
X113659814Y-120644814D01*
X113761271Y-120561552D01*
X113797009Y-120532222D01*
X113953534Y-120448557D01*
X114123373Y-120397037D01*
X114189557Y-120390519D01*
X114255740Y-120384000D01*
X114344260Y-120384000D01*
X114410443Y-120390519D01*
X114410443Y-120390519D01*
G37*
G36*
X111870443Y-120390519D02*
G01*
X111936627Y-120397037D01*
X112106466Y-120448557D01*
X112262991Y-120532222D01*
X112298729Y-120561552D01*
X112400186Y-120644814D01*
X112483448Y-120746271D01*
X112512778Y-120782009D01*
X112596443Y-120938534D01*
X112647963Y-121108373D01*
X112665359Y-121285000D01*
X112647963Y-121461627D01*
X112596443Y-121631466D01*
X112512778Y-121787991D01*
X112483448Y-121823729D01*
X112400186Y-121925186D01*
X112298729Y-122008448D01*
X112262991Y-122037778D01*
X112106466Y-122121443D01*
X111936627Y-122172963D01*
X111870442Y-122179482D01*
X111804260Y-122186000D01*
X111715740Y-122186000D01*
X111649558Y-122179482D01*
X111583373Y-122172963D01*
X111413534Y-122121443D01*
X111257009Y-122037778D01*
X111221271Y-122008448D01*
X111119814Y-121925186D01*
X111036552Y-121823729D01*
X111007222Y-121787991D01*
X110923557Y-121631466D01*
X110872037Y-121461627D01*
X110854641Y-121285000D01*
X110872037Y-121108373D01*
X110923557Y-120938534D01*
X111007222Y-120782009D01*
X111036552Y-120746271D01*
X111119814Y-120644814D01*
X111221271Y-120561552D01*
X111257009Y-120532222D01*
X111413534Y-120448557D01*
X111583373Y-120397037D01*
X111649557Y-120390519D01*
X111715740Y-120384000D01*
X111804260Y-120384000D01*
X111870443Y-120390519D01*
X111870443Y-120390519D01*
G37*
G36*
X110121000Y-122186000D02*
G01*
X108319000Y-122186000D01*
X108319000Y-120384000D01*
X110121000Y-120384000D01*
X110121000Y-122186000D01*
X110121000Y-122186000D01*
G37*
G36*
X146795442Y-119755518D02*
G01*
X146861627Y-119762037D01*
X147031466Y-119813557D01*
X147187991Y-119897222D01*
X147223729Y-119926552D01*
X147325186Y-120009814D01*
X147408448Y-120111271D01*
X147437778Y-120147009D01*
X147521443Y-120303534D01*
X147572963Y-120473373D01*
X147590359Y-120650000D01*
X147572963Y-120826627D01*
X147521443Y-120996466D01*
X147437778Y-121152991D01*
X147408448Y-121188729D01*
X147325186Y-121290186D01*
X147223729Y-121373448D01*
X147187991Y-121402778D01*
X147031466Y-121486443D01*
X146861627Y-121537963D01*
X146795443Y-121544481D01*
X146729260Y-121551000D01*
X146640740Y-121551000D01*
X146574557Y-121544481D01*
X146508373Y-121537963D01*
X146338534Y-121486443D01*
X146182009Y-121402778D01*
X146146271Y-121373448D01*
X146044814Y-121290186D01*
X145961552Y-121188729D01*
X145932222Y-121152991D01*
X145848557Y-120996466D01*
X145797037Y-120826627D01*
X145779641Y-120650000D01*
X145797037Y-120473373D01*
X145848557Y-120303534D01*
X145932222Y-120147009D01*
X145961552Y-120111271D01*
X146044814Y-120009814D01*
X146146271Y-119926552D01*
X146182009Y-119897222D01*
X146338534Y-119813557D01*
X146508373Y-119762037D01*
X146574558Y-119755518D01*
X146640740Y-119749000D01*
X146729260Y-119749000D01*
X146795442Y-119755518D01*
X146795442Y-119755518D01*
G37*
G36*
X149335442Y-119755518D02*
G01*
X149401627Y-119762037D01*
X149571466Y-119813557D01*
X149727991Y-119897222D01*
X149763729Y-119926552D01*
X149865186Y-120009814D01*
X149948448Y-120111271D01*
X149977778Y-120147009D01*
X150061443Y-120303534D01*
X150112963Y-120473373D01*
X150130359Y-120650000D01*
X150112963Y-120826627D01*
X150061443Y-120996466D01*
X149977778Y-121152991D01*
X149948448Y-121188729D01*
X149865186Y-121290186D01*
X149763729Y-121373448D01*
X149727991Y-121402778D01*
X149571466Y-121486443D01*
X149401627Y-121537963D01*
X149335443Y-121544481D01*
X149269260Y-121551000D01*
X149180740Y-121551000D01*
X149114557Y-121544481D01*
X149048373Y-121537963D01*
X148878534Y-121486443D01*
X148722009Y-121402778D01*
X148686271Y-121373448D01*
X148584814Y-121290186D01*
X148501552Y-121188729D01*
X148472222Y-121152991D01*
X148388557Y-120996466D01*
X148337037Y-120826627D01*
X148319641Y-120650000D01*
X148337037Y-120473373D01*
X148388557Y-120303534D01*
X148472222Y-120147009D01*
X148501552Y-120111271D01*
X148584814Y-120009814D01*
X148686271Y-119926552D01*
X148722009Y-119897222D01*
X148878534Y-119813557D01*
X149048373Y-119762037D01*
X149114558Y-119755518D01*
X149180740Y-119749000D01*
X149269260Y-119749000D01*
X149335442Y-119755518D01*
X149335442Y-119755518D01*
G37*
G36*
X102980442Y-118485518D02*
G01*
X103046627Y-118492037D01*
X103216466Y-118543557D01*
X103372991Y-118627222D01*
X103408729Y-118656552D01*
X103510186Y-118739814D01*
X103593448Y-118841271D01*
X103622778Y-118877009D01*
X103706443Y-119033534D01*
X103757963Y-119203373D01*
X103775359Y-119380000D01*
X103757963Y-119556627D01*
X103706443Y-119726466D01*
X103622778Y-119882991D01*
X103593448Y-119918729D01*
X103510186Y-120020186D01*
X103408729Y-120103448D01*
X103372991Y-120132778D01*
X103216466Y-120216443D01*
X103046627Y-120267963D01*
X102980442Y-120274482D01*
X102914260Y-120281000D01*
X102825740Y-120281000D01*
X102759558Y-120274482D01*
X102693373Y-120267963D01*
X102523534Y-120216443D01*
X102367009Y-120132778D01*
X102331271Y-120103448D01*
X102229814Y-120020186D01*
X102146552Y-119918729D01*
X102117222Y-119882991D01*
X102033557Y-119726466D01*
X101982037Y-119556627D01*
X101964641Y-119380000D01*
X101982037Y-119203373D01*
X102033557Y-119033534D01*
X102117222Y-118877009D01*
X102146552Y-118841271D01*
X102229814Y-118739814D01*
X102331271Y-118656552D01*
X102367009Y-118627222D01*
X102523534Y-118543557D01*
X102693373Y-118492037D01*
X102759558Y-118485518D01*
X102825740Y-118479000D01*
X102914260Y-118479000D01*
X102980442Y-118485518D01*
X102980442Y-118485518D01*
G37*
G36*
X95360442Y-118485518D02*
G01*
X95426627Y-118492037D01*
X95596466Y-118543557D01*
X95752991Y-118627222D01*
X95788729Y-118656552D01*
X95890186Y-118739814D01*
X95973448Y-118841271D01*
X96002778Y-118877009D01*
X96086443Y-119033534D01*
X96137963Y-119203373D01*
X96155359Y-119380000D01*
X96137963Y-119556627D01*
X96086443Y-119726466D01*
X96002778Y-119882991D01*
X95973448Y-119918729D01*
X95890186Y-120020186D01*
X95788729Y-120103448D01*
X95752991Y-120132778D01*
X95596466Y-120216443D01*
X95426627Y-120267963D01*
X95360442Y-120274482D01*
X95294260Y-120281000D01*
X95205740Y-120281000D01*
X95139558Y-120274482D01*
X95073373Y-120267963D01*
X94903534Y-120216443D01*
X94747009Y-120132778D01*
X94711271Y-120103448D01*
X94609814Y-120020186D01*
X94526552Y-119918729D01*
X94497222Y-119882991D01*
X94413557Y-119726466D01*
X94362037Y-119556627D01*
X94344641Y-119380000D01*
X94362037Y-119203373D01*
X94413557Y-119033534D01*
X94497222Y-118877009D01*
X94526552Y-118841271D01*
X94609814Y-118739814D01*
X94711271Y-118656552D01*
X94747009Y-118627222D01*
X94903534Y-118543557D01*
X95073373Y-118492037D01*
X95139558Y-118485518D01*
X95205740Y-118479000D01*
X95294260Y-118479000D01*
X95360442Y-118485518D01*
X95360442Y-118485518D01*
G37*
G36*
X97900442Y-118485518D02*
G01*
X97966627Y-118492037D01*
X98136466Y-118543557D01*
X98292991Y-118627222D01*
X98328729Y-118656552D01*
X98430186Y-118739814D01*
X98513448Y-118841271D01*
X98542778Y-118877009D01*
X98626443Y-119033534D01*
X98677963Y-119203373D01*
X98695359Y-119380000D01*
X98677963Y-119556627D01*
X98626443Y-119726466D01*
X98542778Y-119882991D01*
X98513448Y-119918729D01*
X98430186Y-120020186D01*
X98328729Y-120103448D01*
X98292991Y-120132778D01*
X98136466Y-120216443D01*
X97966627Y-120267963D01*
X97900442Y-120274482D01*
X97834260Y-120281000D01*
X97745740Y-120281000D01*
X97679558Y-120274482D01*
X97613373Y-120267963D01*
X97443534Y-120216443D01*
X97287009Y-120132778D01*
X97251271Y-120103448D01*
X97149814Y-120020186D01*
X97066552Y-119918729D01*
X97037222Y-119882991D01*
X96953557Y-119726466D01*
X96902037Y-119556627D01*
X96884641Y-119380000D01*
X96902037Y-119203373D01*
X96953557Y-119033534D01*
X97037222Y-118877009D01*
X97066552Y-118841271D01*
X97149814Y-118739814D01*
X97251271Y-118656552D01*
X97287009Y-118627222D01*
X97443534Y-118543557D01*
X97613373Y-118492037D01*
X97679558Y-118485518D01*
X97745740Y-118479000D01*
X97834260Y-118479000D01*
X97900442Y-118485518D01*
X97900442Y-118485518D01*
G37*
G36*
X100440442Y-118485518D02*
G01*
X100506627Y-118492037D01*
X100676466Y-118543557D01*
X100832991Y-118627222D01*
X100868729Y-118656552D01*
X100970186Y-118739814D01*
X101053448Y-118841271D01*
X101082778Y-118877009D01*
X101166443Y-119033534D01*
X101217963Y-119203373D01*
X101235359Y-119380000D01*
X101217963Y-119556627D01*
X101166443Y-119726466D01*
X101082778Y-119882991D01*
X101053448Y-119918729D01*
X100970186Y-120020186D01*
X100868729Y-120103448D01*
X100832991Y-120132778D01*
X100676466Y-120216443D01*
X100506627Y-120267963D01*
X100440442Y-120274482D01*
X100374260Y-120281000D01*
X100285740Y-120281000D01*
X100219558Y-120274482D01*
X100153373Y-120267963D01*
X99983534Y-120216443D01*
X99827009Y-120132778D01*
X99791271Y-120103448D01*
X99689814Y-120020186D01*
X99606552Y-119918729D01*
X99577222Y-119882991D01*
X99493557Y-119726466D01*
X99442037Y-119556627D01*
X99424641Y-119380000D01*
X99442037Y-119203373D01*
X99493557Y-119033534D01*
X99577222Y-118877009D01*
X99606552Y-118841271D01*
X99689814Y-118739814D01*
X99791271Y-118656552D01*
X99827009Y-118627222D01*
X99983534Y-118543557D01*
X100153373Y-118492037D01*
X100219558Y-118485518D01*
X100285740Y-118479000D01*
X100374260Y-118479000D01*
X100440442Y-118485518D01*
X100440442Y-118485518D01*
G37*
G36*
X154571000Y-120281000D02*
G01*
X152769000Y-120281000D01*
X152769000Y-118479000D01*
X154571000Y-118479000D01*
X154571000Y-120281000D01*
X154571000Y-120281000D01*
G37*
G36*
X150126000Y-119011000D02*
G01*
X148324000Y-119011000D01*
X148324000Y-117209000D01*
X150126000Y-117209000D01*
X150126000Y-119011000D01*
X150126000Y-119011000D01*
G37*
G36*
X146795443Y-117215519D02*
G01*
X146861627Y-117222037D01*
X147031466Y-117273557D01*
X147187991Y-117357222D01*
X147223729Y-117386552D01*
X147325186Y-117469814D01*
X147408448Y-117571271D01*
X147437778Y-117607009D01*
X147521443Y-117763534D01*
X147572963Y-117933373D01*
X147590359Y-118110000D01*
X147572963Y-118286627D01*
X147521443Y-118456466D01*
X147437778Y-118612991D01*
X147408448Y-118648729D01*
X147325186Y-118750186D01*
X147223729Y-118833448D01*
X147187991Y-118862778D01*
X147031466Y-118946443D01*
X146861627Y-118997963D01*
X146795443Y-119004481D01*
X146729260Y-119011000D01*
X146640740Y-119011000D01*
X146574557Y-119004481D01*
X146508373Y-118997963D01*
X146338534Y-118946443D01*
X146182009Y-118862778D01*
X146146271Y-118833448D01*
X146044814Y-118750186D01*
X145961552Y-118648729D01*
X145932222Y-118612991D01*
X145848557Y-118456466D01*
X145797037Y-118286627D01*
X145779641Y-118110000D01*
X145797037Y-117933373D01*
X145848557Y-117763534D01*
X145932222Y-117607009D01*
X145961552Y-117571271D01*
X146044814Y-117469814D01*
X146146271Y-117386552D01*
X146182009Y-117357222D01*
X146338534Y-117273557D01*
X146508373Y-117222037D01*
X146574557Y-117215519D01*
X146640740Y-117209000D01*
X146729260Y-117209000D01*
X146795443Y-117215519D01*
X146795443Y-117215519D01*
G37*
G36*
X134799294Y-115938633D02*
G01*
X134971695Y-115990931D01*
X135130583Y-116075858D01*
X135269849Y-116190151D01*
X135384142Y-116329417D01*
X135469069Y-116488305D01*
X135521367Y-116660706D01*
X135539025Y-116840000D01*
X135521367Y-117019294D01*
X135469069Y-117191695D01*
X135384142Y-117350583D01*
X135269849Y-117489849D01*
X135130583Y-117604142D01*
X134971695Y-117689069D01*
X134799294Y-117741367D01*
X134664931Y-117754600D01*
X134575069Y-117754600D01*
X134440706Y-117741367D01*
X134268305Y-117689069D01*
X134109417Y-117604142D01*
X133970151Y-117489849D01*
X133855858Y-117350583D01*
X133770931Y-117191695D01*
X133718633Y-117019294D01*
X133700975Y-116840000D01*
X133718633Y-116660706D01*
X133770931Y-116488305D01*
X133855858Y-116329417D01*
X133970151Y-116190151D01*
X134109417Y-116075858D01*
X134268305Y-115990931D01*
X134440706Y-115938633D01*
X134575069Y-115925400D01*
X134664931Y-115925400D01*
X134799294Y-115938633D01*
X134799294Y-115938633D01*
G37*
G36*
X132259294Y-115938633D02*
G01*
X132431695Y-115990931D01*
X132590583Y-116075858D01*
X132729849Y-116190151D01*
X132844142Y-116329417D01*
X132929069Y-116488305D01*
X132981367Y-116660706D01*
X132999025Y-116840000D01*
X132981367Y-117019294D01*
X132929069Y-117191695D01*
X132844142Y-117350583D01*
X132729849Y-117489849D01*
X132590583Y-117604142D01*
X132431695Y-117689069D01*
X132259294Y-117741367D01*
X132124931Y-117754600D01*
X132035069Y-117754600D01*
X131900706Y-117741367D01*
X131728305Y-117689069D01*
X131569417Y-117604142D01*
X131430151Y-117489849D01*
X131315858Y-117350583D01*
X131230931Y-117191695D01*
X131178633Y-117019294D01*
X131160975Y-116840000D01*
X131178633Y-116660706D01*
X131230931Y-116488305D01*
X131315858Y-116329417D01*
X131430151Y-116190151D01*
X131569417Y-116075858D01*
X131728305Y-115990931D01*
X131900706Y-115938633D01*
X132035069Y-115925400D01*
X132124931Y-115925400D01*
X132259294Y-115938633D01*
X132259294Y-115938633D01*
G37*
G36*
X137339294Y-115938633D02*
G01*
X137511695Y-115990931D01*
X137670583Y-116075858D01*
X137809849Y-116190151D01*
X137924142Y-116329417D01*
X138009069Y-116488305D01*
X138061367Y-116660706D01*
X138079025Y-116840000D01*
X138061367Y-117019294D01*
X138009069Y-117191695D01*
X137924142Y-117350583D01*
X137809849Y-117489849D01*
X137670583Y-117604142D01*
X137511695Y-117689069D01*
X137339294Y-117741367D01*
X137204931Y-117754600D01*
X137115069Y-117754600D01*
X136980706Y-117741367D01*
X136808305Y-117689069D01*
X136649417Y-117604142D01*
X136510151Y-117489849D01*
X136395858Y-117350583D01*
X136310931Y-117191695D01*
X136258633Y-117019294D01*
X136240975Y-116840000D01*
X136258633Y-116660706D01*
X136310931Y-116488305D01*
X136395858Y-116329417D01*
X136510151Y-116190151D01*
X136649417Y-116075858D01*
X136808305Y-115990931D01*
X136980706Y-115938633D01*
X137115069Y-115925400D01*
X137204931Y-115925400D01*
X137339294Y-115938633D01*
X137339294Y-115938633D01*
G37*
G36*
X132259294Y-113398633D02*
G01*
X132431695Y-113450931D01*
X132590583Y-113535858D01*
X132729849Y-113650151D01*
X132844142Y-113789417D01*
X132929069Y-113948305D01*
X132981367Y-114120706D01*
X132999025Y-114300000D01*
X132981367Y-114479294D01*
X132929069Y-114651695D01*
X132844142Y-114810583D01*
X132729849Y-114949849D01*
X132590583Y-115064142D01*
X132431695Y-115149069D01*
X132259294Y-115201367D01*
X132124931Y-115214600D01*
X132035069Y-115214600D01*
X131900706Y-115201367D01*
X131728305Y-115149069D01*
X131569417Y-115064142D01*
X131430151Y-114949849D01*
X131315858Y-114810583D01*
X131230931Y-114651695D01*
X131178633Y-114479294D01*
X131160975Y-114300000D01*
X131178633Y-114120706D01*
X131230931Y-113948305D01*
X131315858Y-113789417D01*
X131430151Y-113650151D01*
X131569417Y-113535858D01*
X131728305Y-113450931D01*
X131900706Y-113398633D01*
X132035069Y-113385400D01*
X132124931Y-113385400D01*
X132259294Y-113398633D01*
X132259294Y-113398633D01*
G37*
G36*
X134799294Y-113398633D02*
G01*
X134971695Y-113450931D01*
X135130583Y-113535858D01*
X135269849Y-113650151D01*
X135384142Y-113789417D01*
X135469069Y-113948305D01*
X135521367Y-114120706D01*
X135539025Y-114300000D01*
X135521367Y-114479294D01*
X135469069Y-114651695D01*
X135384142Y-114810583D01*
X135269849Y-114949849D01*
X135130583Y-115064142D01*
X134971695Y-115149069D01*
X134799294Y-115201367D01*
X134664931Y-115214600D01*
X134575069Y-115214600D01*
X134440706Y-115201367D01*
X134268305Y-115149069D01*
X134109417Y-115064142D01*
X133970151Y-114949849D01*
X133855858Y-114810583D01*
X133770931Y-114651695D01*
X133718633Y-114479294D01*
X133700975Y-114300000D01*
X133718633Y-114120706D01*
X133770931Y-113948305D01*
X133855858Y-113789417D01*
X133970151Y-113650151D01*
X134109417Y-113535858D01*
X134268305Y-113450931D01*
X134440706Y-113398633D01*
X134575069Y-113385400D01*
X134664931Y-113385400D01*
X134799294Y-113398633D01*
X134799294Y-113398633D01*
G37*
G36*
X138074600Y-115214600D02*
G01*
X136245400Y-115214600D01*
X136245400Y-113385400D01*
X138074600Y-113385400D01*
X138074600Y-115214600D01*
X138074600Y-115214600D01*
G37*
G36*
X104388228Y-113481703D02*
G01*
X104543100Y-113545853D01*
X104682481Y-113638985D01*
X104801015Y-113757519D01*
X104894147Y-113896900D01*
X104958297Y-114051772D01*
X104991000Y-114216184D01*
X104991000Y-114383816D01*
X104958297Y-114548228D01*
X104894147Y-114703100D01*
X104801015Y-114842481D01*
X104682481Y-114961015D01*
X104543100Y-115054147D01*
X104388228Y-115118297D01*
X104223816Y-115151000D01*
X104056184Y-115151000D01*
X103891772Y-115118297D01*
X103736900Y-115054147D01*
X103597519Y-114961015D01*
X103478985Y-114842481D01*
X103385853Y-114703100D01*
X103321703Y-114548228D01*
X103289000Y-114383816D01*
X103289000Y-114216184D01*
X103321703Y-114051772D01*
X103385853Y-113896900D01*
X103478985Y-113757519D01*
X103597519Y-113638985D01*
X103736900Y-113545853D01*
X103891772Y-113481703D01*
X104056184Y-113449000D01*
X104223816Y-113449000D01*
X104388228Y-113481703D01*
X104388228Y-113481703D01*
G37*
G36*
X115183228Y-113481703D02*
G01*
X115338100Y-113545853D01*
X115477481Y-113638985D01*
X115596015Y-113757519D01*
X115689147Y-113896900D01*
X115753297Y-114051772D01*
X115786000Y-114216184D01*
X115786000Y-114383816D01*
X115753297Y-114548228D01*
X115689147Y-114703100D01*
X115596015Y-114842481D01*
X115477481Y-114961015D01*
X115338100Y-115054147D01*
X115183228Y-115118297D01*
X115018816Y-115151000D01*
X114851184Y-115151000D01*
X114686772Y-115118297D01*
X114531900Y-115054147D01*
X114392519Y-114961015D01*
X114273985Y-114842481D01*
X114180853Y-114703100D01*
X114116703Y-114548228D01*
X114084000Y-114383816D01*
X114084000Y-114216184D01*
X114116703Y-114051772D01*
X114180853Y-113896900D01*
X114273985Y-113757519D01*
X114392519Y-113638985D01*
X114531900Y-113545853D01*
X114686772Y-113481703D01*
X114851184Y-113449000D01*
X115018816Y-113449000D01*
X115183228Y-113481703D01*
X115183228Y-113481703D01*
G37*
G36*
X107481823Y-113461313D02*
G01*
X107642242Y-113509976D01*
X107709361Y-113545852D01*
X107790078Y-113588996D01*
X107919659Y-113695341D01*
X108026004Y-113824922D01*
X108026005Y-113824924D01*
X108105024Y-113972758D01*
X108153687Y-114133177D01*
X108170117Y-114300000D01*
X108153687Y-114466823D01*
X108105024Y-114627242D01*
X108064477Y-114703100D01*
X108026004Y-114775078D01*
X107919659Y-114904659D01*
X107790078Y-115011004D01*
X107790076Y-115011005D01*
X107642242Y-115090024D01*
X107481823Y-115138687D01*
X107356804Y-115151000D01*
X107273196Y-115151000D01*
X107148177Y-115138687D01*
X106987758Y-115090024D01*
X106839924Y-115011005D01*
X106839922Y-115011004D01*
X106710341Y-114904659D01*
X106603996Y-114775078D01*
X106565523Y-114703100D01*
X106524976Y-114627242D01*
X106476313Y-114466823D01*
X106459883Y-114300000D01*
X106476313Y-114133177D01*
X106524976Y-113972758D01*
X106603995Y-113824924D01*
X106603996Y-113824922D01*
X106710341Y-113695341D01*
X106839922Y-113588996D01*
X106920639Y-113545852D01*
X106987758Y-113509976D01*
X107148177Y-113461313D01*
X107273196Y-113449000D01*
X107356804Y-113449000D01*
X107481823Y-113461313D01*
X107481823Y-113461313D01*
G37*
G36*
X96686823Y-113461313D02*
G01*
X96847242Y-113509976D01*
X96914361Y-113545852D01*
X96995078Y-113588996D01*
X97124659Y-113695341D01*
X97231004Y-113824922D01*
X97231005Y-113824924D01*
X97310024Y-113972758D01*
X97358687Y-114133177D01*
X97375117Y-114300000D01*
X97358687Y-114466823D01*
X97310024Y-114627242D01*
X97269477Y-114703100D01*
X97231004Y-114775078D01*
X97124659Y-114904659D01*
X96995078Y-115011004D01*
X96995076Y-115011005D01*
X96847242Y-115090024D01*
X96686823Y-115138687D01*
X96561804Y-115151000D01*
X96478196Y-115151000D01*
X96353177Y-115138687D01*
X96192758Y-115090024D01*
X96044924Y-115011005D01*
X96044922Y-115011004D01*
X95915341Y-114904659D01*
X95808996Y-114775078D01*
X95770523Y-114703100D01*
X95729976Y-114627242D01*
X95681313Y-114466823D01*
X95664883Y-114300000D01*
X95681313Y-114133177D01*
X95729976Y-113972758D01*
X95808995Y-113824924D01*
X95808996Y-113824922D01*
X95915341Y-113695341D01*
X96044922Y-113588996D01*
X96125639Y-113545852D01*
X96192758Y-113509976D01*
X96353177Y-113461313D01*
X96478196Y-113449000D01*
X96561804Y-113449000D01*
X96686823Y-113461313D01*
X96686823Y-113461313D01*
G37*
G36*
X90291256Y-110405298D02*
G01*
X90397579Y-110426447D01*
X90698042Y-110550903D01*
X90968451Y-110731585D01*
X91198415Y-110961549D01*
X91304165Y-111119815D01*
X91379098Y-111231960D01*
X91389474Y-111257011D01*
X91503553Y-111532421D01*
X91567000Y-111851391D01*
X91567000Y-112176609D01*
X91503553Y-112495579D01*
X91379097Y-112796042D01*
X91198415Y-113066451D01*
X90968451Y-113296415D01*
X90698042Y-113477097D01*
X90698041Y-113477098D01*
X90698040Y-113477098D01*
X90618668Y-113509975D01*
X90397579Y-113601553D01*
X90291256Y-113622702D01*
X90078611Y-113665000D01*
X89753389Y-113665000D01*
X89540744Y-113622702D01*
X89434421Y-113601553D01*
X89213332Y-113509975D01*
X89133960Y-113477098D01*
X89133959Y-113477098D01*
X89133958Y-113477097D01*
X88863549Y-113296415D01*
X88633585Y-113066451D01*
X88452903Y-112796042D01*
X88328447Y-112495579D01*
X88265000Y-112176609D01*
X88265000Y-111851391D01*
X88328447Y-111532421D01*
X88442526Y-111257011D01*
X88452902Y-111231960D01*
X88527835Y-111119815D01*
X88633585Y-110961549D01*
X88863549Y-110731585D01*
X89133958Y-110550903D01*
X89434421Y-110426447D01*
X89540744Y-110405298D01*
X89753389Y-110363000D01*
X90078611Y-110363000D01*
X90291256Y-110405298D01*
X90291256Y-110405298D01*
G37*
G36*
X155050442Y-110865518D02*
G01*
X155116627Y-110872037D01*
X155286466Y-110923557D01*
X155442991Y-111007222D01*
X155478729Y-111036552D01*
X155580186Y-111119814D01*
X155663448Y-111221271D01*
X155692778Y-111257009D01*
X155776443Y-111413534D01*
X155827963Y-111583373D01*
X155845359Y-111760000D01*
X155827963Y-111936627D01*
X155776443Y-112106466D01*
X155776442Y-112106468D01*
X155738949Y-112176611D01*
X155692778Y-112262991D01*
X155663448Y-112298729D01*
X155580186Y-112400186D01*
X155478729Y-112483448D01*
X155442991Y-112512778D01*
X155286466Y-112596443D01*
X155116627Y-112647963D01*
X155050442Y-112654482D01*
X154984260Y-112661000D01*
X154895740Y-112661000D01*
X154829558Y-112654482D01*
X154763373Y-112647963D01*
X154593534Y-112596443D01*
X154437009Y-112512778D01*
X154401271Y-112483448D01*
X154299814Y-112400186D01*
X154216552Y-112298729D01*
X154187222Y-112262991D01*
X154141051Y-112176611D01*
X154103558Y-112106468D01*
X154103557Y-112106466D01*
X154052037Y-111936627D01*
X154034641Y-111760000D01*
X154052037Y-111583373D01*
X154103557Y-111413534D01*
X154187222Y-111257009D01*
X154216552Y-111221271D01*
X154299814Y-111119814D01*
X154401271Y-111036552D01*
X154437009Y-111007222D01*
X154593534Y-110923557D01*
X154763373Y-110872037D01*
X154829558Y-110865518D01*
X154895740Y-110859000D01*
X154984260Y-110859000D01*
X155050442Y-110865518D01*
X155050442Y-110865518D01*
G37*
G36*
X152510442Y-110865518D02*
G01*
X152576627Y-110872037D01*
X152746466Y-110923557D01*
X152902991Y-111007222D01*
X152938729Y-111036552D01*
X153040186Y-111119814D01*
X153123448Y-111221271D01*
X153152778Y-111257009D01*
X153236443Y-111413534D01*
X153287963Y-111583373D01*
X153305359Y-111760000D01*
X153287963Y-111936627D01*
X153236443Y-112106466D01*
X153236442Y-112106468D01*
X153198949Y-112176611D01*
X153152778Y-112262991D01*
X153123448Y-112298729D01*
X153040186Y-112400186D01*
X152938729Y-112483448D01*
X152902991Y-112512778D01*
X152746466Y-112596443D01*
X152576627Y-112647963D01*
X152510442Y-112654482D01*
X152444260Y-112661000D01*
X152355740Y-112661000D01*
X152289558Y-112654482D01*
X152223373Y-112647963D01*
X152053534Y-112596443D01*
X151897009Y-112512778D01*
X151861271Y-112483448D01*
X151759814Y-112400186D01*
X151676552Y-112298729D01*
X151647222Y-112262991D01*
X151601051Y-112176611D01*
X151563558Y-112106468D01*
X151563557Y-112106466D01*
X151512037Y-111936627D01*
X151494641Y-111760000D01*
X151512037Y-111583373D01*
X151563557Y-111413534D01*
X151647222Y-111257009D01*
X151676552Y-111221271D01*
X151759814Y-111119814D01*
X151861271Y-111036552D01*
X151897009Y-111007222D01*
X152053534Y-110923557D01*
X152223373Y-110872037D01*
X152289558Y-110865518D01*
X152355740Y-110859000D01*
X152444260Y-110859000D01*
X152510442Y-110865518D01*
X152510442Y-110865518D01*
G37*
G36*
X155050443Y-108325519D02*
G01*
X155116627Y-108332037D01*
X155286466Y-108383557D01*
X155442991Y-108467222D01*
X155478729Y-108496552D01*
X155580186Y-108579814D01*
X155663448Y-108681271D01*
X155692778Y-108717009D01*
X155776443Y-108873534D01*
X155827963Y-109043373D01*
X155845359Y-109220000D01*
X155827963Y-109396627D01*
X155776443Y-109566466D01*
X155692778Y-109722991D01*
X155663448Y-109758729D01*
X155580186Y-109860186D01*
X155478729Y-109943448D01*
X155442991Y-109972778D01*
X155286466Y-110056443D01*
X155116627Y-110107963D01*
X155050443Y-110114481D01*
X154984260Y-110121000D01*
X154895740Y-110121000D01*
X154829557Y-110114481D01*
X154763373Y-110107963D01*
X154593534Y-110056443D01*
X154437009Y-109972778D01*
X154401271Y-109943448D01*
X154299814Y-109860186D01*
X154216552Y-109758729D01*
X154187222Y-109722991D01*
X154103557Y-109566466D01*
X154052037Y-109396627D01*
X154034641Y-109220000D01*
X154052037Y-109043373D01*
X154103557Y-108873534D01*
X154187222Y-108717009D01*
X154216552Y-108681271D01*
X154299814Y-108579814D01*
X154401271Y-108496552D01*
X154437009Y-108467222D01*
X154593534Y-108383557D01*
X154763373Y-108332037D01*
X154829557Y-108325519D01*
X154895740Y-108319000D01*
X154984260Y-108319000D01*
X155050443Y-108325519D01*
X155050443Y-108325519D01*
G37*
G36*
X152510443Y-108325519D02*
G01*
X152576627Y-108332037D01*
X152746466Y-108383557D01*
X152902991Y-108467222D01*
X152938729Y-108496552D01*
X153040186Y-108579814D01*
X153123448Y-108681271D01*
X153152778Y-108717009D01*
X153236443Y-108873534D01*
X153287963Y-109043373D01*
X153305359Y-109220000D01*
X153287963Y-109396627D01*
X153236443Y-109566466D01*
X153152778Y-109722991D01*
X153123448Y-109758729D01*
X153040186Y-109860186D01*
X152938729Y-109943448D01*
X152902991Y-109972778D01*
X152746466Y-110056443D01*
X152576627Y-110107963D01*
X152510443Y-110114481D01*
X152444260Y-110121000D01*
X152355740Y-110121000D01*
X152289557Y-110114481D01*
X152223373Y-110107963D01*
X152053534Y-110056443D01*
X151897009Y-109972778D01*
X151861271Y-109943448D01*
X151759814Y-109860186D01*
X151676552Y-109758729D01*
X151647222Y-109722991D01*
X151563557Y-109566466D01*
X151512037Y-109396627D01*
X151494641Y-109220000D01*
X151512037Y-109043373D01*
X151563557Y-108873534D01*
X151647222Y-108717009D01*
X151676552Y-108681271D01*
X151759814Y-108579814D01*
X151861271Y-108496552D01*
X151897009Y-108467222D01*
X152053534Y-108383557D01*
X152223373Y-108332037D01*
X152289557Y-108325519D01*
X152355740Y-108319000D01*
X152444260Y-108319000D01*
X152510443Y-108325519D01*
X152510443Y-108325519D01*
G37*
G36*
X96151000Y-107581000D02*
G01*
X94349000Y-107581000D01*
X94349000Y-105779000D01*
X96151000Y-105779000D01*
X96151000Y-107581000D01*
X96151000Y-107581000D01*
G37*
G36*
X155050443Y-105785519D02*
G01*
X155116627Y-105792037D01*
X155286466Y-105843557D01*
X155442991Y-105927222D01*
X155478729Y-105956552D01*
X155580186Y-106039814D01*
X155655137Y-106131144D01*
X155692778Y-106177009D01*
X155776443Y-106333534D01*
X155827963Y-106503373D01*
X155845359Y-106680000D01*
X155827963Y-106856627D01*
X155776443Y-107026466D01*
X155692778Y-107182991D01*
X155663448Y-107218729D01*
X155580186Y-107320186D01*
X155478729Y-107403448D01*
X155442991Y-107432778D01*
X155286466Y-107516443D01*
X155116627Y-107567963D01*
X155050443Y-107574481D01*
X154984260Y-107581000D01*
X154895740Y-107581000D01*
X154829557Y-107574481D01*
X154763373Y-107567963D01*
X154593534Y-107516443D01*
X154437009Y-107432778D01*
X154401271Y-107403448D01*
X154299814Y-107320186D01*
X154216552Y-107218729D01*
X154187222Y-107182991D01*
X154103557Y-107026466D01*
X154052037Y-106856627D01*
X154034641Y-106680000D01*
X154052037Y-106503373D01*
X154103557Y-106333534D01*
X154187222Y-106177009D01*
X154224863Y-106131144D01*
X154299814Y-106039814D01*
X154401271Y-105956552D01*
X154437009Y-105927222D01*
X154593534Y-105843557D01*
X154763373Y-105792037D01*
X154829557Y-105785519D01*
X154895740Y-105779000D01*
X154984260Y-105779000D01*
X155050443Y-105785519D01*
X155050443Y-105785519D01*
G37*
G36*
X152510443Y-105785519D02*
G01*
X152576627Y-105792037D01*
X152746466Y-105843557D01*
X152902991Y-105927222D01*
X152938729Y-105956552D01*
X153040186Y-106039814D01*
X153115137Y-106131144D01*
X153152778Y-106177009D01*
X153236443Y-106333534D01*
X153287963Y-106503373D01*
X153305359Y-106680000D01*
X153287963Y-106856627D01*
X153236443Y-107026466D01*
X153152778Y-107182991D01*
X153123448Y-107218729D01*
X153040186Y-107320186D01*
X152938729Y-107403448D01*
X152902991Y-107432778D01*
X152746466Y-107516443D01*
X152576627Y-107567963D01*
X152510443Y-107574481D01*
X152444260Y-107581000D01*
X152355740Y-107581000D01*
X152289557Y-107574481D01*
X152223373Y-107567963D01*
X152053534Y-107516443D01*
X151897009Y-107432778D01*
X151861271Y-107403448D01*
X151759814Y-107320186D01*
X151676552Y-107218729D01*
X151647222Y-107182991D01*
X151563557Y-107026466D01*
X151512037Y-106856627D01*
X151494641Y-106680000D01*
X151512037Y-106503373D01*
X151563557Y-106333534D01*
X151647222Y-106177009D01*
X151684863Y-106131144D01*
X151759814Y-106039814D01*
X151861271Y-105956552D01*
X151897009Y-105927222D01*
X152053534Y-105843557D01*
X152223373Y-105792037D01*
X152289557Y-105785519D01*
X152355740Y-105779000D01*
X152444260Y-105779000D01*
X152510443Y-105785519D01*
X152510443Y-105785519D01*
G37*
G36*
X101216143Y-105852087D02*
G01*
X101372838Y-105916992D01*
X101513853Y-106011215D01*
X101633785Y-106131147D01*
X101728008Y-106272162D01*
X101792913Y-106428857D01*
X101826000Y-106595198D01*
X101826000Y-106764802D01*
X101792913Y-106931143D01*
X101728008Y-107087838D01*
X101633785Y-107228853D01*
X101513853Y-107348785D01*
X101372838Y-107443008D01*
X101216143Y-107507913D01*
X101049802Y-107541000D01*
X100880198Y-107541000D01*
X100713857Y-107507913D01*
X100557162Y-107443008D01*
X100416147Y-107348785D01*
X100296215Y-107228853D01*
X100201992Y-107087838D01*
X100137087Y-106931143D01*
X100104000Y-106764802D01*
X100104000Y-106595198D01*
X100137087Y-106428857D01*
X100201992Y-106272162D01*
X100296215Y-106131147D01*
X100416147Y-106011215D01*
X100557162Y-105916992D01*
X100713857Y-105852087D01*
X100880198Y-105819000D01*
X101049802Y-105819000D01*
X101216143Y-105852087D01*
X101216143Y-105852087D01*
G37*
G36*
X106216143Y-103352087D02*
G01*
X106372838Y-103416992D01*
X106513853Y-103511215D01*
X106633785Y-103631147D01*
X106728008Y-103772162D01*
X106792913Y-103928857D01*
X106826000Y-104095198D01*
X106826000Y-104264802D01*
X106792913Y-104431143D01*
X106728008Y-104587838D01*
X106633785Y-104728853D01*
X106513853Y-104848785D01*
X106372838Y-104943008D01*
X106216143Y-105007913D01*
X106049802Y-105041000D01*
X105880198Y-105041000D01*
X105713857Y-105007913D01*
X105557162Y-104943008D01*
X105416147Y-104848785D01*
X105296215Y-104728853D01*
X105201992Y-104587838D01*
X105137087Y-104431143D01*
X105104000Y-104264802D01*
X105104000Y-104095198D01*
X105137087Y-103928857D01*
X105201992Y-103772162D01*
X105296215Y-103631147D01*
X105416147Y-103511215D01*
X105557162Y-103416992D01*
X105713857Y-103352087D01*
X105880198Y-103319000D01*
X106049802Y-103319000D01*
X106216143Y-103352087D01*
X106216143Y-103352087D01*
G37*
G36*
X153301000Y-105041000D02*
G01*
X151499000Y-105041000D01*
X151499000Y-103239000D01*
X153301000Y-103239000D01*
X153301000Y-105041000D01*
X153301000Y-105041000D01*
G37*
G36*
X155050443Y-103245519D02*
G01*
X155116627Y-103252037D01*
X155286466Y-103303557D01*
X155442991Y-103387222D01*
X155478729Y-103416552D01*
X155580186Y-103499814D01*
X155663448Y-103601271D01*
X155692778Y-103637009D01*
X155776443Y-103793534D01*
X155827963Y-103963373D01*
X155845359Y-104140000D01*
X155827963Y-104316627D01*
X155776443Y-104486466D01*
X155692778Y-104642991D01*
X155663448Y-104678729D01*
X155580186Y-104780186D01*
X155478729Y-104863448D01*
X155442991Y-104892778D01*
X155286466Y-104976443D01*
X155116627Y-105027963D01*
X155050442Y-105034482D01*
X154984260Y-105041000D01*
X154895740Y-105041000D01*
X154829557Y-105034481D01*
X154763373Y-105027963D01*
X154593534Y-104976443D01*
X154437009Y-104892778D01*
X154401271Y-104863448D01*
X154299814Y-104780186D01*
X154216552Y-104678729D01*
X154187222Y-104642991D01*
X154103557Y-104486466D01*
X154052037Y-104316627D01*
X154034641Y-104140000D01*
X154052037Y-103963373D01*
X154103557Y-103793534D01*
X154187222Y-103637009D01*
X154216552Y-103601271D01*
X154299814Y-103499814D01*
X154401271Y-103416552D01*
X154437009Y-103387222D01*
X154593534Y-103303557D01*
X154763373Y-103252037D01*
X154829558Y-103245518D01*
X154895740Y-103239000D01*
X154984260Y-103239000D01*
X155050443Y-103245519D01*
X155050443Y-103245519D01*
G37*
G36*
X95360443Y-103245519D02*
G01*
X95426627Y-103252037D01*
X95596466Y-103303557D01*
X95752991Y-103387222D01*
X95788729Y-103416552D01*
X95890186Y-103499814D01*
X95973448Y-103601271D01*
X96002778Y-103637009D01*
X96086443Y-103793534D01*
X96137963Y-103963373D01*
X96155359Y-104140000D01*
X96137963Y-104316627D01*
X96086443Y-104486466D01*
X96002778Y-104642991D01*
X95973448Y-104678729D01*
X95890186Y-104780186D01*
X95788729Y-104863448D01*
X95752991Y-104892778D01*
X95596466Y-104976443D01*
X95426627Y-105027963D01*
X95360442Y-105034482D01*
X95294260Y-105041000D01*
X95205740Y-105041000D01*
X95139557Y-105034481D01*
X95073373Y-105027963D01*
X94903534Y-104976443D01*
X94747009Y-104892778D01*
X94711271Y-104863448D01*
X94609814Y-104780186D01*
X94526552Y-104678729D01*
X94497222Y-104642991D01*
X94413557Y-104486466D01*
X94362037Y-104316627D01*
X94344641Y-104140000D01*
X94362037Y-103963373D01*
X94413557Y-103793534D01*
X94497222Y-103637009D01*
X94526552Y-103601271D01*
X94609814Y-103499814D01*
X94711271Y-103416552D01*
X94747009Y-103387222D01*
X94903534Y-103303557D01*
X95073373Y-103252037D01*
X95139558Y-103245518D01*
X95205740Y-103239000D01*
X95294260Y-103239000D01*
X95360443Y-103245519D01*
X95360443Y-103245519D01*
G37*
G36*
X101216143Y-100852087D02*
G01*
X101372838Y-100916992D01*
X101513853Y-101011215D01*
X101633785Y-101131147D01*
X101728008Y-101272162D01*
X101792913Y-101428857D01*
X101826000Y-101595198D01*
X101826000Y-101764802D01*
X101792913Y-101931143D01*
X101728008Y-102087838D01*
X101633785Y-102228853D01*
X101513853Y-102348785D01*
X101372838Y-102443008D01*
X101216143Y-102507913D01*
X101049802Y-102541000D01*
X100880198Y-102541000D01*
X100713857Y-102507913D01*
X100557162Y-102443008D01*
X100416147Y-102348785D01*
X100296215Y-102228853D01*
X100201992Y-102087838D01*
X100137087Y-101931143D01*
X100104000Y-101764802D01*
X100104000Y-101595198D01*
X100137087Y-101428857D01*
X100201992Y-101272162D01*
X100296215Y-101131147D01*
X100416147Y-101011215D01*
X100557162Y-100916992D01*
X100713857Y-100852087D01*
X100880198Y-100819000D01*
X101049802Y-100819000D01*
X101216143Y-100852087D01*
X101216143Y-100852087D01*
G37*
G36*
X95360443Y-100705519D02*
G01*
X95426627Y-100712037D01*
X95596466Y-100763557D01*
X95752991Y-100847222D01*
X95758920Y-100852088D01*
X95890186Y-100959814D01*
X95973448Y-101061271D01*
X96002778Y-101097009D01*
X96086443Y-101253534D01*
X96137963Y-101423373D01*
X96155359Y-101600000D01*
X96137963Y-101776627D01*
X96086443Y-101946466D01*
X96002778Y-102102991D01*
X95973448Y-102138729D01*
X95890186Y-102240186D01*
X95788729Y-102323448D01*
X95752991Y-102352778D01*
X95596466Y-102436443D01*
X95426627Y-102487963D01*
X95360442Y-102494482D01*
X95294260Y-102501000D01*
X95205740Y-102501000D01*
X95139558Y-102494482D01*
X95073373Y-102487963D01*
X94903534Y-102436443D01*
X94747009Y-102352778D01*
X94711271Y-102323448D01*
X94609814Y-102240186D01*
X94526552Y-102138729D01*
X94497222Y-102102991D01*
X94413557Y-101946466D01*
X94362037Y-101776627D01*
X94344641Y-101600000D01*
X94362037Y-101423373D01*
X94413557Y-101253534D01*
X94497222Y-101097009D01*
X94526552Y-101061271D01*
X94609814Y-100959814D01*
X94741080Y-100852088D01*
X94747009Y-100847222D01*
X94903534Y-100763557D01*
X95073373Y-100712037D01*
X95139557Y-100705519D01*
X95205740Y-100699000D01*
X95294260Y-100699000D01*
X95360443Y-100705519D01*
X95360443Y-100705519D01*
G37*
G36*
X95360443Y-98165519D02*
G01*
X95426627Y-98172037D01*
X95596466Y-98223557D01*
X95752991Y-98307222D01*
X95788729Y-98336552D01*
X95890186Y-98419814D01*
X95973448Y-98521271D01*
X96002778Y-98557009D01*
X96086443Y-98713534D01*
X96137963Y-98883373D01*
X96155359Y-99060000D01*
X96137963Y-99236627D01*
X96086443Y-99406466D01*
X96002778Y-99562991D01*
X95973448Y-99598729D01*
X95890186Y-99700186D01*
X95788729Y-99783448D01*
X95752991Y-99812778D01*
X95596466Y-99896443D01*
X95426627Y-99947963D01*
X95360443Y-99954481D01*
X95294260Y-99961000D01*
X95205740Y-99961000D01*
X95139557Y-99954481D01*
X95073373Y-99947963D01*
X94903534Y-99896443D01*
X94747009Y-99812778D01*
X94711271Y-99783448D01*
X94609814Y-99700186D01*
X94526552Y-99598729D01*
X94497222Y-99562991D01*
X94413557Y-99406466D01*
X94362037Y-99236627D01*
X94344641Y-99060000D01*
X94362037Y-98883373D01*
X94413557Y-98713534D01*
X94497222Y-98557009D01*
X94526552Y-98521271D01*
X94609814Y-98419814D01*
X94711271Y-98336552D01*
X94747009Y-98307222D01*
X94903534Y-98223557D01*
X95073373Y-98172037D01*
X95139557Y-98165519D01*
X95205740Y-98159000D01*
X95294260Y-98159000D01*
X95360443Y-98165519D01*
X95360443Y-98165519D01*
G37*
G36*
X152510442Y-96895518D02*
G01*
X152576627Y-96902037D01*
X152746466Y-96953557D01*
X152902991Y-97037222D01*
X152938729Y-97066552D01*
X153040186Y-97149814D01*
X153123448Y-97251271D01*
X153152778Y-97287009D01*
X153236443Y-97443534D01*
X153287963Y-97613373D01*
X153305359Y-97790000D01*
X153287963Y-97966627D01*
X153236443Y-98136466D01*
X153152778Y-98292991D01*
X153123448Y-98328729D01*
X153040186Y-98430186D01*
X152938729Y-98513448D01*
X152902991Y-98542778D01*
X152746466Y-98626443D01*
X152576627Y-98677963D01*
X152510442Y-98684482D01*
X152444260Y-98691000D01*
X152355740Y-98691000D01*
X152289558Y-98684482D01*
X152223373Y-98677963D01*
X152053534Y-98626443D01*
X151897009Y-98542778D01*
X151861271Y-98513448D01*
X151759814Y-98430186D01*
X151676552Y-98328729D01*
X151647222Y-98292991D01*
X151563557Y-98136466D01*
X151512037Y-97966627D01*
X151494641Y-97790000D01*
X151512037Y-97613373D01*
X151563557Y-97443534D01*
X151647222Y-97287009D01*
X151676552Y-97251271D01*
X151759814Y-97149814D01*
X151861271Y-97066552D01*
X151897009Y-97037222D01*
X152053534Y-96953557D01*
X152223373Y-96902037D01*
X152289558Y-96895518D01*
X152355740Y-96889000D01*
X152444260Y-96889000D01*
X152510442Y-96895518D01*
X152510442Y-96895518D01*
G37*
G36*
X155050442Y-96895518D02*
G01*
X155116627Y-96902037D01*
X155286466Y-96953557D01*
X155442991Y-97037222D01*
X155478729Y-97066552D01*
X155580186Y-97149814D01*
X155663448Y-97251271D01*
X155692778Y-97287009D01*
X155776443Y-97443534D01*
X155827963Y-97613373D01*
X155845359Y-97790000D01*
X155827963Y-97966627D01*
X155776443Y-98136466D01*
X155692778Y-98292991D01*
X155663448Y-98328729D01*
X155580186Y-98430186D01*
X155478729Y-98513448D01*
X155442991Y-98542778D01*
X155286466Y-98626443D01*
X155116627Y-98677963D01*
X155050442Y-98684482D01*
X154984260Y-98691000D01*
X154895740Y-98691000D01*
X154829558Y-98684482D01*
X154763373Y-98677963D01*
X154593534Y-98626443D01*
X154437009Y-98542778D01*
X154401271Y-98513448D01*
X154299814Y-98430186D01*
X154216552Y-98328729D01*
X154187222Y-98292991D01*
X154103557Y-98136466D01*
X154052037Y-97966627D01*
X154034641Y-97790000D01*
X154052037Y-97613373D01*
X154103557Y-97443534D01*
X154187222Y-97287009D01*
X154216552Y-97251271D01*
X154299814Y-97149814D01*
X154401271Y-97066552D01*
X154437009Y-97037222D01*
X154593534Y-96953557D01*
X154763373Y-96902037D01*
X154829558Y-96895518D01*
X154895740Y-96889000D01*
X154984260Y-96889000D01*
X155050442Y-96895518D01*
X155050442Y-96895518D01*
G37*
G36*
X95360442Y-95625518D02*
G01*
X95426627Y-95632037D01*
X95596466Y-95683557D01*
X95752991Y-95767222D01*
X95788729Y-95796552D01*
X95890186Y-95879814D01*
X95973448Y-95981271D01*
X96002778Y-96017009D01*
X96086443Y-96173534D01*
X96137963Y-96343373D01*
X96155359Y-96520000D01*
X96137963Y-96696627D01*
X96086443Y-96866466D01*
X96002778Y-97022991D01*
X95973448Y-97058729D01*
X95890186Y-97160186D01*
X95788729Y-97243448D01*
X95752991Y-97272778D01*
X95596466Y-97356443D01*
X95426627Y-97407963D01*
X95360442Y-97414482D01*
X95294260Y-97421000D01*
X95205740Y-97421000D01*
X95139558Y-97414482D01*
X95073373Y-97407963D01*
X94903534Y-97356443D01*
X94747009Y-97272778D01*
X94711271Y-97243448D01*
X94609814Y-97160186D01*
X94526552Y-97058729D01*
X94497222Y-97022991D01*
X94413557Y-96866466D01*
X94362037Y-96696627D01*
X94344641Y-96520000D01*
X94362037Y-96343373D01*
X94413557Y-96173534D01*
X94497222Y-96017009D01*
X94526552Y-95981271D01*
X94609814Y-95879814D01*
X94711271Y-95796552D01*
X94747009Y-95767222D01*
X94903534Y-95683557D01*
X95073373Y-95632037D01*
X95139558Y-95625518D01*
X95205740Y-95619000D01*
X95294260Y-95619000D01*
X95360442Y-95625518D01*
X95360442Y-95625518D01*
G37*
G36*
X152510442Y-94355518D02*
G01*
X152576627Y-94362037D01*
X152746466Y-94413557D01*
X152902991Y-94497222D01*
X152938729Y-94526552D01*
X153040186Y-94609814D01*
X153123448Y-94711271D01*
X153152778Y-94747009D01*
X153236443Y-94903534D01*
X153287963Y-95073373D01*
X153305359Y-95250000D01*
X153287963Y-95426627D01*
X153236443Y-95596466D01*
X153152778Y-95752991D01*
X153123448Y-95788729D01*
X153040186Y-95890186D01*
X152938729Y-95973448D01*
X152902991Y-96002778D01*
X152746466Y-96086443D01*
X152576627Y-96137963D01*
X152510443Y-96144481D01*
X152444260Y-96151000D01*
X152355740Y-96151000D01*
X152289558Y-96144482D01*
X152223373Y-96137963D01*
X152053534Y-96086443D01*
X151897009Y-96002778D01*
X151861271Y-95973448D01*
X151759814Y-95890186D01*
X151676552Y-95788729D01*
X151647222Y-95752991D01*
X151563557Y-95596466D01*
X151512037Y-95426627D01*
X151494641Y-95250000D01*
X151512037Y-95073373D01*
X151563557Y-94903534D01*
X151647222Y-94747009D01*
X151676552Y-94711271D01*
X151759814Y-94609814D01*
X151861271Y-94526552D01*
X151897009Y-94497222D01*
X152053534Y-94413557D01*
X152223373Y-94362037D01*
X152289557Y-94355519D01*
X152355740Y-94349000D01*
X152444260Y-94349000D01*
X152510442Y-94355518D01*
X152510442Y-94355518D01*
G37*
G36*
X155050442Y-94355518D02*
G01*
X155116627Y-94362037D01*
X155286466Y-94413557D01*
X155442991Y-94497222D01*
X155478729Y-94526552D01*
X155580186Y-94609814D01*
X155663448Y-94711271D01*
X155692778Y-94747009D01*
X155776443Y-94903534D01*
X155827963Y-95073373D01*
X155845359Y-95250000D01*
X155827963Y-95426627D01*
X155776443Y-95596466D01*
X155692778Y-95752991D01*
X155663448Y-95788729D01*
X155580186Y-95890186D01*
X155478729Y-95973448D01*
X155442991Y-96002778D01*
X155286466Y-96086443D01*
X155116627Y-96137963D01*
X155050443Y-96144481D01*
X154984260Y-96151000D01*
X154895740Y-96151000D01*
X154829558Y-96144482D01*
X154763373Y-96137963D01*
X154593534Y-96086443D01*
X154437009Y-96002778D01*
X154401271Y-95973448D01*
X154299814Y-95890186D01*
X154216552Y-95788729D01*
X154187222Y-95752991D01*
X154103557Y-95596466D01*
X154052037Y-95426627D01*
X154034641Y-95250000D01*
X154052037Y-95073373D01*
X154103557Y-94903534D01*
X154187222Y-94747009D01*
X154216552Y-94711271D01*
X154299814Y-94609814D01*
X154401271Y-94526552D01*
X154437009Y-94497222D01*
X154593534Y-94413557D01*
X154763373Y-94362037D01*
X154829557Y-94355519D01*
X154895740Y-94349000D01*
X154984260Y-94349000D01*
X155050442Y-94355518D01*
X155050442Y-94355518D01*
G37*
G36*
X95360443Y-93085519D02*
G01*
X95426627Y-93092037D01*
X95596466Y-93143557D01*
X95752991Y-93227222D01*
X95788729Y-93256552D01*
X95890186Y-93339814D01*
X95973448Y-93441271D01*
X96002778Y-93477009D01*
X96086443Y-93633534D01*
X96137963Y-93803373D01*
X96155359Y-93980000D01*
X96137963Y-94156627D01*
X96086443Y-94326466D01*
X96002778Y-94482991D01*
X95973448Y-94518729D01*
X95890186Y-94620186D01*
X95788729Y-94703448D01*
X95752991Y-94732778D01*
X95596466Y-94816443D01*
X95426627Y-94867963D01*
X95360443Y-94874481D01*
X95294260Y-94881000D01*
X95205740Y-94881000D01*
X95139557Y-94874481D01*
X95073373Y-94867963D01*
X94903534Y-94816443D01*
X94747009Y-94732778D01*
X94711271Y-94703448D01*
X94609814Y-94620186D01*
X94526552Y-94518729D01*
X94497222Y-94482991D01*
X94413557Y-94326466D01*
X94362037Y-94156627D01*
X94344641Y-93980000D01*
X94362037Y-93803373D01*
X94413557Y-93633534D01*
X94497222Y-93477009D01*
X94526552Y-93441271D01*
X94609814Y-93339814D01*
X94711271Y-93256552D01*
X94747009Y-93227222D01*
X94903534Y-93143557D01*
X95073373Y-93092037D01*
X95139557Y-93085519D01*
X95205740Y-93079000D01*
X95294260Y-93079000D01*
X95360443Y-93085519D01*
X95360443Y-93085519D01*
G37*
G36*
X155050442Y-91815518D02*
G01*
X155116627Y-91822037D01*
X155286466Y-91873557D01*
X155442991Y-91957222D01*
X155478729Y-91986552D01*
X155580186Y-92069814D01*
X155663448Y-92171271D01*
X155692778Y-92207009D01*
X155776443Y-92363534D01*
X155827963Y-92533373D01*
X155845359Y-92710000D01*
X155827963Y-92886627D01*
X155776443Y-93056466D01*
X155692778Y-93212991D01*
X155663448Y-93248729D01*
X155580186Y-93350186D01*
X155478729Y-93433448D01*
X155442991Y-93462778D01*
X155286466Y-93546443D01*
X155116627Y-93597963D01*
X155050442Y-93604482D01*
X154984260Y-93611000D01*
X154895740Y-93611000D01*
X154829557Y-93604481D01*
X154763373Y-93597963D01*
X154593534Y-93546443D01*
X154437009Y-93462778D01*
X154401271Y-93433448D01*
X154299814Y-93350186D01*
X154216552Y-93248729D01*
X154187222Y-93212991D01*
X154103557Y-93056466D01*
X154052037Y-92886627D01*
X154034641Y-92710000D01*
X154052037Y-92533373D01*
X154103557Y-92363534D01*
X154187222Y-92207009D01*
X154216552Y-92171271D01*
X154299814Y-92069814D01*
X154401271Y-91986552D01*
X154437009Y-91957222D01*
X154593534Y-91873557D01*
X154763373Y-91822037D01*
X154829558Y-91815518D01*
X154895740Y-91809000D01*
X154984260Y-91809000D01*
X155050442Y-91815518D01*
X155050442Y-91815518D01*
G37*
G36*
X152510442Y-91815518D02*
G01*
X152576627Y-91822037D01*
X152746466Y-91873557D01*
X152902991Y-91957222D01*
X152938729Y-91986552D01*
X153040186Y-92069814D01*
X153123448Y-92171271D01*
X153152778Y-92207009D01*
X153236443Y-92363534D01*
X153287963Y-92533373D01*
X153305359Y-92710000D01*
X153287963Y-92886627D01*
X153236443Y-93056466D01*
X153152778Y-93212991D01*
X153123448Y-93248729D01*
X153040186Y-93350186D01*
X152938729Y-93433448D01*
X152902991Y-93462778D01*
X152746466Y-93546443D01*
X152576627Y-93597963D01*
X152510442Y-93604482D01*
X152444260Y-93611000D01*
X152355740Y-93611000D01*
X152289557Y-93604481D01*
X152223373Y-93597963D01*
X152053534Y-93546443D01*
X151897009Y-93462778D01*
X151861271Y-93433448D01*
X151759814Y-93350186D01*
X151676552Y-93248729D01*
X151647222Y-93212991D01*
X151563557Y-93056466D01*
X151512037Y-92886627D01*
X151494641Y-92710000D01*
X151512037Y-92533373D01*
X151563557Y-92363534D01*
X151647222Y-92207009D01*
X151676552Y-92171271D01*
X151759814Y-92069814D01*
X151861271Y-91986552D01*
X151897009Y-91957222D01*
X152053534Y-91873557D01*
X152223373Y-91822037D01*
X152289558Y-91815518D01*
X152355740Y-91809000D01*
X152444260Y-91809000D01*
X152510442Y-91815518D01*
X152510442Y-91815518D01*
G37*
G36*
X95360443Y-90545519D02*
G01*
X95426627Y-90552037D01*
X95596466Y-90603557D01*
X95752991Y-90687222D01*
X95788729Y-90716552D01*
X95890186Y-90799814D01*
X95973448Y-90901271D01*
X96002778Y-90937009D01*
X96086443Y-91093534D01*
X96137963Y-91263373D01*
X96155359Y-91440000D01*
X96137963Y-91616627D01*
X96086443Y-91786466D01*
X96002778Y-91942991D01*
X95973448Y-91978729D01*
X95890186Y-92080186D01*
X95788729Y-92163448D01*
X95752991Y-92192778D01*
X95596466Y-92276443D01*
X95426627Y-92327963D01*
X95360443Y-92334481D01*
X95294260Y-92341000D01*
X95205740Y-92341000D01*
X95139557Y-92334481D01*
X95073373Y-92327963D01*
X94903534Y-92276443D01*
X94747009Y-92192778D01*
X94711271Y-92163448D01*
X94609814Y-92080186D01*
X94526552Y-91978729D01*
X94497222Y-91942991D01*
X94413557Y-91786466D01*
X94362037Y-91616627D01*
X94344641Y-91440000D01*
X94362037Y-91263373D01*
X94413557Y-91093534D01*
X94497222Y-90937009D01*
X94526552Y-90901271D01*
X94609814Y-90799814D01*
X94711271Y-90716552D01*
X94747009Y-90687222D01*
X94903534Y-90603557D01*
X95073373Y-90552037D01*
X95139557Y-90545519D01*
X95205740Y-90539000D01*
X95294260Y-90539000D01*
X95360443Y-90545519D01*
X95360443Y-90545519D01*
G37*
G36*
X155050443Y-89275519D02*
G01*
X155116627Y-89282037D01*
X155286466Y-89333557D01*
X155442991Y-89417222D01*
X155478729Y-89446552D01*
X155580186Y-89529814D01*
X155645858Y-89609837D01*
X155692778Y-89667009D01*
X155776443Y-89823534D01*
X155827963Y-89993373D01*
X155845359Y-90170000D01*
X155827963Y-90346627D01*
X155776443Y-90516466D01*
X155692778Y-90672991D01*
X155663448Y-90708729D01*
X155580186Y-90810186D01*
X155478729Y-90893448D01*
X155442991Y-90922778D01*
X155286466Y-91006443D01*
X155116627Y-91057963D01*
X155050442Y-91064482D01*
X154984260Y-91071000D01*
X154895740Y-91071000D01*
X154829558Y-91064482D01*
X154763373Y-91057963D01*
X154593534Y-91006443D01*
X154437009Y-90922778D01*
X154401271Y-90893448D01*
X154299814Y-90810186D01*
X154216552Y-90708729D01*
X154187222Y-90672991D01*
X154103557Y-90516466D01*
X154052037Y-90346627D01*
X154034641Y-90170000D01*
X154052037Y-89993373D01*
X154103557Y-89823534D01*
X154187222Y-89667009D01*
X154234142Y-89609837D01*
X154299814Y-89529814D01*
X154401271Y-89446552D01*
X154437009Y-89417222D01*
X154593534Y-89333557D01*
X154763373Y-89282037D01*
X154829557Y-89275519D01*
X154895740Y-89269000D01*
X154984260Y-89269000D01*
X155050443Y-89275519D01*
X155050443Y-89275519D01*
G37*
G36*
X153301000Y-91071000D02*
G01*
X151499000Y-91071000D01*
X151499000Y-89269000D01*
X153301000Y-89269000D01*
X153301000Y-91071000D01*
X153301000Y-91071000D01*
G37*
G36*
X95360443Y-88005519D02*
G01*
X95426627Y-88012037D01*
X95596466Y-88063557D01*
X95752991Y-88147222D01*
X95788729Y-88176552D01*
X95890186Y-88259814D01*
X95973448Y-88361271D01*
X96002778Y-88397009D01*
X96086443Y-88553534D01*
X96137963Y-88723373D01*
X96155359Y-88900000D01*
X96137963Y-89076627D01*
X96086443Y-89246466D01*
X96002778Y-89402991D01*
X95973448Y-89438729D01*
X95890186Y-89540186D01*
X95788729Y-89623448D01*
X95752991Y-89652778D01*
X95596466Y-89736443D01*
X95426627Y-89787963D01*
X95360443Y-89794481D01*
X95294260Y-89801000D01*
X95205740Y-89801000D01*
X95139557Y-89794481D01*
X95073373Y-89787963D01*
X94903534Y-89736443D01*
X94747009Y-89652778D01*
X94711271Y-89623448D01*
X94609814Y-89540186D01*
X94526552Y-89438729D01*
X94497222Y-89402991D01*
X94413557Y-89246466D01*
X94362037Y-89076627D01*
X94344641Y-88900000D01*
X94362037Y-88723373D01*
X94413557Y-88553534D01*
X94497222Y-88397009D01*
X94526552Y-88361271D01*
X94609814Y-88259814D01*
X94711271Y-88176552D01*
X94747009Y-88147222D01*
X94903534Y-88063557D01*
X95073373Y-88012037D01*
X95139557Y-88005519D01*
X95205740Y-87999000D01*
X95294260Y-87999000D01*
X95360443Y-88005519D01*
X95360443Y-88005519D01*
G37*
G36*
X109453642Y-88129781D02*
G01*
X109599414Y-88190162D01*
X109599416Y-88190163D01*
X109730608Y-88277822D01*
X109842178Y-88389392D01*
X109929837Y-88520584D01*
X109929838Y-88520586D01*
X109990219Y-88666358D01*
X110021000Y-88821107D01*
X110021000Y-88978893D01*
X109990219Y-89133642D01*
X109929838Y-89279414D01*
X109929837Y-89279416D01*
X109842178Y-89410608D01*
X109730608Y-89522178D01*
X109599416Y-89609837D01*
X109599415Y-89609838D01*
X109599414Y-89609838D01*
X109453642Y-89670219D01*
X109298893Y-89701000D01*
X109141107Y-89701000D01*
X108986358Y-89670219D01*
X108840586Y-89609838D01*
X108840585Y-89609838D01*
X108840584Y-89609837D01*
X108709392Y-89522178D01*
X108597822Y-89410608D01*
X108510163Y-89279416D01*
X108510162Y-89279414D01*
X108449781Y-89133642D01*
X108419000Y-88978893D01*
X108419000Y-88821107D01*
X108449781Y-88666358D01*
X108510162Y-88520586D01*
X108510163Y-88520584D01*
X108597822Y-88389392D01*
X108709392Y-88277822D01*
X108840584Y-88190163D01*
X108840586Y-88190162D01*
X108986358Y-88129781D01*
X109141107Y-88099000D01*
X109298893Y-88099000D01*
X109453642Y-88129781D01*
X109453642Y-88129781D01*
G37*
G36*
X95360442Y-85465518D02*
G01*
X95426627Y-85472037D01*
X95596466Y-85523557D01*
X95752991Y-85607222D01*
X95788729Y-85636552D01*
X95890186Y-85719814D01*
X95973448Y-85821271D01*
X96002778Y-85857009D01*
X96086443Y-86013534D01*
X96137963Y-86183373D01*
X96155359Y-86360000D01*
X96137963Y-86536627D01*
X96086443Y-86706466D01*
X96002778Y-86862991D01*
X95973448Y-86898729D01*
X95890186Y-87000186D01*
X95788729Y-87083448D01*
X95752991Y-87112778D01*
X95596466Y-87196443D01*
X95426627Y-87247963D01*
X95360442Y-87254482D01*
X95294260Y-87261000D01*
X95205740Y-87261000D01*
X95139558Y-87254482D01*
X95073373Y-87247963D01*
X94903534Y-87196443D01*
X94747009Y-87112778D01*
X94711271Y-87083448D01*
X94609814Y-87000186D01*
X94526552Y-86898729D01*
X94497222Y-86862991D01*
X94413557Y-86706466D01*
X94362037Y-86536627D01*
X94344641Y-86360000D01*
X94362037Y-86183373D01*
X94413557Y-86013534D01*
X94497222Y-85857009D01*
X94526552Y-85821271D01*
X94609814Y-85719814D01*
X94711271Y-85636552D01*
X94747009Y-85607222D01*
X94903534Y-85523557D01*
X95073373Y-85472037D01*
X95139558Y-85465518D01*
X95205740Y-85459000D01*
X95294260Y-85459000D01*
X95360442Y-85465518D01*
X95360442Y-85465518D01*
G37*
G36*
X109453642Y-83249781D02*
G01*
X109599414Y-83310162D01*
X109599416Y-83310163D01*
X109730608Y-83397822D01*
X109842178Y-83509392D01*
X109929837Y-83640584D01*
X109929838Y-83640586D01*
X109990219Y-83786358D01*
X110021000Y-83941107D01*
X110021000Y-84098893D01*
X109990219Y-84253642D01*
X109929838Y-84399414D01*
X109929837Y-84399416D01*
X109842178Y-84530608D01*
X109730608Y-84642178D01*
X109599416Y-84729837D01*
X109599415Y-84729838D01*
X109599414Y-84729838D01*
X109453642Y-84790219D01*
X109298893Y-84821000D01*
X109141107Y-84821000D01*
X108986358Y-84790219D01*
X108840586Y-84729838D01*
X108840585Y-84729838D01*
X108840584Y-84729837D01*
X108709392Y-84642178D01*
X108597822Y-84530608D01*
X108510163Y-84399416D01*
X108510162Y-84399414D01*
X108449781Y-84253642D01*
X108419000Y-84098893D01*
X108419000Y-83941107D01*
X108449781Y-83786358D01*
X108510162Y-83640586D01*
X108510163Y-83640584D01*
X108597822Y-83509392D01*
X108709392Y-83397822D01*
X108840584Y-83310163D01*
X108840586Y-83310162D01*
X108986358Y-83249781D01*
X109141107Y-83219000D01*
X109298893Y-83219000D01*
X109453642Y-83249781D01*
X109453642Y-83249781D01*
G37*
G36*
X155050443Y-82925519D02*
G01*
X155116627Y-82932037D01*
X155286466Y-82983557D01*
X155442991Y-83067222D01*
X155478729Y-83096552D01*
X155580186Y-83179814D01*
X155637606Y-83249782D01*
X155692778Y-83317009D01*
X155776443Y-83473534D01*
X155827963Y-83643373D01*
X155845359Y-83820000D01*
X155827963Y-83996627D01*
X155776443Y-84166466D01*
X155692778Y-84322991D01*
X155663448Y-84358729D01*
X155580186Y-84460186D01*
X155494376Y-84530607D01*
X155442991Y-84572778D01*
X155286466Y-84656443D01*
X155116627Y-84707963D01*
X155050443Y-84714481D01*
X154984260Y-84721000D01*
X154895740Y-84721000D01*
X154829557Y-84714481D01*
X154763373Y-84707963D01*
X154593534Y-84656443D01*
X154437009Y-84572778D01*
X154385624Y-84530607D01*
X154299814Y-84460186D01*
X154216552Y-84358729D01*
X154187222Y-84322991D01*
X154103557Y-84166466D01*
X154052037Y-83996627D01*
X154034641Y-83820000D01*
X154052037Y-83643373D01*
X154103557Y-83473534D01*
X154187222Y-83317009D01*
X154242394Y-83249782D01*
X154299814Y-83179814D01*
X154401271Y-83096552D01*
X154437009Y-83067222D01*
X154593534Y-82983557D01*
X154763373Y-82932037D01*
X154829557Y-82925519D01*
X154895740Y-82919000D01*
X154984260Y-82919000D01*
X155050443Y-82925519D01*
X155050443Y-82925519D01*
G37*
G36*
X152510443Y-82925519D02*
G01*
X152576627Y-82932037D01*
X152746466Y-82983557D01*
X152902991Y-83067222D01*
X152938729Y-83096552D01*
X153040186Y-83179814D01*
X153097606Y-83249782D01*
X153152778Y-83317009D01*
X153236443Y-83473534D01*
X153287963Y-83643373D01*
X153305359Y-83820000D01*
X153287963Y-83996627D01*
X153236443Y-84166466D01*
X153152778Y-84322991D01*
X153123448Y-84358729D01*
X153040186Y-84460186D01*
X152954376Y-84530607D01*
X152902991Y-84572778D01*
X152746466Y-84656443D01*
X152576627Y-84707963D01*
X152510443Y-84714481D01*
X152444260Y-84721000D01*
X152355740Y-84721000D01*
X152289557Y-84714481D01*
X152223373Y-84707963D01*
X152053534Y-84656443D01*
X151897009Y-84572778D01*
X151845624Y-84530607D01*
X151759814Y-84460186D01*
X151676552Y-84358729D01*
X151647222Y-84322991D01*
X151563557Y-84166466D01*
X151512037Y-83996627D01*
X151494641Y-83820000D01*
X151512037Y-83643373D01*
X151563557Y-83473534D01*
X151647222Y-83317009D01*
X151702394Y-83249782D01*
X151759814Y-83179814D01*
X151861271Y-83096552D01*
X151897009Y-83067222D01*
X152053534Y-82983557D01*
X152223373Y-82932037D01*
X152289557Y-82925519D01*
X152355740Y-82919000D01*
X152444260Y-82919000D01*
X152510443Y-82925519D01*
X152510443Y-82925519D01*
G37*
G36*
X95360443Y-82925519D02*
G01*
X95426627Y-82932037D01*
X95596466Y-82983557D01*
X95752991Y-83067222D01*
X95788729Y-83096552D01*
X95890186Y-83179814D01*
X95947606Y-83249782D01*
X96002778Y-83317009D01*
X96086443Y-83473534D01*
X96137963Y-83643373D01*
X96155359Y-83820000D01*
X96137963Y-83996627D01*
X96086443Y-84166466D01*
X96002778Y-84322991D01*
X95973448Y-84358729D01*
X95890186Y-84460186D01*
X95804376Y-84530607D01*
X95752991Y-84572778D01*
X95596466Y-84656443D01*
X95426627Y-84707963D01*
X95360443Y-84714481D01*
X95294260Y-84721000D01*
X95205740Y-84721000D01*
X95139557Y-84714481D01*
X95073373Y-84707963D01*
X94903534Y-84656443D01*
X94747009Y-84572778D01*
X94695624Y-84530607D01*
X94609814Y-84460186D01*
X94526552Y-84358729D01*
X94497222Y-84322991D01*
X94413557Y-84166466D01*
X94362037Y-83996627D01*
X94344641Y-83820000D01*
X94362037Y-83643373D01*
X94413557Y-83473534D01*
X94497222Y-83317009D01*
X94552394Y-83249782D01*
X94609814Y-83179814D01*
X94711271Y-83096552D01*
X94747009Y-83067222D01*
X94903534Y-82983557D01*
X95073373Y-82932037D01*
X95139557Y-82925519D01*
X95205740Y-82919000D01*
X95294260Y-82919000D01*
X95360443Y-82925519D01*
X95360443Y-82925519D01*
G37*
G36*
X155050442Y-80385518D02*
G01*
X155116627Y-80392037D01*
X155286466Y-80443557D01*
X155442991Y-80527222D01*
X155478729Y-80556552D01*
X155580186Y-80639814D01*
X155663448Y-80741271D01*
X155692778Y-80777009D01*
X155776443Y-80933534D01*
X155827963Y-81103373D01*
X155845359Y-81280000D01*
X155827963Y-81456627D01*
X155776443Y-81626466D01*
X155692778Y-81782991D01*
X155663448Y-81818729D01*
X155580186Y-81920186D01*
X155478729Y-82003448D01*
X155442991Y-82032778D01*
X155286466Y-82116443D01*
X155116627Y-82167963D01*
X155050443Y-82174481D01*
X154984260Y-82181000D01*
X154895740Y-82181000D01*
X154829557Y-82174481D01*
X154763373Y-82167963D01*
X154593534Y-82116443D01*
X154437009Y-82032778D01*
X154401271Y-82003448D01*
X154299814Y-81920186D01*
X154216552Y-81818729D01*
X154187222Y-81782991D01*
X154103557Y-81626466D01*
X154052037Y-81456627D01*
X154034641Y-81280000D01*
X154052037Y-81103373D01*
X154103557Y-80933534D01*
X154187222Y-80777009D01*
X154216552Y-80741271D01*
X154299814Y-80639814D01*
X154401271Y-80556552D01*
X154437009Y-80527222D01*
X154593534Y-80443557D01*
X154763373Y-80392037D01*
X154829558Y-80385518D01*
X154895740Y-80379000D01*
X154984260Y-80379000D01*
X155050442Y-80385518D01*
X155050442Y-80385518D01*
G37*
G36*
X152510442Y-80385518D02*
G01*
X152576627Y-80392037D01*
X152746466Y-80443557D01*
X152902991Y-80527222D01*
X152938729Y-80556552D01*
X153040186Y-80639814D01*
X153123448Y-80741271D01*
X153152778Y-80777009D01*
X153236443Y-80933534D01*
X153287963Y-81103373D01*
X153305359Y-81280000D01*
X153287963Y-81456627D01*
X153236443Y-81626466D01*
X153152778Y-81782991D01*
X153123448Y-81818729D01*
X153040186Y-81920186D01*
X152938729Y-82003448D01*
X152902991Y-82032778D01*
X152746466Y-82116443D01*
X152576627Y-82167963D01*
X152510443Y-82174481D01*
X152444260Y-82181000D01*
X152355740Y-82181000D01*
X152289557Y-82174481D01*
X152223373Y-82167963D01*
X152053534Y-82116443D01*
X151897009Y-82032778D01*
X151861271Y-82003448D01*
X151759814Y-81920186D01*
X151676552Y-81818729D01*
X151647222Y-81782991D01*
X151563557Y-81626466D01*
X151512037Y-81456627D01*
X151494641Y-81280000D01*
X151512037Y-81103373D01*
X151563557Y-80933534D01*
X151647222Y-80777009D01*
X151676552Y-80741271D01*
X151759814Y-80639814D01*
X151861271Y-80556552D01*
X151897009Y-80527222D01*
X152053534Y-80443557D01*
X152223373Y-80392037D01*
X152289558Y-80385518D01*
X152355740Y-80379000D01*
X152444260Y-80379000D01*
X152510442Y-80385518D01*
X152510442Y-80385518D01*
G37*
G36*
X95360442Y-80385518D02*
G01*
X95426627Y-80392037D01*
X95596466Y-80443557D01*
X95752991Y-80527222D01*
X95788729Y-80556552D01*
X95890186Y-80639814D01*
X95973448Y-80741271D01*
X96002778Y-80777009D01*
X96086443Y-80933534D01*
X96137963Y-81103373D01*
X96155359Y-81280000D01*
X96137963Y-81456627D01*
X96086443Y-81626466D01*
X96002778Y-81782991D01*
X95973448Y-81818729D01*
X95890186Y-81920186D01*
X95788729Y-82003448D01*
X95752991Y-82032778D01*
X95596466Y-82116443D01*
X95426627Y-82167963D01*
X95360443Y-82174481D01*
X95294260Y-82181000D01*
X95205740Y-82181000D01*
X95139557Y-82174481D01*
X95073373Y-82167963D01*
X94903534Y-82116443D01*
X94747009Y-82032778D01*
X94711271Y-82003448D01*
X94609814Y-81920186D01*
X94526552Y-81818729D01*
X94497222Y-81782991D01*
X94413557Y-81626466D01*
X94362037Y-81456627D01*
X94344641Y-81280000D01*
X94362037Y-81103373D01*
X94413557Y-80933534D01*
X94497222Y-80777009D01*
X94526552Y-80741271D01*
X94609814Y-80639814D01*
X94711271Y-80556552D01*
X94747009Y-80527222D01*
X94903534Y-80443557D01*
X95073373Y-80392037D01*
X95139558Y-80385518D01*
X95205740Y-80379000D01*
X95294260Y-80379000D01*
X95360442Y-80385518D01*
X95360442Y-80385518D01*
G37*
G36*
X139342395Y-77825546D02*
G01*
X139515466Y-77897234D01*
X139592818Y-77948919D01*
X139671227Y-78001310D01*
X139803690Y-78133773D01*
X139803691Y-78133775D01*
X139907766Y-78289534D01*
X139979454Y-78462605D01*
X140016000Y-78646333D01*
X140016000Y-78833667D01*
X139979454Y-79017395D01*
X139907766Y-79190466D01*
X139907765Y-79190467D01*
X139803690Y-79346227D01*
X139671227Y-79478690D01*
X139650141Y-79492779D01*
X139515466Y-79582766D01*
X139342395Y-79654454D01*
X139158667Y-79691000D01*
X138971333Y-79691000D01*
X138787605Y-79654454D01*
X138614534Y-79582766D01*
X138479859Y-79492779D01*
X138458773Y-79478690D01*
X138326310Y-79346227D01*
X138222235Y-79190467D01*
X138222234Y-79190466D01*
X138150546Y-79017395D01*
X138114000Y-78833667D01*
X138114000Y-78646333D01*
X138150546Y-78462605D01*
X138222234Y-78289534D01*
X138326309Y-78133775D01*
X138326310Y-78133773D01*
X138458773Y-78001310D01*
X138537182Y-77948919D01*
X138614534Y-77897234D01*
X138787605Y-77825546D01*
X138971333Y-77789000D01*
X139158667Y-77789000D01*
X139342395Y-77825546D01*
X139342395Y-77825546D01*
G37*
G36*
X137476000Y-79691000D02*
G01*
X135574000Y-79691000D01*
X135574000Y-77789000D01*
X137476000Y-77789000D01*
X137476000Y-79691000D01*
X137476000Y-79691000D01*
G37*
G36*
X152510443Y-77845519D02*
G01*
X152576627Y-77852037D01*
X152746466Y-77903557D01*
X152902991Y-77987222D01*
X152920156Y-78001309D01*
X153040186Y-78099814D01*
X153123448Y-78201271D01*
X153152778Y-78237009D01*
X153236443Y-78393534D01*
X153287963Y-78563373D01*
X153305359Y-78740000D01*
X153287963Y-78916627D01*
X153236443Y-79086466D01*
X153152778Y-79242991D01*
X153123448Y-79278729D01*
X153040186Y-79380186D01*
X152938729Y-79463448D01*
X152902991Y-79492778D01*
X152746466Y-79576443D01*
X152576627Y-79627963D01*
X152510442Y-79634482D01*
X152444260Y-79641000D01*
X152355740Y-79641000D01*
X152289558Y-79634482D01*
X152223373Y-79627963D01*
X152053534Y-79576443D01*
X151897009Y-79492778D01*
X151861271Y-79463448D01*
X151759814Y-79380186D01*
X151676552Y-79278729D01*
X151647222Y-79242991D01*
X151563557Y-79086466D01*
X151512037Y-78916627D01*
X151494641Y-78740000D01*
X151512037Y-78563373D01*
X151563557Y-78393534D01*
X151647222Y-78237009D01*
X151676552Y-78201271D01*
X151759814Y-78099814D01*
X151879844Y-78001309D01*
X151897009Y-77987222D01*
X152053534Y-77903557D01*
X152223373Y-77852037D01*
X152289557Y-77845519D01*
X152355740Y-77839000D01*
X152444260Y-77839000D01*
X152510443Y-77845519D01*
X152510443Y-77845519D01*
G37*
G36*
X155050443Y-77845519D02*
G01*
X155116627Y-77852037D01*
X155286466Y-77903557D01*
X155442991Y-77987222D01*
X155460156Y-78001309D01*
X155580186Y-78099814D01*
X155663448Y-78201271D01*
X155692778Y-78237009D01*
X155776443Y-78393534D01*
X155827963Y-78563373D01*
X155845359Y-78740000D01*
X155827963Y-78916627D01*
X155776443Y-79086466D01*
X155692778Y-79242991D01*
X155663448Y-79278729D01*
X155580186Y-79380186D01*
X155478729Y-79463448D01*
X155442991Y-79492778D01*
X155286466Y-79576443D01*
X155116627Y-79627963D01*
X155050442Y-79634482D01*
X154984260Y-79641000D01*
X154895740Y-79641000D01*
X154829558Y-79634482D01*
X154763373Y-79627963D01*
X154593534Y-79576443D01*
X154437009Y-79492778D01*
X154401271Y-79463448D01*
X154299814Y-79380186D01*
X154216552Y-79278729D01*
X154187222Y-79242991D01*
X154103557Y-79086466D01*
X154052037Y-78916627D01*
X154034641Y-78740000D01*
X154052037Y-78563373D01*
X154103557Y-78393534D01*
X154187222Y-78237009D01*
X154216552Y-78201271D01*
X154299814Y-78099814D01*
X154419844Y-78001309D01*
X154437009Y-77987222D01*
X154593534Y-77903557D01*
X154763373Y-77852037D01*
X154829557Y-77845519D01*
X154895740Y-77839000D01*
X154984260Y-77839000D01*
X155050443Y-77845519D01*
X155050443Y-77845519D01*
G37*
G36*
X95360443Y-77845519D02*
G01*
X95426627Y-77852037D01*
X95596466Y-77903557D01*
X95752991Y-77987222D01*
X95770156Y-78001309D01*
X95890186Y-78099814D01*
X95973448Y-78201271D01*
X96002778Y-78237009D01*
X96086443Y-78393534D01*
X96137963Y-78563373D01*
X96155359Y-78740000D01*
X96137963Y-78916627D01*
X96086443Y-79086466D01*
X96002778Y-79242991D01*
X95973448Y-79278729D01*
X95890186Y-79380186D01*
X95788729Y-79463448D01*
X95752991Y-79492778D01*
X95596466Y-79576443D01*
X95426627Y-79627963D01*
X95360442Y-79634482D01*
X95294260Y-79641000D01*
X95205740Y-79641000D01*
X95139558Y-79634482D01*
X95073373Y-79627963D01*
X94903534Y-79576443D01*
X94747009Y-79492778D01*
X94711271Y-79463448D01*
X94609814Y-79380186D01*
X94526552Y-79278729D01*
X94497222Y-79242991D01*
X94413557Y-79086466D01*
X94362037Y-78916627D01*
X94344641Y-78740000D01*
X94362037Y-78563373D01*
X94413557Y-78393534D01*
X94497222Y-78237009D01*
X94526552Y-78201271D01*
X94609814Y-78099814D01*
X94729844Y-78001309D01*
X94747009Y-77987222D01*
X94903534Y-77903557D01*
X95073373Y-77852037D01*
X95139557Y-77845519D01*
X95205740Y-77839000D01*
X95294260Y-77839000D01*
X95360443Y-77845519D01*
X95360443Y-77845519D01*
G37*
G36*
X153301000Y-77101000D02*
G01*
X151499000Y-77101000D01*
X151499000Y-75299000D01*
X153301000Y-75299000D01*
X153301000Y-77101000D01*
X153301000Y-77101000D01*
G37*
G36*
X95360442Y-75305518D02*
G01*
X95426627Y-75312037D01*
X95596466Y-75363557D01*
X95752991Y-75447222D01*
X95788729Y-75476552D01*
X95890186Y-75559814D01*
X95973448Y-75661271D01*
X96002778Y-75697009D01*
X96086443Y-75853534D01*
X96137963Y-76023373D01*
X96155359Y-76200000D01*
X96137963Y-76376627D01*
X96086443Y-76546466D01*
X96002778Y-76702991D01*
X95973448Y-76738729D01*
X95890186Y-76840186D01*
X95788729Y-76923448D01*
X95752991Y-76952778D01*
X95596466Y-77036443D01*
X95426627Y-77087963D01*
X95360442Y-77094482D01*
X95294260Y-77101000D01*
X95205740Y-77101000D01*
X95139558Y-77094482D01*
X95073373Y-77087963D01*
X94903534Y-77036443D01*
X94747009Y-76952778D01*
X94711271Y-76923448D01*
X94609814Y-76840186D01*
X94526552Y-76738729D01*
X94497222Y-76702991D01*
X94413557Y-76546466D01*
X94362037Y-76376627D01*
X94344641Y-76200000D01*
X94362037Y-76023373D01*
X94413557Y-75853534D01*
X94497222Y-75697009D01*
X94526552Y-75661271D01*
X94609814Y-75559814D01*
X94711271Y-75476552D01*
X94747009Y-75447222D01*
X94903534Y-75363557D01*
X95073373Y-75312037D01*
X95139558Y-75305518D01*
X95205740Y-75299000D01*
X95294260Y-75299000D01*
X95360442Y-75305518D01*
X95360442Y-75305518D01*
G37*
G36*
X155050442Y-75305518D02*
G01*
X155116627Y-75312037D01*
X155286466Y-75363557D01*
X155442991Y-75447222D01*
X155478729Y-75476552D01*
X155580186Y-75559814D01*
X155663448Y-75661271D01*
X155692778Y-75697009D01*
X155776443Y-75853534D01*
X155827963Y-76023373D01*
X155845359Y-76200000D01*
X155827963Y-76376627D01*
X155776443Y-76546466D01*
X155692778Y-76702991D01*
X155663448Y-76738729D01*
X155580186Y-76840186D01*
X155478729Y-76923448D01*
X155442991Y-76952778D01*
X155286466Y-77036443D01*
X155116627Y-77087963D01*
X155050442Y-77094482D01*
X154984260Y-77101000D01*
X154895740Y-77101000D01*
X154829558Y-77094482D01*
X154763373Y-77087963D01*
X154593534Y-77036443D01*
X154437009Y-76952778D01*
X154401271Y-76923448D01*
X154299814Y-76840186D01*
X154216552Y-76738729D01*
X154187222Y-76702991D01*
X154103557Y-76546466D01*
X154052037Y-76376627D01*
X154034641Y-76200000D01*
X154052037Y-76023373D01*
X154103557Y-75853534D01*
X154187222Y-75697009D01*
X154216552Y-75661271D01*
X154299814Y-75559814D01*
X154401271Y-75476552D01*
X154437009Y-75447222D01*
X154593534Y-75363557D01*
X154763373Y-75312037D01*
X154829558Y-75305518D01*
X154895740Y-75299000D01*
X154984260Y-75299000D01*
X155050442Y-75305518D01*
X155050442Y-75305518D01*
G37*
G36*
X95360442Y-72765518D02*
G01*
X95426627Y-72772037D01*
X95596466Y-72823557D01*
X95752991Y-72907222D01*
X95788729Y-72936552D01*
X95890186Y-73019814D01*
X95973448Y-73121271D01*
X96002778Y-73157009D01*
X96086443Y-73313534D01*
X96137963Y-73483373D01*
X96155359Y-73660000D01*
X96137963Y-73836627D01*
X96086443Y-74006466D01*
X96002778Y-74162991D01*
X95973448Y-74198729D01*
X95890186Y-74300186D01*
X95788729Y-74383448D01*
X95752991Y-74412778D01*
X95596466Y-74496443D01*
X95426627Y-74547963D01*
X95360442Y-74554482D01*
X95294260Y-74561000D01*
X95205740Y-74561000D01*
X95139558Y-74554482D01*
X95073373Y-74547963D01*
X94903534Y-74496443D01*
X94747009Y-74412778D01*
X94711271Y-74383448D01*
X94609814Y-74300186D01*
X94526552Y-74198729D01*
X94497222Y-74162991D01*
X94413557Y-74006466D01*
X94362037Y-73836627D01*
X94344641Y-73660000D01*
X94362037Y-73483373D01*
X94413557Y-73313534D01*
X94497222Y-73157009D01*
X94526552Y-73121271D01*
X94609814Y-73019814D01*
X94711271Y-72936552D01*
X94747009Y-72907222D01*
X94903534Y-72823557D01*
X95073373Y-72772037D01*
X95139558Y-72765518D01*
X95205740Y-72759000D01*
X95294260Y-72759000D01*
X95360442Y-72765518D01*
X95360442Y-72765518D01*
G37*
G36*
X90219375Y-68989000D02*
G01*
X90397579Y-69024447D01*
X90698042Y-69148903D01*
X90968451Y-69329585D01*
X91198415Y-69559549D01*
X91379097Y-69829958D01*
X91503553Y-70130421D01*
X91521172Y-70219000D01*
X91556948Y-70398853D01*
X91567000Y-70449391D01*
X91567000Y-70774609D01*
X91503553Y-71093579D01*
X91379097Y-71394042D01*
X91198415Y-71664451D01*
X90968451Y-71894415D01*
X90698042Y-72075097D01*
X90397579Y-72199553D01*
X90291256Y-72220702D01*
X90078611Y-72263000D01*
X89753389Y-72263000D01*
X89540744Y-72220702D01*
X89434421Y-72199553D01*
X89133958Y-72075097D01*
X88863549Y-71894415D01*
X88633585Y-71664451D01*
X88452903Y-71394042D01*
X88328447Y-71093579D01*
X88265000Y-70774609D01*
X88265000Y-70449391D01*
X88275053Y-70398853D01*
X88310828Y-70219000D01*
X88328447Y-70130421D01*
X88452903Y-69829958D01*
X88633585Y-69559549D01*
X88863549Y-69329585D01*
X89133958Y-69148903D01*
X89434421Y-69024447D01*
X89612625Y-68989000D01*
X89753389Y-68961000D01*
X90078611Y-68961000D01*
X90219375Y-68989000D01*
X90219375Y-68989000D01*
G37*
G36*
X95360442Y-70225518D02*
G01*
X95426627Y-70232037D01*
X95596466Y-70283557D01*
X95752991Y-70367222D01*
X95788729Y-70396552D01*
X95890186Y-70479814D01*
X95973448Y-70581271D01*
X96002778Y-70617009D01*
X96086443Y-70773534D01*
X96137963Y-70943373D01*
X96155359Y-71120000D01*
X96137963Y-71296627D01*
X96086443Y-71466466D01*
X96002778Y-71622991D01*
X95973448Y-71658729D01*
X95890186Y-71760186D01*
X95788729Y-71843448D01*
X95752991Y-71872778D01*
X95596466Y-71956443D01*
X95426627Y-72007963D01*
X95360443Y-72014481D01*
X95294260Y-72021000D01*
X95205740Y-72021000D01*
X95139557Y-72014481D01*
X95073373Y-72007963D01*
X94903534Y-71956443D01*
X94747009Y-71872778D01*
X94711271Y-71843448D01*
X94609814Y-71760186D01*
X94526552Y-71658729D01*
X94497222Y-71622991D01*
X94413557Y-71466466D01*
X94362037Y-71296627D01*
X94344641Y-71120000D01*
X94362037Y-70943373D01*
X94413557Y-70773534D01*
X94497222Y-70617009D01*
X94526552Y-70581271D01*
X94609814Y-70479814D01*
X94711271Y-70396552D01*
X94747009Y-70367222D01*
X94903534Y-70283557D01*
X95073373Y-70232037D01*
X95139558Y-70225518D01*
X95205740Y-70219000D01*
X95294260Y-70219000D01*
X95360442Y-70225518D01*
X95360442Y-70225518D01*
G37*
G36*
X155050443Y-68955519D02*
G01*
X155116627Y-68962037D01*
X155286466Y-69013557D01*
X155442991Y-69097222D01*
X155478729Y-69126552D01*
X155580186Y-69209814D01*
X155655137Y-69301144D01*
X155692778Y-69347009D01*
X155776443Y-69503534D01*
X155827963Y-69673373D01*
X155845359Y-69850000D01*
X155827963Y-70026627D01*
X155776443Y-70196466D01*
X155692778Y-70352991D01*
X155663448Y-70388729D01*
X155580186Y-70490186D01*
X155478729Y-70573448D01*
X155442991Y-70602778D01*
X155286466Y-70686443D01*
X155116627Y-70737963D01*
X155050443Y-70744481D01*
X154984260Y-70751000D01*
X154895740Y-70751000D01*
X154829557Y-70744481D01*
X154763373Y-70737963D01*
X154593534Y-70686443D01*
X154437009Y-70602778D01*
X154401271Y-70573448D01*
X154299814Y-70490186D01*
X154216552Y-70388729D01*
X154187222Y-70352991D01*
X154103557Y-70196466D01*
X154052037Y-70026627D01*
X154034641Y-69850000D01*
X154052037Y-69673373D01*
X154103557Y-69503534D01*
X154187222Y-69347009D01*
X154224863Y-69301144D01*
X154299814Y-69209814D01*
X154401271Y-69126552D01*
X154437009Y-69097222D01*
X154593534Y-69013557D01*
X154763373Y-68962037D01*
X154829557Y-68955519D01*
X154895740Y-68949000D01*
X154984260Y-68949000D01*
X155050443Y-68955519D01*
X155050443Y-68955519D01*
G37*
G36*
X152510443Y-68955519D02*
G01*
X152576627Y-68962037D01*
X152746466Y-69013557D01*
X152902991Y-69097222D01*
X152938729Y-69126552D01*
X153040186Y-69209814D01*
X153115137Y-69301144D01*
X153152778Y-69347009D01*
X153236443Y-69503534D01*
X153287963Y-69673373D01*
X153305359Y-69850000D01*
X153287963Y-70026627D01*
X153236443Y-70196466D01*
X153152778Y-70352991D01*
X153123448Y-70388729D01*
X153040186Y-70490186D01*
X152938729Y-70573448D01*
X152902991Y-70602778D01*
X152746466Y-70686443D01*
X152576627Y-70737963D01*
X152510443Y-70744481D01*
X152444260Y-70751000D01*
X152355740Y-70751000D01*
X152289557Y-70744481D01*
X152223373Y-70737963D01*
X152053534Y-70686443D01*
X151897009Y-70602778D01*
X151861271Y-70573448D01*
X151759814Y-70490186D01*
X151676552Y-70388729D01*
X151647222Y-70352991D01*
X151563557Y-70196466D01*
X151512037Y-70026627D01*
X151494641Y-69850000D01*
X151512037Y-69673373D01*
X151563557Y-69503534D01*
X151647222Y-69347009D01*
X151684863Y-69301144D01*
X151759814Y-69209814D01*
X151861271Y-69126552D01*
X151897009Y-69097222D01*
X152053534Y-69013557D01*
X152223373Y-68962037D01*
X152289557Y-68955519D01*
X152355740Y-68949000D01*
X152444260Y-68949000D01*
X152510443Y-68955519D01*
X152510443Y-68955519D01*
G37*
G36*
X123441143Y-69022087D02*
G01*
X123597838Y-69086992D01*
X123738853Y-69181215D01*
X123858785Y-69301147D01*
X123953008Y-69442162D01*
X124017913Y-69598857D01*
X124051000Y-69765198D01*
X124051000Y-69934802D01*
X124017913Y-70101143D01*
X123953008Y-70257838D01*
X123858785Y-70398853D01*
X123738853Y-70518785D01*
X123597838Y-70613008D01*
X123441143Y-70677913D01*
X123274802Y-70711000D01*
X123105198Y-70711000D01*
X122938857Y-70677913D01*
X122782162Y-70613008D01*
X122641147Y-70518785D01*
X122521215Y-70398853D01*
X122426992Y-70257838D01*
X122362087Y-70101143D01*
X122329000Y-69934802D01*
X122329000Y-69765198D01*
X122362087Y-69598857D01*
X122426992Y-69442162D01*
X122521215Y-69301147D01*
X122641147Y-69181215D01*
X122782162Y-69086992D01*
X122938857Y-69022087D01*
X123105198Y-68989000D01*
X123274802Y-68989000D01*
X123441143Y-69022087D01*
X123441143Y-69022087D01*
G37*
G36*
X95360443Y-67685519D02*
G01*
X95426627Y-67692037D01*
X95596466Y-67743557D01*
X95752991Y-67827222D01*
X95788729Y-67856552D01*
X95890186Y-67939814D01*
X95973448Y-68041271D01*
X96002778Y-68077009D01*
X96086443Y-68233534D01*
X96137963Y-68403373D01*
X96155359Y-68580000D01*
X96137963Y-68756627D01*
X96086443Y-68926466D01*
X96002778Y-69082991D01*
X95973448Y-69118729D01*
X95890186Y-69220186D01*
X95791537Y-69301144D01*
X95752991Y-69332778D01*
X95596466Y-69416443D01*
X95426627Y-69467963D01*
X95360442Y-69474482D01*
X95294260Y-69481000D01*
X95205740Y-69481000D01*
X95139558Y-69474482D01*
X95073373Y-69467963D01*
X94903534Y-69416443D01*
X94747009Y-69332778D01*
X94708463Y-69301144D01*
X94609814Y-69220186D01*
X94526552Y-69118729D01*
X94497222Y-69082991D01*
X94413557Y-68926466D01*
X94362037Y-68756627D01*
X94344641Y-68580000D01*
X94362037Y-68403373D01*
X94413557Y-68233534D01*
X94497222Y-68077009D01*
X94526552Y-68041271D01*
X94609814Y-67939814D01*
X94711271Y-67856552D01*
X94747009Y-67827222D01*
X94903534Y-67743557D01*
X95073373Y-67692037D01*
X95139557Y-67685519D01*
X95205740Y-67679000D01*
X95294260Y-67679000D01*
X95360443Y-67685519D01*
X95360443Y-67685519D01*
G37*
G36*
X152510443Y-66415519D02*
G01*
X152576627Y-66422037D01*
X152746466Y-66473557D01*
X152746468Y-66473558D01*
X152775358Y-66489000D01*
X152902991Y-66557222D01*
X152917324Y-66568985D01*
X153040186Y-66669814D01*
X153123448Y-66771271D01*
X153152778Y-66807009D01*
X153236443Y-66963534D01*
X153287963Y-67133373D01*
X153305359Y-67310000D01*
X153287963Y-67486627D01*
X153236443Y-67656466D01*
X153152778Y-67812991D01*
X153123448Y-67848729D01*
X153040186Y-67950186D01*
X152938729Y-68033448D01*
X152902991Y-68062778D01*
X152746466Y-68146443D01*
X152576627Y-68197963D01*
X152510443Y-68204481D01*
X152444260Y-68211000D01*
X152355740Y-68211000D01*
X152289557Y-68204481D01*
X152223373Y-68197963D01*
X152053534Y-68146443D01*
X151897009Y-68062778D01*
X151861271Y-68033448D01*
X151759814Y-67950186D01*
X151676552Y-67848729D01*
X151647222Y-67812991D01*
X151563557Y-67656466D01*
X151512037Y-67486627D01*
X151494641Y-67310000D01*
X151512037Y-67133373D01*
X151563557Y-66963534D01*
X151647222Y-66807009D01*
X151676552Y-66771271D01*
X151759814Y-66669814D01*
X151882676Y-66568985D01*
X151897009Y-66557222D01*
X152024642Y-66489000D01*
X152053532Y-66473558D01*
X152053534Y-66473557D01*
X152223373Y-66422037D01*
X152289557Y-66415519D01*
X152355740Y-66409000D01*
X152444260Y-66409000D01*
X152510443Y-66415519D01*
X152510443Y-66415519D01*
G37*
G36*
X128441143Y-66522087D02*
G01*
X128597838Y-66586992D01*
X128738853Y-66681215D01*
X128858785Y-66801147D01*
X128953008Y-66942162D01*
X129017913Y-67098857D01*
X129051000Y-67265198D01*
X129051000Y-67434802D01*
X129017913Y-67601143D01*
X128953008Y-67757838D01*
X128858785Y-67898853D01*
X128738853Y-68018785D01*
X128597838Y-68113008D01*
X128441143Y-68177913D01*
X128274802Y-68211000D01*
X128105198Y-68211000D01*
X127938857Y-68177913D01*
X127782162Y-68113008D01*
X127641147Y-68018785D01*
X127521215Y-67898853D01*
X127426992Y-67757838D01*
X127362087Y-67601143D01*
X127329000Y-67434802D01*
X127329000Y-67265198D01*
X127362087Y-67098857D01*
X127426992Y-66942162D01*
X127521215Y-66801147D01*
X127641147Y-66681215D01*
X127782162Y-66586992D01*
X127938857Y-66522087D01*
X128105198Y-66489000D01*
X128274802Y-66489000D01*
X128441143Y-66522087D01*
X128441143Y-66522087D01*
G37*
G36*
X155050443Y-66415519D02*
G01*
X155116627Y-66422037D01*
X155286466Y-66473557D01*
X155286468Y-66473558D01*
X155315358Y-66489000D01*
X155442991Y-66557222D01*
X155457324Y-66568985D01*
X155580186Y-66669814D01*
X155663448Y-66771271D01*
X155692778Y-66807009D01*
X155776443Y-66963534D01*
X155827963Y-67133373D01*
X155845359Y-67310000D01*
X155827963Y-67486627D01*
X155776443Y-67656466D01*
X155692778Y-67812991D01*
X155663448Y-67848729D01*
X155580186Y-67950186D01*
X155478729Y-68033448D01*
X155442991Y-68062778D01*
X155286466Y-68146443D01*
X155116627Y-68197963D01*
X155050443Y-68204481D01*
X154984260Y-68211000D01*
X154895740Y-68211000D01*
X154829557Y-68204481D01*
X154763373Y-68197963D01*
X154593534Y-68146443D01*
X154437009Y-68062778D01*
X154401271Y-68033448D01*
X154299814Y-67950186D01*
X154216552Y-67848729D01*
X154187222Y-67812991D01*
X154103557Y-67656466D01*
X154052037Y-67486627D01*
X154034641Y-67310000D01*
X154052037Y-67133373D01*
X154103557Y-66963534D01*
X154187222Y-66807009D01*
X154216552Y-66771271D01*
X154299814Y-66669814D01*
X154422676Y-66568985D01*
X154437009Y-66557222D01*
X154564642Y-66489000D01*
X154593532Y-66473558D01*
X154593534Y-66473557D01*
X154763373Y-66422037D01*
X154829557Y-66415519D01*
X154895740Y-66409000D01*
X154984260Y-66409000D01*
X155050443Y-66415519D01*
X155050443Y-66415519D01*
G37*
G36*
X114548228Y-66411703D02*
G01*
X114703100Y-66475853D01*
X114842481Y-66568985D01*
X114961015Y-66687519D01*
X115054147Y-66826900D01*
X115118297Y-66981772D01*
X115151000Y-67146184D01*
X115151000Y-67313816D01*
X115118297Y-67478228D01*
X115054147Y-67633100D01*
X114961015Y-67772481D01*
X114842481Y-67891015D01*
X114703100Y-67984147D01*
X114548228Y-68048297D01*
X114383816Y-68081000D01*
X114216184Y-68081000D01*
X114051772Y-68048297D01*
X113896900Y-67984147D01*
X113757519Y-67891015D01*
X113638985Y-67772481D01*
X113545853Y-67633100D01*
X113481703Y-67478228D01*
X113449000Y-67313816D01*
X113449000Y-67146184D01*
X113481703Y-66981772D01*
X113545853Y-66826900D01*
X113638985Y-66687519D01*
X113757519Y-66568985D01*
X113896900Y-66475853D01*
X114051772Y-66411703D01*
X114216184Y-66379000D01*
X114383816Y-66379000D01*
X114548228Y-66411703D01*
X114548228Y-66411703D01*
G37*
G36*
X105658228Y-66411703D02*
G01*
X105813100Y-66475853D01*
X105952481Y-66568985D01*
X106071015Y-66687519D01*
X106164147Y-66826900D01*
X106228297Y-66981772D01*
X106261000Y-67146184D01*
X106261000Y-67313816D01*
X106228297Y-67478228D01*
X106164147Y-67633100D01*
X106071015Y-67772481D01*
X105952481Y-67891015D01*
X105813100Y-67984147D01*
X105658228Y-68048297D01*
X105493816Y-68081000D01*
X105326184Y-68081000D01*
X105161772Y-68048297D01*
X105006900Y-67984147D01*
X104867519Y-67891015D01*
X104748985Y-67772481D01*
X104655853Y-67633100D01*
X104591703Y-67478228D01*
X104559000Y-67313816D01*
X104559000Y-67146184D01*
X104591703Y-66981772D01*
X104655853Y-66826900D01*
X104748985Y-66687519D01*
X104867519Y-66568985D01*
X105006900Y-66475853D01*
X105161772Y-66411703D01*
X105326184Y-66379000D01*
X105493816Y-66379000D01*
X105658228Y-66411703D01*
X105658228Y-66411703D01*
G37*
G36*
X123441143Y-64022087D02*
G01*
X123597838Y-64086992D01*
X123738853Y-64181215D01*
X123858785Y-64301147D01*
X123953008Y-64442162D01*
X124017913Y-64598857D01*
X124051000Y-64765198D01*
X124051000Y-64934802D01*
X124017913Y-65101143D01*
X123953008Y-65257838D01*
X123858785Y-65398853D01*
X123738853Y-65518785D01*
X123597838Y-65613008D01*
X123441143Y-65677913D01*
X123274802Y-65711000D01*
X123105198Y-65711000D01*
X122938857Y-65677913D01*
X122782162Y-65613008D01*
X122641147Y-65518785D01*
X122521215Y-65398853D01*
X122426992Y-65257838D01*
X122362087Y-65101143D01*
X122329000Y-64934802D01*
X122329000Y-64765198D01*
X122362087Y-64598857D01*
X122426992Y-64442162D01*
X122521215Y-64301147D01*
X122641147Y-64181215D01*
X122782162Y-64086992D01*
X122938857Y-64022087D01*
X123105198Y-63989000D01*
X123274802Y-63989000D01*
X123441143Y-64022087D01*
X123441143Y-64022087D01*
G37*
G36*
X155050442Y-63875518D02*
G01*
X155116627Y-63882037D01*
X155286466Y-63933557D01*
X155442991Y-64017222D01*
X155448920Y-64022088D01*
X155580186Y-64129814D01*
X155663448Y-64231271D01*
X155692778Y-64267009D01*
X155776443Y-64423534D01*
X155827963Y-64593373D01*
X155845359Y-64770000D01*
X155827963Y-64946627D01*
X155776443Y-65116466D01*
X155692778Y-65272991D01*
X155663448Y-65308729D01*
X155580186Y-65410186D01*
X155478729Y-65493448D01*
X155442991Y-65522778D01*
X155286466Y-65606443D01*
X155116627Y-65657963D01*
X155050442Y-65664482D01*
X154984260Y-65671000D01*
X154895740Y-65671000D01*
X154829558Y-65664482D01*
X154763373Y-65657963D01*
X154593534Y-65606443D01*
X154437009Y-65522778D01*
X154401271Y-65493448D01*
X154299814Y-65410186D01*
X154216552Y-65308729D01*
X154187222Y-65272991D01*
X154103557Y-65116466D01*
X154052037Y-64946627D01*
X154034641Y-64770000D01*
X154052037Y-64593373D01*
X154103557Y-64423534D01*
X154187222Y-64267009D01*
X154216552Y-64231271D01*
X154299814Y-64129814D01*
X154431080Y-64022088D01*
X154437009Y-64017222D01*
X154593534Y-63933557D01*
X154763373Y-63882037D01*
X154829558Y-63875518D01*
X154895740Y-63869000D01*
X154984260Y-63869000D01*
X155050442Y-63875518D01*
X155050442Y-63875518D01*
G37*
G36*
X152510442Y-63875518D02*
G01*
X152576627Y-63882037D01*
X152746466Y-63933557D01*
X152902991Y-64017222D01*
X152908920Y-64022088D01*
X153040186Y-64129814D01*
X153123448Y-64231271D01*
X153152778Y-64267009D01*
X153236443Y-64423534D01*
X153287963Y-64593373D01*
X153305359Y-64770000D01*
X153287963Y-64946627D01*
X153236443Y-65116466D01*
X153152778Y-65272991D01*
X153123448Y-65308729D01*
X153040186Y-65410186D01*
X152938729Y-65493448D01*
X152902991Y-65522778D01*
X152746466Y-65606443D01*
X152576627Y-65657963D01*
X152510442Y-65664482D01*
X152444260Y-65671000D01*
X152355740Y-65671000D01*
X152289558Y-65664482D01*
X152223373Y-65657963D01*
X152053534Y-65606443D01*
X151897009Y-65522778D01*
X151861271Y-65493448D01*
X151759814Y-65410186D01*
X151676552Y-65308729D01*
X151647222Y-65272991D01*
X151563557Y-65116466D01*
X151512037Y-64946627D01*
X151494641Y-64770000D01*
X151512037Y-64593373D01*
X151563557Y-64423534D01*
X151647222Y-64267009D01*
X151676552Y-64231271D01*
X151759814Y-64129814D01*
X151891080Y-64022088D01*
X151897009Y-64017222D01*
X152053534Y-63933557D01*
X152223373Y-63882037D01*
X152289558Y-63875518D01*
X152355740Y-63869000D01*
X152444260Y-63869000D01*
X152510442Y-63875518D01*
X152510442Y-63875518D01*
G37*
G36*
X153301000Y-63131000D02*
G01*
X151499000Y-63131000D01*
X151499000Y-61329000D01*
X153301000Y-61329000D01*
X153301000Y-63131000D01*
X153301000Y-63131000D01*
G37*
G36*
X155050443Y-61335519D02*
G01*
X155116627Y-61342037D01*
X155286466Y-61393557D01*
X155442991Y-61477222D01*
X155478729Y-61506552D01*
X155580186Y-61589814D01*
X155663448Y-61691271D01*
X155692778Y-61727009D01*
X155776443Y-61883534D01*
X155827963Y-62053373D01*
X155845359Y-62230000D01*
X155827963Y-62406627D01*
X155776443Y-62576466D01*
X155692778Y-62732991D01*
X155663448Y-62768729D01*
X155580186Y-62870186D01*
X155478729Y-62953448D01*
X155442991Y-62982778D01*
X155286466Y-63066443D01*
X155116627Y-63117963D01*
X155050443Y-63124481D01*
X154984260Y-63131000D01*
X154895740Y-63131000D01*
X154829557Y-63124481D01*
X154763373Y-63117963D01*
X154593534Y-63066443D01*
X154437009Y-62982778D01*
X154401271Y-62953448D01*
X154299814Y-62870186D01*
X154216552Y-62768729D01*
X154187222Y-62732991D01*
X154103557Y-62576466D01*
X154052037Y-62406627D01*
X154034641Y-62230000D01*
X154052037Y-62053373D01*
X154103557Y-61883534D01*
X154187222Y-61727009D01*
X154216552Y-61691271D01*
X154299814Y-61589814D01*
X154401271Y-61506552D01*
X154437009Y-61477222D01*
X154593534Y-61393557D01*
X154763373Y-61342037D01*
X154829557Y-61335519D01*
X154895740Y-61329000D01*
X154984260Y-61329000D01*
X155050443Y-61335519D01*
X155050443Y-61335519D01*
G37*
G36*
X106261000Y-63081000D02*
G01*
X104559000Y-63081000D01*
X104559000Y-61379000D01*
X106261000Y-61379000D01*
X106261000Y-63081000D01*
X106261000Y-63081000D01*
G37*
G36*
X115151000Y-63081000D02*
G01*
X113449000Y-63081000D01*
X113449000Y-61379000D01*
X115151000Y-61379000D01*
X115151000Y-63081000D01*
X115151000Y-63081000D01*
G37*
G36*
X98456366Y-56255695D02*
G01*
X98613460Y-56303349D01*
X98758231Y-56380731D01*
X98885128Y-56484872D01*
X98989269Y-56611769D01*
X99066651Y-56756540D01*
X99114305Y-56913634D01*
X99131000Y-57083140D01*
X99131000Y-58996860D01*
X99114305Y-59166366D01*
X99066651Y-59323460D01*
X98989269Y-59468231D01*
X98885128Y-59595128D01*
X98758231Y-59699269D01*
X98613460Y-59776651D01*
X98456366Y-59824305D01*
X98286860Y-59841000D01*
X96373140Y-59841000D01*
X96203634Y-59824305D01*
X96046540Y-59776651D01*
X95901769Y-59699269D01*
X95774872Y-59595128D01*
X95670731Y-59468231D01*
X95593349Y-59323460D01*
X95545695Y-59166366D01*
X95529000Y-58996860D01*
X95529000Y-57083140D01*
X95545695Y-56913634D01*
X95593349Y-56756540D01*
X95670731Y-56611769D01*
X95774872Y-56484872D01*
X95901769Y-56380731D01*
X96046540Y-56303349D01*
X96203634Y-56255695D01*
X96373140Y-56239000D01*
X98286860Y-56239000D01*
X98456366Y-56255695D01*
X98456366Y-56255695D01*
G37*
G36*
X139966000Y-58686000D02*
G01*
X138164000Y-58686000D01*
X138164000Y-56884000D01*
X139966000Y-56884000D01*
X139966000Y-58686000D01*
X139966000Y-58686000D01*
G37*
G36*
X157301564Y-55559389D02*
G01*
X157492833Y-55638615D01*
X157492835Y-55638616D01*
X157656523Y-55747989D01*
X157664973Y-55753635D01*
X157811365Y-55900027D01*
X157926385Y-56072167D01*
X158005611Y-56263436D01*
X158046000Y-56466484D01*
X158046000Y-56673516D01*
X158005611Y-56876564D01*
X157990256Y-56913634D01*
X157926384Y-57067835D01*
X157811365Y-57239973D01*
X157664973Y-57386365D01*
X157492835Y-57501384D01*
X157492834Y-57501385D01*
X157492833Y-57501385D01*
X157301564Y-57580611D01*
X157098516Y-57621000D01*
X156891484Y-57621000D01*
X156688436Y-57580611D01*
X156497167Y-57501385D01*
X156497166Y-57501385D01*
X156497165Y-57501384D01*
X156325027Y-57386365D01*
X156178635Y-57239973D01*
X156063616Y-57067835D01*
X155999744Y-56913634D01*
X155984389Y-56876564D01*
X155944000Y-56673516D01*
X155944000Y-56466484D01*
X155984389Y-56263436D01*
X156063615Y-56072167D01*
X156178635Y-55900027D01*
X156325027Y-55753635D01*
X156333477Y-55747989D01*
X156497165Y-55638616D01*
X156497167Y-55638615D01*
X156688436Y-55559389D01*
X156891484Y-55519000D01*
X157098516Y-55519000D01*
X157301564Y-55559389D01*
X157301564Y-55559389D01*
G37*
G36*
X150801564Y-55559389D02*
G01*
X150992833Y-55638615D01*
X150992835Y-55638616D01*
X151156523Y-55747989D01*
X151164973Y-55753635D01*
X151311365Y-55900027D01*
X151426385Y-56072167D01*
X151505611Y-56263436D01*
X151546000Y-56466484D01*
X151546000Y-56673516D01*
X151505611Y-56876564D01*
X151490256Y-56913634D01*
X151426384Y-57067835D01*
X151311365Y-57239973D01*
X151164973Y-57386365D01*
X150992835Y-57501384D01*
X150992834Y-57501385D01*
X150992833Y-57501385D01*
X150801564Y-57580611D01*
X150598516Y-57621000D01*
X150391484Y-57621000D01*
X150188436Y-57580611D01*
X149997167Y-57501385D01*
X149997166Y-57501385D01*
X149997165Y-57501384D01*
X149825027Y-57386365D01*
X149678635Y-57239973D01*
X149563616Y-57067835D01*
X149499744Y-56913634D01*
X149484389Y-56876564D01*
X149444000Y-56673516D01*
X149444000Y-56466484D01*
X149484389Y-56263436D01*
X149563615Y-56072167D01*
X149678635Y-55900027D01*
X149825027Y-55753635D01*
X149833477Y-55747989D01*
X149997165Y-55638616D01*
X149997167Y-55638615D01*
X150188436Y-55559389D01*
X150391484Y-55519000D01*
X150598516Y-55519000D01*
X150801564Y-55559389D01*
X150801564Y-55559389D01*
G37*
G36*
X145681000Y-57416000D02*
G01*
X143879000Y-57416000D01*
X143879000Y-55614000D01*
X145681000Y-55614000D01*
X145681000Y-57416000D01*
X145681000Y-57416000D01*
G37*
G36*
X139175442Y-54350518D02*
G01*
X139241627Y-54357037D01*
X139411466Y-54408557D01*
X139567991Y-54492222D01*
X139597931Y-54516793D01*
X139705186Y-54604814D01*
X139783815Y-54700625D01*
X139817778Y-54742009D01*
X139901443Y-54898534D01*
X139952963Y-55068373D01*
X139970359Y-55245000D01*
X139952963Y-55421627D01*
X139901443Y-55591466D01*
X139817778Y-55747991D01*
X139813146Y-55753635D01*
X139705186Y-55885186D01*
X139603729Y-55968448D01*
X139567991Y-55997778D01*
X139411466Y-56081443D01*
X139241627Y-56132963D01*
X139175443Y-56139481D01*
X139109260Y-56146000D01*
X139020740Y-56146000D01*
X138954557Y-56139481D01*
X138888373Y-56132963D01*
X138718534Y-56081443D01*
X138562009Y-55997778D01*
X138526271Y-55968448D01*
X138424814Y-55885186D01*
X138316854Y-55753635D01*
X138312222Y-55747991D01*
X138228557Y-55591466D01*
X138177037Y-55421627D01*
X138159641Y-55245000D01*
X138177037Y-55068373D01*
X138228557Y-54898534D01*
X138312222Y-54742009D01*
X138346185Y-54700625D01*
X138424814Y-54604814D01*
X138532069Y-54516793D01*
X138562009Y-54492222D01*
X138718534Y-54408557D01*
X138888373Y-54357037D01*
X138954558Y-54350518D01*
X139020740Y-54344000D01*
X139109260Y-54344000D01*
X139175442Y-54350518D01*
X139175442Y-54350518D01*
G37*
G36*
X102131000Y-55141000D02*
G01*
X98529000Y-55141000D01*
X98529000Y-51539000D01*
X102131000Y-51539000D01*
X102131000Y-55141000D01*
X102131000Y-55141000D01*
G37*
G36*
X95306979Y-51553293D02*
G01*
X95440625Y-51593834D01*
X95563784Y-51659664D01*
X95671740Y-51748260D01*
X95760336Y-51856216D01*
X95826166Y-51979375D01*
X95866707Y-52113021D01*
X95881000Y-52258140D01*
X95881000Y-54421860D01*
X95866707Y-54566979D01*
X95826166Y-54700625D01*
X95760336Y-54823784D01*
X95671740Y-54931740D01*
X95563784Y-55020336D01*
X95440625Y-55086166D01*
X95306979Y-55126707D01*
X95161860Y-55141000D01*
X93498140Y-55141000D01*
X93353021Y-55126707D01*
X93219375Y-55086166D01*
X93096216Y-55020336D01*
X92988260Y-54931740D01*
X92899664Y-54823784D01*
X92833834Y-54700625D01*
X92793293Y-54566979D01*
X92779000Y-54421860D01*
X92779000Y-52258140D01*
X92793293Y-52113021D01*
X92833834Y-51979375D01*
X92899664Y-51856216D01*
X92988260Y-51748260D01*
X93096216Y-51659664D01*
X93219375Y-51593834D01*
X93353021Y-51553293D01*
X93498140Y-51539000D01*
X95161860Y-51539000D01*
X95306979Y-51553293D01*
X95306979Y-51553293D01*
G37*
G36*
X134262395Y-53060546D02*
G01*
X134435466Y-53132234D01*
X134512818Y-53183919D01*
X134591227Y-53236310D01*
X134723690Y-53368773D01*
X134723691Y-53368775D01*
X134827766Y-53524534D01*
X134899454Y-53697605D01*
X134936000Y-53881333D01*
X134936000Y-54068667D01*
X134899454Y-54252395D01*
X134827766Y-54425466D01*
X134827765Y-54425467D01*
X134723690Y-54581227D01*
X134591227Y-54713690D01*
X134570141Y-54727779D01*
X134435466Y-54817766D01*
X134262395Y-54889454D01*
X134078667Y-54926000D01*
X133891333Y-54926000D01*
X133707605Y-54889454D01*
X133534534Y-54817766D01*
X133399859Y-54727779D01*
X133378773Y-54713690D01*
X133246310Y-54581227D01*
X133142235Y-54425467D01*
X133142234Y-54425466D01*
X133070546Y-54252395D01*
X133034000Y-54068667D01*
X133034000Y-53881333D01*
X133070546Y-53697605D01*
X133142234Y-53524534D01*
X133246309Y-53368775D01*
X133246310Y-53368773D01*
X133378773Y-53236310D01*
X133457182Y-53183919D01*
X133534534Y-53132234D01*
X133707605Y-53060546D01*
X133891333Y-53024000D01*
X134078667Y-53024000D01*
X134262395Y-53060546D01*
X134262395Y-53060546D01*
G37*
G36*
X132396000Y-54926000D02*
G01*
X130494000Y-54926000D01*
X130494000Y-53024000D01*
X132396000Y-53024000D01*
X132396000Y-54926000D01*
X132396000Y-54926000D01*
G37*
G36*
X144890442Y-53080518D02*
G01*
X144956627Y-53087037D01*
X145126466Y-53138557D01*
X145282991Y-53222222D01*
X145318729Y-53251552D01*
X145420186Y-53334814D01*
X145503448Y-53436271D01*
X145532778Y-53472009D01*
X145616443Y-53628534D01*
X145667963Y-53798373D01*
X145685359Y-53975000D01*
X145667963Y-54151627D01*
X145616443Y-54321466D01*
X145532778Y-54477991D01*
X145503448Y-54513729D01*
X145420186Y-54615186D01*
X145318729Y-54698448D01*
X145282991Y-54727778D01*
X145126466Y-54811443D01*
X144956627Y-54862963D01*
X144890443Y-54869481D01*
X144824260Y-54876000D01*
X144735740Y-54876000D01*
X144669557Y-54869481D01*
X144603373Y-54862963D01*
X144433534Y-54811443D01*
X144277009Y-54727778D01*
X144241271Y-54698448D01*
X144139814Y-54615186D01*
X144056552Y-54513729D01*
X144027222Y-54477991D01*
X143943557Y-54321466D01*
X143892037Y-54151627D01*
X143874641Y-53975000D01*
X143892037Y-53798373D01*
X143943557Y-53628534D01*
X144027222Y-53472009D01*
X144056552Y-53436271D01*
X144139814Y-53334814D01*
X144241271Y-53251552D01*
X144277009Y-53222222D01*
X144433534Y-53138557D01*
X144603373Y-53087037D01*
X144669558Y-53080518D01*
X144735740Y-53074000D01*
X144824260Y-53074000D01*
X144890442Y-53080518D01*
X144890442Y-53080518D01*
G37*
G36*
X113336564Y-52329389D02*
G01*
X113527833Y-52408615D01*
X113527835Y-52408616D01*
X113699973Y-52523635D01*
X113846365Y-52670027D01*
X113961385Y-52842167D01*
X114040611Y-53033436D01*
X114081000Y-53236484D01*
X114081000Y-53443516D01*
X114040611Y-53646564D01*
X114019469Y-53697605D01*
X113961384Y-53837835D01*
X113846365Y-54009973D01*
X113699973Y-54156365D01*
X113527835Y-54271384D01*
X113527834Y-54271385D01*
X113527833Y-54271385D01*
X113336564Y-54350611D01*
X113133516Y-54391000D01*
X112926484Y-54391000D01*
X112723436Y-54350611D01*
X112532167Y-54271385D01*
X112532166Y-54271385D01*
X112532165Y-54271384D01*
X112360027Y-54156365D01*
X112213635Y-54009973D01*
X112098616Y-53837835D01*
X112040531Y-53697605D01*
X112019389Y-53646564D01*
X111979000Y-53443516D01*
X111979000Y-53236484D01*
X112019389Y-53033436D01*
X112098615Y-52842167D01*
X112213635Y-52670027D01*
X112360027Y-52523635D01*
X112532165Y-52408616D01*
X112532167Y-52408615D01*
X112723436Y-52329389D01*
X112926484Y-52289000D01*
X113133516Y-52289000D01*
X113336564Y-52329389D01*
X113336564Y-52329389D01*
G37*
G36*
X110796564Y-52329389D02*
G01*
X110987833Y-52408615D01*
X110987835Y-52408616D01*
X111159973Y-52523635D01*
X111306365Y-52670027D01*
X111421385Y-52842167D01*
X111500611Y-53033436D01*
X111541000Y-53236484D01*
X111541000Y-53443516D01*
X111500611Y-53646564D01*
X111479469Y-53697605D01*
X111421384Y-53837835D01*
X111306365Y-54009973D01*
X111159973Y-54156365D01*
X110987835Y-54271384D01*
X110987834Y-54271385D01*
X110987833Y-54271385D01*
X110796564Y-54350611D01*
X110593516Y-54391000D01*
X110386484Y-54391000D01*
X110183436Y-54350611D01*
X109992167Y-54271385D01*
X109992166Y-54271385D01*
X109992165Y-54271384D01*
X109820027Y-54156365D01*
X109673635Y-54009973D01*
X109558616Y-53837835D01*
X109500531Y-53697605D01*
X109479389Y-53646564D01*
X109439000Y-53443516D01*
X109439000Y-53236484D01*
X109479389Y-53033436D01*
X109558615Y-52842167D01*
X109673635Y-52670027D01*
X109820027Y-52523635D01*
X109992165Y-52408616D01*
X109992167Y-52408615D01*
X110183436Y-52329389D01*
X110386484Y-52289000D01*
X110593516Y-52289000D01*
X110796564Y-52329389D01*
X110796564Y-52329389D01*
G37*
G36*
X109001000Y-54391000D02*
G01*
X106899000Y-54391000D01*
X106899000Y-52289000D01*
X109001000Y-52289000D01*
X109001000Y-54391000D01*
X109001000Y-54391000D01*
G37*
G36*
X139175442Y-51810518D02*
G01*
X139241627Y-51817037D01*
X139411466Y-51868557D01*
X139567991Y-51952222D01*
X139601077Y-51979375D01*
X139705186Y-52064814D01*
X139785934Y-52163207D01*
X139817778Y-52202009D01*
X139901443Y-52358534D01*
X139952963Y-52528373D01*
X139970359Y-52705000D01*
X139952963Y-52881627D01*
X139901443Y-53051466D01*
X139817778Y-53207991D01*
X139788448Y-53243729D01*
X139705186Y-53345186D01*
X139603729Y-53428448D01*
X139567991Y-53457778D01*
X139411466Y-53541443D01*
X139241627Y-53592963D01*
X139175442Y-53599482D01*
X139109260Y-53606000D01*
X139020740Y-53606000D01*
X138954558Y-53599482D01*
X138888373Y-53592963D01*
X138718534Y-53541443D01*
X138562009Y-53457778D01*
X138526271Y-53428448D01*
X138424814Y-53345186D01*
X138341552Y-53243729D01*
X138312222Y-53207991D01*
X138228557Y-53051466D01*
X138177037Y-52881627D01*
X138159641Y-52705000D01*
X138177037Y-52528373D01*
X138228557Y-52358534D01*
X138312222Y-52202009D01*
X138344066Y-52163207D01*
X138424814Y-52064814D01*
X138528923Y-51979375D01*
X138562009Y-51952222D01*
X138718534Y-51868557D01*
X138888373Y-51817037D01*
X138954558Y-51810518D01*
X139020740Y-51804000D01*
X139109260Y-51804000D01*
X139175442Y-51810518D01*
X139175442Y-51810518D01*
G37*
G36*
X157301564Y-51059389D02*
G01*
X157492833Y-51138615D01*
X157492835Y-51138616D01*
X157664973Y-51253635D01*
X157811365Y-51400027D01*
X157926385Y-51572167D01*
X158005611Y-51763436D01*
X158046000Y-51966484D01*
X158046000Y-52173516D01*
X158005611Y-52376564D01*
X157944692Y-52523635D01*
X157926384Y-52567835D01*
X157811365Y-52739973D01*
X157664973Y-52886365D01*
X157492835Y-53001384D01*
X157492834Y-53001385D01*
X157492833Y-53001385D01*
X157301564Y-53080611D01*
X157098516Y-53121000D01*
X156891484Y-53121000D01*
X156688436Y-53080611D01*
X156497167Y-53001385D01*
X156497166Y-53001385D01*
X156497165Y-53001384D01*
X156325027Y-52886365D01*
X156178635Y-52739973D01*
X156063616Y-52567835D01*
X156045308Y-52523635D01*
X155984389Y-52376564D01*
X155944000Y-52173516D01*
X155944000Y-51966484D01*
X155984389Y-51763436D01*
X156063615Y-51572167D01*
X156178635Y-51400027D01*
X156325027Y-51253635D01*
X156497165Y-51138616D01*
X156497167Y-51138615D01*
X156688436Y-51059389D01*
X156891484Y-51019000D01*
X157098516Y-51019000D01*
X157301564Y-51059389D01*
X157301564Y-51059389D01*
G37*
G36*
X150801564Y-51059389D02*
G01*
X150992833Y-51138615D01*
X150992835Y-51138616D01*
X151164973Y-51253635D01*
X151311365Y-51400027D01*
X151426385Y-51572167D01*
X151505611Y-51763436D01*
X151546000Y-51966484D01*
X151546000Y-52173516D01*
X151505611Y-52376564D01*
X151444692Y-52523635D01*
X151426384Y-52567835D01*
X151311365Y-52739973D01*
X151164973Y-52886365D01*
X150992835Y-53001384D01*
X150992834Y-53001385D01*
X150992833Y-53001385D01*
X150801564Y-53080611D01*
X150598516Y-53121000D01*
X150391484Y-53121000D01*
X150188436Y-53080611D01*
X149997167Y-53001385D01*
X149997166Y-53001385D01*
X149997165Y-53001384D01*
X149825027Y-52886365D01*
X149678635Y-52739973D01*
X149563616Y-52567835D01*
X149545308Y-52523635D01*
X149484389Y-52376564D01*
X149444000Y-52173516D01*
X149444000Y-51966484D01*
X149484389Y-51763436D01*
X149563615Y-51572167D01*
X149678635Y-51400027D01*
X149825027Y-51253635D01*
X149997165Y-51138616D01*
X149997167Y-51138615D01*
X150188436Y-51059389D01*
X150391484Y-51019000D01*
X150598516Y-51019000D01*
X150801564Y-51059389D01*
X150801564Y-51059389D01*
G37*
G36*
X142869256Y-44619298D02*
G01*
X142975579Y-44640447D01*
X143276042Y-44764903D01*
X143546451Y-44945585D01*
X143776415Y-45175549D01*
X143957097Y-45445958D01*
X144081553Y-45746421D01*
X144145000Y-46065391D01*
X144145000Y-46390609D01*
X144081553Y-46709579D01*
X143957097Y-47010042D01*
X143776415Y-47280451D01*
X143546451Y-47510415D01*
X143276042Y-47691097D01*
X142975579Y-47815553D01*
X142869256Y-47836702D01*
X142656611Y-47879000D01*
X142331389Y-47879000D01*
X142118744Y-47836702D01*
X142012421Y-47815553D01*
X141711958Y-47691097D01*
X141441549Y-47510415D01*
X141211585Y-47280451D01*
X141030903Y-47010042D01*
X140906447Y-46709579D01*
X140843000Y-46390609D01*
X140843000Y-46065391D01*
X140906447Y-45746421D01*
X141030903Y-45445958D01*
X141211585Y-45175549D01*
X141441549Y-44945585D01*
X141711958Y-44764903D01*
X142012421Y-44640447D01*
X142118744Y-44619298D01*
X142331389Y-44577000D01*
X142656611Y-44577000D01*
X142869256Y-44619298D01*
X142869256Y-44619298D01*
G37*
M02*
