G04 #@! TF.GenerationSoftware,KiCad,Pcbnew,(5.1.2)-2*
G04 #@! TF.CreationDate,2020-01-11T10:49:25+03:00*
G04 #@! TF.ProjectId,DINODE,44494e4f-4445-42e6-9b69-6361645f7063,rev?*
G04 #@! TF.SameCoordinates,Original*
G04 #@! TF.FileFunction,Legend,Bot*
G04 #@! TF.FilePolarity,Positive*
%FSLAX46Y46*%
G04 Gerber Fmt 4.6, Leading zero omitted, Abs format (unit mm)*
G04 Created by KiCad (PCBNEW (5.1.2)-2) date 2020-01-11 10:49:25*
%MOMM*%
%LPD*%
G04 APERTURE LIST*
%ADD10C,0.150000*%
%ADD11C,0.050000*%
G04 APERTURE END LIST*
D10*
X129912000Y-85891714D02*
X129912000Y-86748857D01*
X129959619Y-86844095D01*
X130054857Y-86891714D01*
X130102476Y-86891714D01*
X129912000Y-85558380D02*
X129959619Y-85606000D01*
X129912000Y-85653619D01*
X129864380Y-85606000D01*
X129912000Y-85558380D01*
X129912000Y-85653619D01*
X129007238Y-86558380D02*
X129007238Y-86034571D01*
X129054857Y-85939333D01*
X129150095Y-85891714D01*
X129340571Y-85891714D01*
X129435809Y-85939333D01*
X129007238Y-86510761D02*
X129102476Y-86558380D01*
X129340571Y-86558380D01*
X129435809Y-86510761D01*
X129483428Y-86415523D01*
X129483428Y-86320285D01*
X129435809Y-86225047D01*
X129340571Y-86177428D01*
X129102476Y-86177428D01*
X129007238Y-86129809D01*
X128102476Y-86510761D02*
X128197714Y-86558380D01*
X128388190Y-86558380D01*
X128483428Y-86510761D01*
X128531047Y-86463142D01*
X128578666Y-86367904D01*
X128578666Y-86082190D01*
X128531047Y-85986952D01*
X128483428Y-85939333D01*
X128388190Y-85891714D01*
X128197714Y-85891714D01*
X128102476Y-85939333D01*
X127673904Y-86558380D02*
X127673904Y-85558380D01*
X127578666Y-86177428D02*
X127292952Y-86558380D01*
X127292952Y-85891714D02*
X127673904Y-86272666D01*
X126435809Y-86558380D02*
X126435809Y-86034571D01*
X126483428Y-85939333D01*
X126578666Y-85891714D01*
X126769142Y-85891714D01*
X126864380Y-85939333D01*
X126435809Y-86510761D02*
X126531047Y-86558380D01*
X126769142Y-86558380D01*
X126864380Y-86510761D01*
X126912000Y-86415523D01*
X126912000Y-86320285D01*
X126864380Y-86225047D01*
X126769142Y-86177428D01*
X126531047Y-86177428D01*
X126435809Y-86129809D01*
X125531047Y-85891714D02*
X125531047Y-86701238D01*
X125578666Y-86796476D01*
X125626285Y-86844095D01*
X125721523Y-86891714D01*
X125864380Y-86891714D01*
X125959619Y-86844095D01*
X125531047Y-86510761D02*
X125626285Y-86558380D01*
X125816761Y-86558380D01*
X125912000Y-86510761D01*
X125959619Y-86463142D01*
X126007238Y-86367904D01*
X126007238Y-86082190D01*
X125959619Y-85986952D01*
X125912000Y-85939333D01*
X125816761Y-85891714D01*
X125626285Y-85891714D01*
X125531047Y-85939333D01*
X125150095Y-85891714D02*
X124959619Y-86558380D01*
X124769142Y-86082190D01*
X124578666Y-86558380D01*
X124388190Y-85891714D01*
X123578666Y-86558380D02*
X123578666Y-86034571D01*
X123626285Y-85939333D01*
X123721523Y-85891714D01*
X123912000Y-85891714D01*
X124007238Y-85939333D01*
X123578666Y-86510761D02*
X123673904Y-86558380D01*
X123912000Y-86558380D01*
X124007238Y-86510761D01*
X124054857Y-86415523D01*
X124054857Y-86320285D01*
X124007238Y-86225047D01*
X123912000Y-86177428D01*
X123673904Y-86177428D01*
X123578666Y-86129809D01*
X123197714Y-85891714D02*
X122959619Y-86558380D01*
X122721523Y-85891714D02*
X122959619Y-86558380D01*
X123054857Y-86796476D01*
X123102476Y-86844095D01*
X123197714Y-86891714D01*
X121912000Y-86558380D02*
X121912000Y-86034571D01*
X121959619Y-85939333D01*
X122054857Y-85891714D01*
X122245333Y-85891714D01*
X122340571Y-85939333D01*
X121912000Y-86510761D02*
X122007238Y-86558380D01*
X122245333Y-86558380D01*
X122340571Y-86510761D01*
X122388190Y-86415523D01*
X122388190Y-86320285D01*
X122340571Y-86225047D01*
X122245333Y-86177428D01*
X122007238Y-86177428D01*
X121912000Y-86129809D01*
X120816761Y-86082190D02*
X120864380Y-86034571D01*
X120959619Y-85986952D01*
X121054857Y-85986952D01*
X121150095Y-86034571D01*
X121197714Y-86082190D01*
X121245333Y-86177428D01*
X121245333Y-86272666D01*
X121197714Y-86367904D01*
X121150095Y-86415523D01*
X121054857Y-86463142D01*
X120959619Y-86463142D01*
X120864380Y-86415523D01*
X120816761Y-86367904D01*
X120816761Y-85986952D02*
X120816761Y-86367904D01*
X120769142Y-86415523D01*
X120721523Y-86415523D01*
X120626285Y-86367904D01*
X120578666Y-86272666D01*
X120578666Y-86034571D01*
X120673904Y-85891714D01*
X120816761Y-85796476D01*
X121007238Y-85748857D01*
X121197714Y-85796476D01*
X121340571Y-85891714D01*
X121435809Y-86034571D01*
X121483428Y-86225047D01*
X121435809Y-86415523D01*
X121340571Y-86558380D01*
X121197714Y-86653619D01*
X121007238Y-86701238D01*
X120816761Y-86653619D01*
X120673904Y-86558380D01*
X119721523Y-85891714D02*
X119721523Y-86701238D01*
X119769142Y-86796476D01*
X119816761Y-86844095D01*
X119912000Y-86891714D01*
X120054857Y-86891714D01*
X120150095Y-86844095D01*
X119721523Y-86510761D02*
X119816761Y-86558380D01*
X120007238Y-86558380D01*
X120102476Y-86510761D01*
X120150095Y-86463142D01*
X120197714Y-86367904D01*
X120197714Y-86082190D01*
X120150095Y-85986952D01*
X120102476Y-85939333D01*
X120007238Y-85891714D01*
X119816761Y-85891714D01*
X119721523Y-85939333D01*
X119245333Y-86558380D02*
X119245333Y-85891714D01*
X119245333Y-85986952D02*
X119197714Y-85939333D01*
X119102476Y-85891714D01*
X118959619Y-85891714D01*
X118864380Y-85939333D01*
X118816761Y-86034571D01*
X118816761Y-86558380D01*
X118816761Y-86034571D02*
X118769142Y-85939333D01*
X118673904Y-85891714D01*
X118531047Y-85891714D01*
X118435809Y-85939333D01*
X118388190Y-86034571D01*
X118388190Y-86558380D01*
X117483428Y-86558380D02*
X117483428Y-86034571D01*
X117531047Y-85939333D01*
X117626285Y-85891714D01*
X117816761Y-85891714D01*
X117912000Y-85939333D01*
X117483428Y-86510761D02*
X117578666Y-86558380D01*
X117816761Y-86558380D01*
X117912000Y-86510761D01*
X117959619Y-86415523D01*
X117959619Y-86320285D01*
X117912000Y-86225047D01*
X117816761Y-86177428D01*
X117578666Y-86177428D01*
X117483428Y-86129809D01*
X117007238Y-86558380D02*
X117007238Y-85891714D01*
X117007238Y-85558380D02*
X117054857Y-85606000D01*
X117007238Y-85653619D01*
X116959619Y-85606000D01*
X117007238Y-85558380D01*
X117007238Y-85653619D01*
X116388190Y-86558380D02*
X116483428Y-86510761D01*
X116531047Y-86415523D01*
X116531047Y-85558380D01*
X116007238Y-86463142D02*
X115959619Y-86510761D01*
X116007238Y-86558380D01*
X116054857Y-86510761D01*
X116007238Y-86463142D01*
X116007238Y-86558380D01*
X115102476Y-86510761D02*
X115197714Y-86558380D01*
X115388190Y-86558380D01*
X115483428Y-86510761D01*
X115531047Y-86463142D01*
X115578666Y-86367904D01*
X115578666Y-86082190D01*
X115531047Y-85986952D01*
X115483428Y-85939333D01*
X115388190Y-85891714D01*
X115197714Y-85891714D01*
X115102476Y-85939333D01*
X114531047Y-86558380D02*
X114626285Y-86510761D01*
X114673904Y-86463142D01*
X114721523Y-86367904D01*
X114721523Y-86082190D01*
X114673904Y-85986952D01*
X114626285Y-85939333D01*
X114531047Y-85891714D01*
X114388190Y-85891714D01*
X114292952Y-85939333D01*
X114245333Y-85986952D01*
X114197714Y-86082190D01*
X114197714Y-86367904D01*
X114245333Y-86463142D01*
X114292952Y-86510761D01*
X114388190Y-86558380D01*
X114531047Y-86558380D01*
X113769142Y-86558380D02*
X113769142Y-85891714D01*
X113769142Y-85986952D02*
X113721523Y-85939333D01*
X113626285Y-85891714D01*
X113483428Y-85891714D01*
X113388190Y-85939333D01*
X113340571Y-86034571D01*
X113340571Y-86558380D01*
X113340571Y-86034571D02*
X113292952Y-85939333D01*
X113197714Y-85891714D01*
X113054857Y-85891714D01*
X112959619Y-85939333D01*
X112912000Y-86034571D01*
X112912000Y-86558380D01*
D11*
X159131000Y-129540000D02*
X130810000Y-129540000D01*
X159131000Y-60198000D02*
X159131000Y-129540000D01*
X159131000Y-45720000D02*
X148590000Y-45720000D01*
X159131000Y-60198000D02*
X159131000Y-45720000D01*
D10*
X129332809Y-83875571D02*
X129189952Y-83923190D01*
X129142333Y-83970809D01*
X129094714Y-84066047D01*
X129094714Y-84208904D01*
X129142333Y-84304142D01*
X129189952Y-84351761D01*
X129285190Y-84399380D01*
X129666142Y-84399380D01*
X129666142Y-83399380D01*
X129332809Y-83399380D01*
X129237571Y-83447000D01*
X129189952Y-83494619D01*
X129142333Y-83589857D01*
X129142333Y-83685095D01*
X129189952Y-83780333D01*
X129237571Y-83827952D01*
X129332809Y-83875571D01*
X129666142Y-83875571D01*
X128475666Y-83923190D02*
X128475666Y-84399380D01*
X128809000Y-83399380D02*
X128475666Y-83923190D01*
X128142333Y-83399380D01*
X127809000Y-84304142D02*
X127761380Y-84351761D01*
X127809000Y-84399380D01*
X127856619Y-84351761D01*
X127809000Y-84304142D01*
X127809000Y-84399380D01*
X127809000Y-83780333D02*
X127761380Y-83827952D01*
X127809000Y-83875571D01*
X127856619Y-83827952D01*
X127809000Y-83780333D01*
X127809000Y-83875571D01*
X126285190Y-83399380D02*
X126285190Y-84113666D01*
X126332809Y-84256523D01*
X126428047Y-84351761D01*
X126570904Y-84399380D01*
X126666142Y-84399380D01*
X125856619Y-84113666D02*
X125380428Y-84113666D01*
X125951857Y-84399380D02*
X125618523Y-83399380D01*
X125285190Y-84399380D01*
X124380428Y-84304142D02*
X124428047Y-84351761D01*
X124570904Y-84399380D01*
X124666142Y-84399380D01*
X124809000Y-84351761D01*
X124904238Y-84256523D01*
X124951857Y-84161285D01*
X124999476Y-83970809D01*
X124999476Y-83827952D01*
X124951857Y-83637476D01*
X124904238Y-83542238D01*
X124809000Y-83447000D01*
X124666142Y-83399380D01*
X124570904Y-83399380D01*
X124428047Y-83447000D01*
X124380428Y-83494619D01*
X123951857Y-84399380D02*
X123951857Y-83399380D01*
X123380428Y-84399380D02*
X123809000Y-83827952D01*
X123380428Y-83399380D02*
X123951857Y-83970809D01*
X122189952Y-84399380D02*
X122189952Y-83399380D01*
X121856619Y-84113666D01*
X121523285Y-83399380D01*
X121523285Y-84399380D01*
X120475666Y-84304142D02*
X120523285Y-84351761D01*
X120666142Y-84399380D01*
X120761380Y-84399380D01*
X120904238Y-84351761D01*
X120999476Y-84256523D01*
X121047095Y-84161285D01*
X121094714Y-83970809D01*
X121094714Y-83827952D01*
X121047095Y-83637476D01*
X120999476Y-83542238D01*
X120904238Y-83447000D01*
X120761380Y-83399380D01*
X120666142Y-83399380D01*
X120523285Y-83447000D01*
X120475666Y-83494619D01*
X119570904Y-84399380D02*
X120047095Y-84399380D01*
X120047095Y-83399380D01*
X119237571Y-83875571D02*
X118904238Y-83875571D01*
X118761380Y-84399380D02*
X119237571Y-84399380D01*
X119237571Y-83399380D01*
X118761380Y-83399380D01*
X118380428Y-84113666D02*
X117904238Y-84113666D01*
X118475666Y-84399380D02*
X118142333Y-83399380D01*
X117809000Y-84399380D01*
X117475666Y-84399380D02*
X117475666Y-83399380D01*
X116904238Y-84399380D01*
X116904238Y-83399380D01*
X116475666Y-84351761D02*
X116332809Y-84399380D01*
X116094714Y-84399380D01*
X115999476Y-84351761D01*
X115951857Y-84304142D01*
X115904238Y-84208904D01*
X115904238Y-84113666D01*
X115951857Y-84018428D01*
X115999476Y-83970809D01*
X116094714Y-83923190D01*
X116285190Y-83875571D01*
X116380428Y-83827952D01*
X116428047Y-83780333D01*
X116475666Y-83685095D01*
X116475666Y-83589857D01*
X116428047Y-83494619D01*
X116380428Y-83447000D01*
X116285190Y-83399380D01*
X116047095Y-83399380D01*
X115904238Y-83447000D01*
D11*
X137160000Y-43180000D02*
X111760000Y-43180000D01*
X137160000Y-46990000D02*
X137160000Y-43180000D01*
X111760000Y-46990000D02*
X137160000Y-46990000D01*
X111760000Y-43180000D02*
X111760000Y-46990000D01*
X138303000Y-39370000D02*
X148590000Y-45720000D01*
X136017000Y-39370000D02*
X138303000Y-39370000D01*
X111760000Y-39370000D02*
X136017000Y-39370000D01*
X101473000Y-45720000D02*
X111760000Y-39370000D01*
X86995000Y-45720000D02*
X101473000Y-45720000D01*
X85090000Y-45720000D02*
X86995000Y-45720000D01*
X85090000Y-129540000D02*
X90170000Y-129540000D01*
X85090000Y-45720000D02*
X85090000Y-129540000D01*
X90170000Y-129540000D02*
X130810000Y-129540000D01*
M02*
