M48
; DRILL file {KiCad (5.1.2)-2} date 1/11/2020 10:51:02 AM
; FORMAT={-:-/ absolute / inch / decimal}
; #@! TF.CreationDate,2020-01-11T10:51:02+03:00
; #@! TF.GenerationSoftware,Kicad,Pcbnew,(5.1.2)-2
; #@! TF.FileFunction,Plated,1,2,PTH
FMAT,2
INCH
T1C0.0138
T2C0.0315
T3C0.0354
T4C0.0394
T5C0.0400
T6C0.0433
%
G90
G05
T1
X3.8791Y-4.0991
X4.02Y-2.92
X4.07Y-3.95
X4.08Y-2.89
X4.11Y-3.35
X4.12Y-3.52
X4.19Y-2.8
X4.21Y-3.06
X4.23Y-4.0
X4.26Y-3.19
X4.4672Y-3.5172
X4.48Y-3.32
X4.52Y-3.29
X4.52Y-4.23
X4.61Y-4.24
X4.63Y-3.02
X4.69Y-2.98
X4.6975Y-3.1925
X4.7Y-4.6
X4.71Y-3.31
X4.72Y-3.02
X4.72Y-3.25
X4.7805Y-2.75
X4.785Y-3.74
X4.787Y-3.043
X4.8185Y-3.0115
X4.8264Y-2.4236
X4.83Y-3.75
X4.85Y-3.41
X4.85Y-4.92
X4.9Y-2.21
X4.9Y-4.41
X4.91Y-3.74
X4.91Y-4.36
X4.92Y-2.9054
X4.94Y-3.76
X4.97Y-3.78
X5.01Y-3.79
X5.025Y-4.115
X5.0463Y-3.8163
X5.07Y-3.84
X5.0736Y-2.4236
X5.11Y-3.86
X5.13Y-3.66
X5.15Y-3.87
X5.17Y-3.69
X5.21Y-3.63
X5.25Y-3.66
X5.28Y-3.69
X5.34Y-3.42
X5.38Y-4.17
X5.39Y-2.23
X5.39Y-4.09
X5.46Y-4.41
X5.5Y-3.22
X5.5Y-4.21
X5.55Y-4.36
X5.57Y-2.5
X5.58Y-4.24
X5.58Y-4.41
X5.66Y-3.42
X5.67Y-4.2634
X5.68Y-4.0
X5.7Y-3.28
X5.7128Y-3.1772
X5.72Y-2.83
X5.75Y-4.26
X5.75Y-4.5195
X5.76Y-2.32
X5.77Y-2.99
X5.78Y-2.83
X5.78Y-2.93
X5.81Y-3.05
X5.81Y-3.52
X5.84Y-3.11
X5.87Y-3.15
X5.905Y-3.36
X6.02Y-3.93
X6.18Y-4.05
T2
X4.15Y-2.45
X4.15Y-2.6469
X4.5Y-2.45
X4.5Y-2.6469
X4.225Y-4.5
X4.525Y-4.5
X3.8Y-4.5
X4.1Y-4.5
X4.3Y-3.3079
X4.3Y-3.5
T3
X5.175Y-2.125
X5.275Y-2.125
X3.975Y-4.0031
X3.975Y-4.2
X4.1719Y-4.1016
X4.85Y-2.5531
X4.85Y-2.75
X5.0469Y-2.6516
X5.375Y-3.1
X5.475Y-3.1
T4
X5.7Y-2.125
X5.7Y-2.225
X6.0Y-3.55
X6.0Y-3.65
X6.0Y-3.75
X6.0Y-3.85
X6.1Y-3.55
X6.1Y-3.65
X6.1Y-3.75
X6.1Y-3.85
X6.0Y-2.45
X6.0Y-2.55
X6.0Y-2.65
X6.0Y-2.75
X6.1Y-2.45
X6.1Y-2.55
X6.1Y-2.65
X6.1Y-2.75
X6.0Y-4.1
X6.0Y-4.2
X6.0Y-4.3
X6.0Y-4.4
X6.1Y-4.1
X6.1Y-4.2
X6.1Y-4.3
X6.1Y-4.4
X5.775Y-4.65
X5.775Y-4.75
X5.775Y-4.85
X5.775Y-4.95
X5.875Y-4.65
X5.875Y-4.75
X5.875Y-4.85
X5.875Y-4.95
X6.0Y-3.0
X6.0Y-3.1
X6.0Y-3.2
X6.0Y-3.3
X6.1Y-3.0
X6.1Y-3.1
X6.1Y-3.2
X6.1Y-3.3
X4.3Y-4.775
X4.4Y-4.775
X4.5Y-4.775
X4.6Y-4.775
X4.7Y-4.775
X4.8Y-4.775
X4.9Y-4.775
X6.05Y-4.7
X6.05Y-4.8
X6.05Y-4.9
X5.475Y-2.075
X5.475Y-2.175
X5.475Y-2.275
X3.75Y-4.7
X3.75Y-4.8
X3.85Y-4.7
X3.85Y-4.8
X3.95Y-4.7
X3.95Y-4.8
X4.05Y-4.7
X4.05Y-4.8
X4.25Y-2.1
X4.35Y-2.1
X4.45Y-2.1
X3.75Y-2.7
X3.75Y-2.8
X3.75Y-2.9
X3.75Y-3.0
X3.75Y-3.1
X3.75Y-3.2
X3.75Y-3.3
X3.75Y-3.4
X3.75Y-3.5
X3.75Y-3.6
X3.75Y-3.7
X3.75Y-3.8
X3.75Y-3.9
X3.75Y-4.0
X3.75Y-4.1
X3.75Y-4.2
T5
X5.2Y-4.5
X5.2Y-4.6
X5.3Y-4.5
X5.3Y-4.6
X5.4Y-4.5
X5.4Y-4.6
T6
X5.925Y-2.05
X5.925Y-2.2272
X6.1809Y-2.05
X6.1809Y-2.2272
T4
G00X3.7138Y-2.0606
M15
G01X3.7138Y-2.1394
M16
G05
G00X3.7925Y-2.285
M15
G01X3.8713Y-2.285
M16
G05
G00X3.95Y-2.0606
M15
G01X3.95Y-2.1394
M16
G05
T0
M30
